<svg width="49" height="48" viewBox="0 0 49 48" fill="none" xmlns="http://www.w3.org/2000/svg">
<rect x="1.50781" y="0.75" width="46.5" height="46.5" stroke="#F9F0E5" stroke-width="1.5"/>
<path fill-rule="evenodd" clip-rule="evenodd" d="M17.2889 23.5381C21.3167 21.8135 24.0019 20.6756 25.3445 20.127C29.1816 18.56 29.9772 18.2857 30.4966 18.2775C30.6099 18.2748 30.8668 18.3047 31.0325 18.435C31.1734 18.5464 31.2121 18.6957 31.2287 18.8017C31.2452 18.9076 31.2701 19.1493 31.2508 19.3367C31.0436 21.4849 30.143 26.6939 29.6872 29.1002C29.4938 30.1186 29.1126 30.4581 28.7424 30.4934C27.9412 30.5667 27.3307 29.972 26.5545 29.4722C25.3389 28.6901 24.6511 28.2012 23.4715 27.4354C22.1068 26.5527 22.9908 26.0666 23.7698 25.2735C23.9742 25.0671 27.5075 21.9059 27.5766 21.618C27.5849 21.5827 27.5932 21.4496 27.5131 21.379C27.4329 21.3084 27.3141 21.3328 27.2257 21.3519C27.1042 21.379 25.1621 22.6419 21.3996 25.1377C20.847 25.5098 20.3498 25.6918 19.9023 25.6809C19.4078 25.6701 18.4602 25.4066 17.7558 25.1812C16.8911 24.9042 16.2032 24.7575 16.2612 24.2877C16.2944 24.0433 16.6369 23.7934 17.2889 23.5381Z" fill="white"/>
</svg>
