<svg width="49" height="48" viewBox="0 0 49 48" fill="none" xmlns="http://www.w3.org/2000/svg">
<rect x="1.50781" y="0.75" width="46.5" height="46.5" stroke="#F9F0E5" stroke-width="1.5"/>
<path fill-rule="evenodd" clip-rule="evenodd" d="M31.9859 20.2101C32.1026 19.8404 31.9859 19.5715 31.4689 19.5715H29.7514C29.3178 19.5715 29.1177 19.8068 29.001 20.0589C29.001 20.0589 28.1172 22.21 26.8832 23.6049C26.483 24.0082 26.2996 24.1427 26.0828 24.1427C25.9661 24.1427 25.816 24.0082 25.816 23.6385V20.1933C25.816 19.7564 25.6826 19.5547 25.3158 19.5547H22.6144C22.3476 19.5547 22.1808 19.7564 22.1808 19.958C22.1808 20.3782 22.7978 20.479 22.8645 21.6554V24.2099C22.8645 24.7645 22.7645 24.8653 22.5477 24.8653C21.9641 24.8653 20.5467 22.6974 19.6962 20.2269C19.5295 19.7396 19.3627 19.5547 18.9292 19.5547H17.195C16.6947 19.5547 16.6113 19.79 16.6113 20.0421C16.6113 20.4958 17.195 22.7814 19.3294 25.8064C20.7468 27.8735 22.7645 28.9827 24.5821 28.9827C25.6826 28.9827 25.816 28.7306 25.816 28.3105V26.7475C25.816 26.2434 25.9161 26.1593 26.2663 26.1593C26.5164 26.1593 26.9666 26.2938 27.9838 27.2853C29.1511 28.4617 29.3512 28.9995 30.0015 28.9995H31.7191C32.2193 28.9995 32.4528 28.7474 32.3194 28.2601C32.1693 27.7727 31.6023 27.0669 30.8686 26.2266C30.4684 25.756 29.8681 25.235 29.6847 24.9829C29.4346 24.6468 29.5013 24.5124 29.6847 24.2099C29.668 24.2099 31.7691 21.2185 31.9859 20.2101Z" fill="white"/>
</svg>
