<svg width="25" height="24" viewBox="0 0 25 24" fill="none" xmlns="http://www.w3.org/2000/svg">
<path d="M18.7818 13.5489C19.4027 11.7018 19.328 9.69155 18.5718 7.89557C17.8156 6.09959 16.4299 4.64137 14.6748 3.79465C12.9197 2.94793 10.9158 2.77094 9.03947 3.29691C7.16311 3.82287 5.54324 5.01562 4.48394 6.65125C3.42465 8.28688 2.99878 10.2529 3.28627 12.1803C3.57377 14.1076 4.55487 15.8638 6.04539 17.1191C7.53591 18.3744 9.43336 19.0424 11.3815 18.9979C13.3297 18.9534 15.1947 18.1993 16.6263 16.8772" stroke="white" stroke-width="1.5" stroke-linecap="round" stroke-linejoin="round"/>
<path d="M8.19873 11H14.1987" stroke="white" stroke-width="1.5" stroke-linecap="round" stroke-linejoin="round"/>
<path d="M11.1987 8L11.1987 14" stroke="white" stroke-width="1.5" stroke-linecap="round" stroke-linejoin="round"/>
<path d="M16.6987 16.958L21.6987 21.958" stroke="white" stroke-width="1.5" stroke-linecap="round" stroke-linejoin="round"/>
</svg>
