<svg width="73" height="95" viewBox="0 0 73 95" fill="none" xmlns="http://www.w3.org/2000/svg">
<path d="M16.9707 43.625L17.1582 46.625L17.3457 49.625L17.5683 53.1864C17.8647 57.9297 21.7982 61.625 26.5508 61.625H39.6406C44.3932 61.625 48.3267 57.9297 48.6231 53.1864L51.0957 13.625H15.0957L15.8457 25.625L16.0332 28.625" stroke="#0C474F" stroke-width="4.5" stroke-linecap="round"/>
<path d="M49.5957 24.5H56.9241C60.4437 24.5 63.2074 27.5155 62.9013 31.0218L61.8865 42.6468C61.6159 45.7465 59.0206 48.125 55.9092 48.125H49.5957" stroke="#0C474F" stroke-width="4.5"/>
<path d="M16.4707 24.5H9.14233C5.62269 24.5 2.85896 27.5155 3.16507 31.0218L4.17995 42.6468C4.45056 45.7465 7.04576 48.125 10.1572 48.125H16.4707" stroke="#0C474F" stroke-width="4.5"/>
<path d="M31.3295 25.0849C31.9296 24.2903 33.1233 24.2903 33.7234 25.0849L36.6948 29.0193C36.8743 29.2569 37.1204 29.4358 37.4019 29.533L42.0619 31.1432C43.0031 31.4684 43.372 32.6036 42.8017 33.42L39.9781 37.4617C39.8075 37.7058 39.7135 37.9952 39.708 38.2929L39.614 43.3652C39.5969 44.2893 38.7006 44.9404 37.8165 44.6712V44.6712L36.0532 44.1341L32.9635 43.1931C32.6786 43.1063 32.3743 43.1063 32.0894 43.1931L27.373 44.6295C26.4204 44.9197 25.4547 44.2181 25.4362 43.2224L25.3449 38.2929C25.3394 37.9952 25.2454 37.7058 25.0748 37.4617L22.2512 33.42C21.6809 32.6036 22.0498 31.4684 22.991 31.1432L27.651 29.533C27.9325 29.4358 28.1786 29.2569 28.3581 29.0193L31.3295 25.0849Z" stroke="#0C474F" stroke-width="4.5"/>
<line x1="28.4863" y1="61" x2="28.4863" y2="84.5" stroke="#0C474F" stroke-width="5"/>
<line x1="38.9707" y1="61" x2="38.9707" y2="84.5" stroke="#0C474F" stroke-width="5"/>
<rect x="16.9863" y="85" width="33.1094" height="8" stroke="#0C474F" stroke-width="4"/>
</svg>
