<svg width="243" height="48" viewBox="0 0 243 48" fill="none" xmlns="http://www.w3.org/2000/svg">
<g clip-path="url(#clip0_4208_16565)">
<path d="M71.823 13.6118L66.6196 25.6362L61.4027 13.6118H58.1675V29.4376H61.0118V19.1387L65.4064 29.4376H67.8059L72.2004 19.1387V29.4376H75.0583V13.6118H71.823Z" fill="#004F9F"/>
<path d="M84.8307 13.3019C83.7592 13.2445 82.6884 13.4277 81.697 13.8383C80.7056 14.2489 79.8188 14.8763 79.1016 15.6745C77.733 17.3129 77.0304 19.406 77.1335 21.5384C77.0404 23.6652 77.742 25.7507 79.1016 27.3888C79.8278 28.1739 80.7168 28.7906 81.7065 29.1958C82.6962 29.601 83.7625 29.7848 84.8307 29.7344C85.8958 29.7854 86.9591 29.6031 87.9464 29.2003C88.9337 28.7975 89.821 28.1838 90.5463 27.4022C91.9331 25.7718 92.6508 23.6766 92.5549 21.5384C92.6539 19.3979 91.9414 17.2989 90.5598 15.661C89.8361 14.872 88.9478 14.2517 87.9577 13.8441C86.9677 13.4364 85.9002 13.2514 84.8307 13.3019ZM88.4299 25.7038C87.9798 26.2053 87.4225 26.5989 86.7994 26.8556C86.1764 27.1123 85.5035 27.2254 84.8307 27.1866C84.1479 27.2233 83.4658 27.1027 82.8371 26.8339C82.2083 26.5651 81.6498 26.1553 81.2045 25.6363C80.3446 24.4692 79.9159 23.04 79.9914 21.5922C79.9171 20.1446 80.3456 18.7158 81.2045 17.5482C81.6437 17.0202 82.2005 16.6026 82.8302 16.3287C83.46 16.0548 84.1451 15.9323 84.8307 15.971C85.5044 15.9241 86.1797 16.0335 86.8041 16.2907C87.4284 16.548 87.9848 16.9461 88.4299 17.4539C89.3131 18.6722 89.751 20.1571 89.6702 21.6597C89.7562 23.1504 89.3173 24.6242 88.4299 25.8251" fill="#004F9F"/>
<path d="M105.672 23.8435C105.471 24.8465 104.939 25.7531 104.162 26.4182C103.398 26.9547 102.479 27.2248 101.547 27.1866C100.863 27.2394 100.176 27.1287 99.543 26.8639C98.9101 26.599 98.3494 26.1875 97.9069 25.6633C97.1105 24.4412 96.7321 22.9938 96.8285 21.5383C96.7577 20.1071 97.1449 18.6905 97.9339 17.4943C98.3422 16.9503 98.8811 16.5181 99.5008 16.2377C100.121 15.9573 100.801 15.8378 101.479 15.8901C102.391 15.8404 103.296 16.076 104.067 16.5641C104.778 17.0762 105.262 17.845 105.415 18.7075V18.8288H108.192V18.64C108.008 17.1416 107.255 15.7712 106.089 14.8117C104.767 13.7976 103.131 13.2778 101.466 13.3423C100.373 13.2765 99.2792 13.4692 98.2745 13.9048C97.2697 14.3405 96.3818 15.0068 95.6826 15.8497C94.4527 17.4989 93.8333 19.5238 93.9302 21.5788C93.8235 23.6163 94.4182 25.6287 95.6152 27.2809C96.3323 28.1336 97.2413 28.8041 98.2677 29.2376C99.294 29.6711 100.408 29.8552 101.52 29.7748C103.112 29.8197 104.669 29.2992 105.914 28.3055C107.258 27.2149 108.147 25.6624 108.408 23.9513V23.776H105.631L105.672 23.8435Z" fill="#004F9F"/>
<path d="M117.13 13.5984H110.538V29.4377H113.396V23.4794H117.089C120.958 23.4794 122.913 21.8079 122.913 18.5187C122.913 15.2295 120.972 13.5984 117.13 13.5984ZM113.396 16.0923H116.941C117.77 16.0213 118.599 16.225 119.3 16.6719C119.562 16.8983 119.766 17.184 119.895 17.5053C120.024 17.8266 120.074 18.1741 120.042 18.5187C120.076 18.8703 120.028 19.225 119.902 19.5549C119.775 19.8848 119.574 20.1807 119.314 20.4194C118.602 20.8525 117.773 21.055 116.941 20.999H113.396V16.0923Z" fill="#004F9F"/>
<path d="M127.644 22.5627H135.773V20.0823H127.644V16.0922H136.285V13.6118H124.787V29.4376H136.663V26.9573H127.644V22.5627Z" fill="#004F9F"/>
<path d="M155.279 24.8005C155.244 25.1157 155.142 25.4197 154.979 25.6918C154.816 25.9639 154.597 26.1979 154.336 26.3777C153.923 26.6021 153.457 26.7093 152.988 26.6878H152.179V29.0063L146.288 13.5984H143.228L137.175 29.4377H140.222L141.57 25.542H147.852L149.2 29.4377H153.5C154.627 29.5032 155.734 29.1259 156.587 28.3863C157.399 27.4793 157.9 26.3361 158.016 25.124L159.472 16.0923H163.624V29.4377H166.481V13.5984H157.045L155.279 24.8005ZM147.016 23.1424H142.487L144.765 16.8337L147.016 23.1424Z" fill="#004F9F"/>
<path d="M180.365 23.8435C180.154 24.8425 179.624 25.7459 178.856 26.4182C178.091 26.9529 177.173 27.2228 176.24 27.1866C175.556 27.2405 174.869 27.1304 174.236 26.8654C173.603 26.6005 173.042 26.1884 172.601 25.6633C171.804 24.4412 171.426 22.9938 171.522 21.5383C171.442 20.106 171.83 18.6865 172.628 17.4942C173.036 16.9503 173.575 16.5181 174.195 16.2377C174.814 15.9573 175.495 15.8377 176.173 15.8901C177.085 15.8422 177.989 16.0776 178.761 16.5641C179.464 17.0838 179.945 17.849 180.109 18.7075V18.8288H182.886V18.64C182.712 17.1414 181.963 15.769 180.797 14.8117C179.474 13.7976 177.838 13.2778 176.173 13.3423C175.078 13.2776 173.983 13.4707 172.976 13.9062C171.97 14.3417 171.079 15.0074 170.376 15.8497C169.153 17.5019 168.534 19.5246 168.624 21.5788C168.517 23.6163 169.112 25.6287 170.309 27.2809C171.027 28.1327 171.936 28.8027 172.962 29.2361C173.988 29.6695 175.102 29.854 176.213 29.7747C177.809 29.8159 179.369 29.296 180.621 28.3054C181.961 27.2135 182.846 25.6608 183.102 23.9513V23.776H180.311L180.365 23.8435Z" fill="#004F9F"/>
<path d="M184.046 16.0922H189.128V29.4376H191.986V16.0922H197.068V13.6118H184.046V16.0922Z" fill="#004F9F"/>
<path d="M205.237 13.5984H198.646V29.4377H201.49V23.4794H205.183C209.052 23.4794 211.02 21.8079 211.02 18.5187C211.02 15.2295 209.066 13.5984 205.237 13.5984ZM201.49 16.0923H205.035C205.864 16.0213 206.693 16.225 207.394 16.6719C207.658 16.8969 207.863 17.1824 207.992 17.5041C208.121 17.8257 208.171 18.1739 208.136 18.5187C208.169 18.869 208.121 19.2222 207.998 19.5515C207.874 19.8808 207.677 20.1775 207.421 20.4194C206.705 20.8552 205.871 21.0578 205.035 20.999H201.49V16.0923Z" fill="#004F9F"/>
<path d="M219.891 13.3019C218.819 13.2445 217.748 13.4277 216.757 13.8383C215.765 14.2489 214.879 14.8763 214.161 15.6745C212.787 17.3096 212.084 19.4051 212.193 21.5384C212.098 23.6614 212.8 25.7432 214.161 27.3753C214.885 28.1643 215.774 28.7845 216.764 29.1922C217.754 29.5998 218.821 29.785 219.891 29.7344C220.956 29.7854 222.019 29.6031 223.006 29.2003C223.993 28.7975 224.881 28.1838 225.606 27.4022C226.983 25.7671 227.696 23.6741 227.601 21.5384C227.7 19.3979 226.988 17.2989 225.606 15.661C224.884 14.8731 223.998 14.2533 223.011 13.8457C222.023 13.4381 220.958 13.2524 219.891 13.3019ZM219.891 15.8497C220.562 15.8028 221.236 15.9123 221.858 16.1696C222.48 16.4269 223.034 16.8249 223.476 17.3325C224.37 18.5461 224.814 20.0333 224.73 21.5384C224.818 23.0314 224.374 24.5073 223.476 25.7038C223.028 26.2042 222.473 26.5973 221.853 26.854C221.232 27.1107 220.561 27.2244 219.891 27.1866C219.208 27.2254 218.525 27.1056 217.896 26.8367C217.267 26.5677 216.708 26.1569 216.264 25.6363C215.4 24.4709 214.966 23.0416 215.038 21.5922C214.967 20.143 215.401 18.7141 216.264 17.5482C216.703 17.0194 217.26 16.6011 217.889 16.3272C218.519 16.0532 219.205 15.9312 219.891 15.971" fill="#004F9F"/>
<path d="M233.545 12.1425C234.373 12.6642 235.346 12.9096 236.322 12.8434C237.303 12.9134 238.281 12.6678 239.113 12.1425C239.783 11.5653 240.211 10.7566 240.312 9.87775V9.68909H238.061V9.82386C238.039 10.2456 237.861 10.6441 237.562 10.9427C237.187 11.1613 236.756 11.2644 236.322 11.2393C235.893 11.2683 235.464 11.1649 235.096 10.9427C234.794 10.6447 234.612 10.2468 234.583 9.82386V9.68909H232.332V9.86434C232.369 10.3051 232.495 10.7338 232.701 11.1251C232.907 11.5165 233.189 11.8625 233.532 12.1425" fill="#004F9F"/>
<path d="M240.151 13.6118L232.548 24.733V13.6118H229.69V29.4376H232.467L239.989 18.4647V29.4376H242.874V13.6118H240.151Z" fill="#004F9F"/>
<path d="M17.2679 38.4694H16.4456V36.2182H15.812L16.1086 35.5307H17.2679V38.4694Z" fill="#004F9F"/>
<path d="M18.9528 37.4719C18.8325 37.4936 18.7092 37.4936 18.5888 37.4719C18.4705 37.4721 18.3534 37.4483 18.2445 37.4019C18.1356 37.3556 18.0372 37.2876 17.9553 37.2023C17.7812 37.0113 17.6892 36.7595 17.6992 36.5013C17.6896 36.3464 17.7163 36.1914 17.7772 36.0486C17.838 35.9059 17.9313 35.7793 18.0497 35.679C18.2904 35.4764 18.598 35.3708 18.9124 35.3825C19.2272 35.3681 19.5356 35.4741 19.7751 35.679C19.8882 35.7778 19.9783 35.9002 20.0389 36.0376C20.0994 36.1751 20.129 36.3242 20.1256 36.4744C20.1388 36.6088 20.1388 36.7443 20.1256 36.8787C20.0799 37.0295 20.0166 37.1743 19.9368 37.3101C19.8468 37.48 19.7431 37.6423 19.6268 37.7954L19.1955 38.3885H18.1844L18.6023 37.8898L19.0067 37.4045L18.9528 37.4719ZM18.9528 36.9461C19.0051 36.9515 19.058 36.9445 19.1072 36.9258C19.1563 36.9071 19.2004 36.8771 19.2359 36.8383C19.2735 36.799 19.3025 36.7524 19.3211 36.7014C19.3397 36.6503 19.3473 36.5959 19.3437 36.5417C19.3455 36.4897 19.3369 36.438 19.3184 36.3894C19.2999 36.3407 19.2718 36.2963 19.2359 36.2586C19.1967 36.221 19.1501 36.192 19.099 36.1735C19.048 36.1549 18.9935 36.1472 18.9393 36.1508C18.8872 36.1483 18.8353 36.1565 18.7865 36.1751C18.7378 36.1937 18.6935 36.2221 18.6563 36.2586C18.6204 36.2963 18.5923 36.3407 18.5738 36.3894C18.5552 36.438 18.5467 36.4897 18.5484 36.5417C18.5448 36.5959 18.5525 36.6503 18.5711 36.7014C18.5896 36.7524 18.6187 36.799 18.6563 36.8383C18.6911 36.8787 18.7347 36.9107 18.7837 36.9317C18.8328 36.9528 18.886 36.9623 18.9393 36.9596L18.9528 36.9461Z" fill="#004F9F"/>
<path d="M21.6092 37.4718C21.4888 37.4936 21.3655 37.4936 21.2452 37.4718C21.1288 37.4717 21.0138 37.4478 20.9071 37.4014C20.8004 37.355 20.7044 37.2872 20.625 37.2022C20.446 37.0134 20.3491 36.7613 20.3554 36.5012C20.3489 36.3467 20.377 36.1927 20.4376 36.0504C20.4983 35.9081 20.5899 35.7812 20.7059 35.6789C20.9539 35.4798 21.2643 35.3748 21.5822 35.3824C21.8955 35.378 22.2006 35.4828 22.4449 35.6789C22.5564 35.7784 22.6443 35.9013 22.7026 36.0388C22.7609 36.1763 22.788 36.3251 22.7819 36.4743C22.8023 36.6083 22.8023 36.7447 22.7819 36.8787C22.741 37.029 22.6822 37.1738 22.6067 37.3101C22.5117 37.477 22.4081 37.639 22.2966 37.7953L21.8518 38.3885H20.8408L21.2721 37.8897L21.663 37.4044L21.6092 37.4718ZM21.6092 36.9461C21.6634 36.9497 21.7177 36.942 21.7688 36.9235C21.8198 36.9049 21.8665 36.8758 21.9057 36.8382C21.9767 36.7559 22.015 36.6504 22.0135 36.5417C22.0162 36.4884 22.0067 36.4352 21.9857 36.3861C21.9646 36.337 21.9326 36.2934 21.8922 36.2586C21.855 36.222 21.8107 36.1936 21.7619 36.1751C21.7132 36.1565 21.6612 36.1482 21.6092 36.1508C21.5568 36.1454 21.504 36.1524 21.4548 36.1711C21.4056 36.1898 21.3615 36.2197 21.326 36.2586C21.2856 36.2934 21.2536 36.337 21.2326 36.3861C21.2115 36.4352 21.202 36.4884 21.2047 36.5417C21.2032 36.6504 21.2416 36.7559 21.3125 36.8382C21.3506 36.8782 21.3967 36.9098 21.4478 36.9307C21.4989 36.9516 21.554 36.9614 21.6092 36.9596V36.9461Z" fill="#004F9F"/>
<path d="M24.9112 36.9192C25.0634 36.9802 25.1931 37.0869 25.2824 37.2244C25.3716 37.362 25.4162 37.5237 25.41 37.6876C25.41 37.8522 25.3581 38.0126 25.2617 38.1459C25.1494 38.2815 25.0061 38.3878 24.8438 38.456C24.6494 38.5266 24.4441 38.5632 24.2372 38.5638C23.9394 38.5776 23.6455 38.4923 23.4014 38.3212C23.2953 38.2537 23.2085 38.1598 23.1494 38.0488C23.0903 37.9377 23.0611 37.8133 23.0644 37.6876C23.059 37.5256 23.1025 37.3658 23.189 37.2288C23.2755 37.0918 23.4011 36.9839 23.5497 36.9192C23.4172 36.8713 23.3032 36.7832 23.2234 36.6672C23.1436 36.5511 23.1021 36.413 23.1049 36.2722C23.1022 36.1502 23.132 36.0298 23.1912 35.9232C23.2504 35.8166 23.337 35.7277 23.4419 35.6655C23.6813 35.5199 23.957 35.4452 24.2372 35.4499C24.5198 35.441 24.798 35.5211 25.0326 35.679C25.133 35.7417 25.2156 35.8292 25.2722 35.9331C25.3289 36.037 25.3578 36.1538 25.3561 36.2722C25.3588 36.413 25.3174 36.5511 25.2376 36.6672C25.1578 36.7832 25.0437 36.8713 24.9112 36.9192ZM24.2237 37.9302C24.2705 37.9324 24.3174 37.9253 24.3613 37.9091C24.4053 37.8929 24.4456 37.868 24.4798 37.8359C24.5143 37.8028 24.5417 37.7631 24.5603 37.719C24.5788 37.675 24.5881 37.6276 24.5877 37.5798C24.5881 37.532 24.5788 37.4846 24.5603 37.4406C24.5417 37.3965 24.5143 37.3567 24.4798 37.3237C24.4456 37.2916 24.4053 37.2667 24.3613 37.2505C24.3174 37.2343 24.2705 37.2271 24.2237 37.2293C24.1768 37.2263 24.1298 37.2331 24.0857 37.2494C24.0416 37.2656 24.0014 37.2909 23.9676 37.3237C23.9301 37.3543 23.9006 37.3936 23.8818 37.4383C23.863 37.4829 23.8555 37.5315 23.8598 37.5798C23.8555 37.628 23.863 37.6766 23.8818 37.7212C23.9006 37.7659 23.9301 37.8053 23.9676 37.8359C23.9994 37.8676 24.0373 37.8923 24.0791 37.9086C24.1208 37.9248 24.1655 37.9321 24.2103 37.9302H24.2237ZM24.2237 36.5822C24.3075 36.5847 24.3892 36.5558 24.4529 36.5013C24.4825 36.4737 24.5061 36.4403 24.5224 36.4032C24.5386 36.3661 24.5471 36.3261 24.5473 36.2857C24.5461 36.2473 24.5371 36.2096 24.5209 36.1748C24.5047 36.1401 24.4815 36.109 24.4529 36.0834C24.3892 36.0289 24.3075 36.0001 24.2237 36.0025C24.1441 36.0008 24.0669 36.0298 24.008 36.0834C23.9773 36.1071 23.9526 36.1379 23.9362 36.1731C23.9198 36.2083 23.9121 36.2469 23.9137 36.2857C23.911 36.3265 23.9182 36.3674 23.9347 36.405C23.9511 36.4425 23.9762 36.4755 24.008 36.5013C24.0717 36.5558 24.1534 36.5847 24.2372 36.5822H24.2237Z" fill="#004F9F"/>
<path d="M40.1038 0.886569H32.7975C30.3886 0.931535 28.0201 1.51402 25.8651 2.59151C23.7101 3.66901 21.8231 5.21428 20.3418 7.11444C18.8196 5.15842 16.8683 3.57833 14.6385 2.49615C12.4087 1.41398 9.96001 0.858674 7.48153 0.873076H0V4.13536H7.49502C9.70447 4.13072 11.8787 4.68889 13.8127 5.75729C15.7466 6.82568 17.3766 8.36905 18.5489 10.2419C19.2116 11.2771 19.7202 12.4033 20.0586 13.585L20.3418 14.5286L20.6113 13.585C20.9497 12.4033 21.4583 11.2771 22.1211 10.2419C23.2933 8.36905 24.9233 6.82568 26.8573 5.75729C28.7912 4.68889 30.9655 4.13072 33.1749 4.13536H37.1112V22.6302H40.3734V0.873076L40.1038 0.886569Z" fill="#E30613"/>
<path d="M32.8917 24.7602C30.8716 24.753 28.9364 23.9464 27.5092 22.5167C26.082 21.087 25.2789 19.1504 25.2753 17.1303C25.2789 15.1114 26.0825 13.1763 27.51 11.7487C28.9376 10.3211 30.8728 9.51756 32.8917 9.51399H35.008V6.25171H32.8917C30.0076 6.25528 27.2427 7.40256 25.2033 9.44192C23.164 11.4813 22.0167 14.2462 22.0131 17.1303C22.0167 20.0144 23.164 22.7793 25.2033 24.8187C27.2427 26.858 30.0076 28.0053 32.8917 28.0089H37.2188V35.4095C37.2188 37.6068 36.5313 41.287 31.8267 41.287H26.893C24.4681 41.2597 22.1009 42.0266 20.1528 43.4708C18.2038 42.0284 15.8373 41.2616 13.4127 41.287H8.47888C3.81471 41.287 3.08677 37.6068 3.08677 35.4095V9.51399H7.40048C9.41936 9.51756 11.3546 10.3211 12.7821 11.7487C14.2097 13.1763 15.0133 15.1114 15.0169 17.1303C15.0133 19.1504 14.2101 21.087 12.783 22.5167C11.3558 23.9464 9.4206 24.753 7.40048 24.7602H5.20319V28.0089H7.40048C10.2846 28.0053 13.0495 26.858 15.0889 24.8187C17.1282 22.7793 18.2755 20.0144 18.2791 17.1303C18.2755 14.2462 17.1282 11.4813 15.0889 9.44192C13.0495 7.40256 10.2846 6.25528 7.40048 6.25171H-0.0810547V35.4095C-0.0810547 42.0823 4.32701 44.4548 8.45198 44.4548H13.3857C14.4043 44.4271 15.4182 44.6036 16.3674 44.9741C17.3167 45.3445 18.1821 45.9013 18.9127 46.6116L20.1124 47.9597L21.3121 46.6116C22.0422 45.9006 22.9076 45.3435 23.8569 44.973C24.8063 44.6025 25.8203 44.4263 26.839 44.4548H31.7728C35.8978 44.4548 40.3058 42.0823 40.3058 35.4095V24.7602H32.8917Z" fill="#004F9F"/>
</g>
<defs>
<clipPath id="clip0_4208_16565">
<rect width="242.874" height="47.1135" fill="white" transform="translate(0 0.886475)"/>
</clipPath>
</defs>
</svg>
