<svg width="52" height="52" viewBox="0 0 52 52" fill="none" xmlns="http://www.w3.org/2000/svg">
<path d="M10.1599 30.6V48.16" stroke="#1D1D1B" stroke-linecap="round" stroke-linejoin="round"/>
<path d="M40.96 30.6V48.16" stroke="#1D1D1B" stroke-linecap="round" stroke-linejoin="round"/>
<path d="M37.29 20.34V27.74" stroke="#1D1D1B" stroke-linecap="round" stroke-linejoin="round"/>
<path d="M13.6201 20.34V27.85" stroke="#1D1D1B" stroke-linecap="round" stroke-linejoin="round"/>
<path d="M13.9199 21.79H37.0899" stroke="#1D1D1B" stroke-linecap="round" stroke-linejoin="round"/>
<path d="M10.3799 45.1H40.7599" stroke="#1D1D1B" stroke-linecap="round" stroke-linejoin="round"/>
<path d="M10.3799 42.4399H40.9599" stroke="#1D1D1B" stroke-linecap="round" stroke-linejoin="round"/>
<path d="M24.72 34.26V29C24.72 28.7348 24.6146 28.4804 24.4271 28.2929C24.2395 28.1054 23.9852 28 23.72 28H13.72C13.4548 28 13.2004 28.1054 13.0129 28.2929C12.8253 28.4804 12.72 28.7348 12.72 29V34.3" fill="#B6915D"/>
<path d="M38.6101 34.26V29C38.6101 28.7348 38.5048 28.4804 38.3172 28.2929C38.1297 28.1054 37.8753 28 37.6101 28H27.6101C27.3449 28 27.0905 28.1054 26.903 28.2929C26.7155 28.4804 26.6101 28.7348 26.6101 29V34.3" fill="#B6915D"/>
<path d="M40.5599 34.48H10.1599" stroke="#1D1D1B" stroke-linecap="round" stroke-linejoin="round"/>
<path d="M26.8799 21.6299V4.43994H46.9599V38.2699H43.0499" stroke="black" stroke-linecap="round" stroke-linejoin="round"/>
<path d="M24.4301 21.8199V4.43994H4.3501V38.2699H8.2601" stroke="black" stroke-linecap="round" stroke-linejoin="round"/>
<path d="M32.64 7.47998L30.04 10.09" stroke="black" stroke-linecap="round" stroke-linejoin="round"/>
<path d="M35.15 7.93994L30.49 12.5899" stroke="black" stroke-linecap="round" stroke-linejoin="round"/>
<path d="M11.0299 11.5601L8.42993 14.1701" stroke="black" stroke-linecap="round" stroke-linejoin="round"/>
<path d="M13.5399 12.02L8.87988 16.67" stroke="black" stroke-linecap="round" stroke-linejoin="round"/>
</svg>
