<svg width="52" height="52" viewBox="0 0 52 52" fill="none" xmlns="http://www.w3.org/2000/svg">
<path d="M32.8799 17.9799V4.43994H46.9599V38.2699H43.9599" stroke="black" stroke-linecap="round" stroke-linejoin="round"/>
<path d="M18.4301 18.1699V4.43994H4.3501V38.2699H7.2901" stroke="black" stroke-linecap="round" stroke-linejoin="round"/>
<path d="M38.64 7.47998L36.04 10.09" stroke="black" stroke-linecap="round" stroke-linejoin="round"/>
<path d="M41.15 7.93994L36.49 12.5899" stroke="black" stroke-linecap="round" stroke-linejoin="round"/>
<path d="M9.63002 7.76001L7.02002 10.37" stroke="black" stroke-linecap="round" stroke-linejoin="round"/>
<path d="M12.13 8.21997L7.47998 12.87" stroke="black" stroke-linecap="round" stroke-linejoin="round"/>
<path d="M30.16 8.10999H21.28V13.66H30.16V8.10999Z" fill="white"/>
<path d="M30.4999 14H20.9399V7.77002H30.4999V14ZM21.6199 13.32H29.8299V8.45002H21.6199V13.32Z" fill="#1D1D1B"/>
<path d="M28.8199 9.42004H22.6299V12.37H28.8199V9.42004Z" fill="white"/>
<path d="M29.16 12.7H22.29V9.07996H29.16V12.7ZM23 12H28.51V9.75996H23V12Z" fill="#1D1D1B"/>
<path d="M7.53003 28.28V49.13" stroke="#1D1D1B" stroke-linecap="round" stroke-linejoin="round"/>
<path d="M43.8601 28.28V49.13" stroke="#1D1D1B" stroke-linecap="round" stroke-linejoin="round"/>
<path d="M39.29 16.52V24.71" stroke="#1D1D1B" stroke-linecap="round" stroke-linejoin="round"/>
<path d="M11.8501 16.52V24.85" stroke="#1D1D1B" stroke-linecap="round" stroke-linejoin="round"/>
<path d="M11.97 18.3199H39.03" stroke="#1D1D1B" stroke-linecap="round" stroke-linejoin="round"/>
<path d="M7.81006 45.3199H43.6001" stroke="#1D1D1B" stroke-linecap="round" stroke-linejoin="round"/>
<path d="M7.81006 42H43.8601" stroke="#1D1D1B" stroke-linecap="round" stroke-linejoin="round"/>
<path d="M24.6499 32.83V26.24C24.637 25.9066 24.4954 25.5912 24.2548 25.36C24.0143 25.1288 23.6935 24.9997 23.3599 25H11.9299C11.5868 25 11.2577 25.1356 11.0142 25.3772C10.7706 25.6189 10.6325 25.947 10.6299 26.29V32.88" stroke="#B6915D" stroke-linecap="round" stroke-linejoin="round"/>
<path d="M30.88 25H28C27.6578 25 27.3297 25.1359 27.0878 25.3778C26.8459 25.6198 26.71 25.9479 26.71 26.29V32.88" stroke="#B6915D" stroke-linecap="round" stroke-linejoin="round"/>
<path d="M33.0399 24.95H32.1699" stroke="#B6915D" stroke-linecap="round" stroke-linejoin="round"/>
<path d="M40.76 32.83V26.24C40.7445 25.9057 40.6008 25.5903 40.3586 25.3593C40.1165 25.1283 39.7946 24.9996 39.46 25H34.24" stroke="#B6915D" stroke-linecap="round" stroke-linejoin="round"/>
<path d="M43.35 33.11H7.53003" stroke="#1D1D1B" stroke-linecap="round" stroke-linejoin="round"/>
<path d="M35.1601 13.99H16.5601V16.23H35.1601V13.99Z" fill="#B6915D"/>
</svg>
