<svg width="52" height="52" viewBox="0 0 52 52" fill="none" xmlns="http://www.w3.org/2000/svg">
<path d="M26.71 29.5699V4.43994H46.79V38.2699H42.89" stroke="black" stroke-linecap="round" stroke-linejoin="round"/>
<path d="M24.2599 29.5699V4.43994H4.18994V38.2699H8.08994" stroke="black" stroke-linecap="round" stroke-linejoin="round"/>
<path d="M32.4799 7.47998L29.8699 10.09" stroke="black" stroke-linecap="round" stroke-linejoin="round"/>
<path d="M34.9798 7.93994L30.3298 12.5899" stroke="black" stroke-linecap="round" stroke-linejoin="round"/>
<path d="M10.87 11.5599L8.26001 14.1699" stroke="black" stroke-linecap="round" stroke-linejoin="round"/>
<path d="M13.37 12.0199L8.71997 16.6699" stroke="black" stroke-linecap="round" stroke-linejoin="round"/>
<path d="M24.23 40.4699V37.0599C24.23 36.617 24.0541 36.1922 23.7409 35.879C23.4277 35.5658 23.003 35.3899 22.56 35.3899H16.22C15.7771 35.3899 15.3524 35.5658 15.0392 35.879C14.726 36.1922 14.55 36.617 14.55 37.0599V40.4699" fill="#B6915D"/>
<path d="M36.19 40.4699V37.0599C36.19 36.617 36.0141 36.1922 35.7009 35.879C35.3877 35.5658 34.9629 35.3899 34.52 35.3899H28.19C27.7471 35.3899 27.3223 35.5658 27.0092 35.879C26.696 36.1922 26.52 36.617 26.52 37.0599V40.4699" fill="#B6915D"/>
<path d="M20.05 43.15H34.26" stroke="#B6915D" stroke-miterlimit="10"/>
<path d="M15 31.4301H35.87C36.4004 31.4301 36.9091 31.6408 37.2842 32.0158C37.6593 32.3909 37.87 32.8996 37.87 33.4301V46.3501H13V33.4301C13 32.8996 13.2107 32.3909 13.5858 32.0158C13.9609 31.6408 14.4696 31.4301 15 31.4301Z" stroke="#B6915D" stroke-miterlimit="10"/>
<path d="M10.9 36.5801C11.4597 36.588 11.9938 36.8158 12.3868 37.2144C12.7798 37.613 13.0001 38.1503 13 38.7101V46.3501H8.77002V38.7101C8.77002 38.4304 8.82511 38.1534 8.93216 37.895C9.0392 37.6365 9.19609 37.4017 9.39388 37.2039C9.59167 37.0061 9.82648 36.8493 10.0849 36.7422C10.3433 36.6352 10.6203 36.5801 10.9 36.5801Z" stroke="#B6915D" stroke-miterlimit="10"/>
<path d="M40.0001 36.5801C40.2798 36.5801 40.5568 36.6352 40.8152 36.7422C41.0737 36.8493 41.3085 37.0061 41.5063 37.2039C41.704 37.4017 41.8609 37.6365 41.968 37.895C42.075 38.1534 42.1301 38.4304 42.1301 38.7101V46.3501H37.8701V38.7101C37.8701 38.4304 37.9252 38.1534 38.0323 37.895C38.1393 37.6365 38.2962 37.4017 38.494 37.2039C38.6918 37.0061 38.9266 36.8493 39.185 36.7422C39.4434 36.6352 39.7204 36.5801 40.0001 36.5801Z" stroke="#B6915D" stroke-miterlimit="10"/>
<path d="M12.8601 46.3501V49.5001H11.0801V46.3501" stroke="#B6915D" stroke-miterlimit="10"/>
<path d="M39.68 46.3501V49.5001H37.8V46.3501" stroke="#B6915D" stroke-width="0.94" stroke-miterlimit="10"/>
<path d="M13.04 40.4901H37.87" stroke="#B6915D" stroke-miterlimit="10"/>
</svg>
