<svg width="52" height="52" viewBox="0 0 52 52" fill="none" xmlns="http://www.w3.org/2000/svg">
<path d="M17 31.78H35V35.71H17V31.78Z" stroke="black" stroke-miterlimit="10"/>
<path d="M26 47.5V35.71" stroke="black" stroke-miterlimit="10"/>
<path d="M30.1901 47.72H21.8101" stroke="black" stroke-miterlimit="10"/>
<path d="M41.34 48.43V27.74H39.75V34.58H41.3" stroke="black" stroke-miterlimit="10"/>
<path d="M32.4299 48.4301V42.3101C32.4299 41.7451 32.6543 41.2034 33.0538 40.8039C33.4532 40.4045 33.995 40.1801 34.5599 40.1801H41.3399" stroke="black" stroke-miterlimit="10"/>
<path d="M32.4299 42.88H41.3399" stroke="black" stroke-miterlimit="10"/>
<path d="M10.6599 48.6399V27.95H12.2199V34.58H10.8199" stroke="black" stroke-miterlimit="10"/>
<path d="M19.5699 48.64V42.52C19.5699 41.9551 19.3455 41.4133 18.9461 41.0139C18.5466 40.6144 18.0048 40.39 17.4399 40.39H10.6599" stroke="black" stroke-miterlimit="10"/>
<path d="M19.5699 43.09H10.6599" stroke="black" stroke-miterlimit="10"/>
<path d="M27.22 29.5699V4.43994H47.3V38.2699H43.4" stroke="black" stroke-linecap="round" stroke-linejoin="round"/>
<path d="M24.78 29.5699V4.43994H4.69995V38.2699H8.59995" stroke="black" stroke-linecap="round" stroke-linejoin="round"/>
<path d="M12.48 38.29H39.32" stroke="black" stroke-linecap="round" stroke-linejoin="round"/>
<path d="M32.9899 7.47998L30.3799 10.09" stroke="black" stroke-linecap="round" stroke-linejoin="round"/>
<path d="M35.4901 7.93994L30.8401 12.5899" stroke="black" stroke-linecap="round" stroke-linejoin="round"/>
<path d="M11.38 11.5601L8.77002 14.1701" stroke="black" stroke-linecap="round" stroke-linejoin="round"/>
<path d="M13.88 12.02L9.22998 16.67" stroke="black" stroke-linecap="round" stroke-linejoin="round"/>
<path d="M18.6299 31.27L28.7699 42.47L33.1299 31.27H18.6299Z" fill="#B6915D"/>
</svg>
