<svg width="52" height="52" viewBox="0 0 52 52" fill="none" xmlns="http://www.w3.org/2000/svg">
<path d="M17 31.78H35V34.67H17V31.78Z" stroke="black" stroke-miterlimit="10"/>
<path d="M41.34 48.43V27.74H39.75V34.58H41.3" stroke="black" stroke-miterlimit="10"/>
<path d="M32.4299 48.4301V42.3101C32.4299 41.7451 32.6543 41.2034 33.0538 40.8039C33.4532 40.4045 33.995 40.1801 34.5599 40.1801H41.3399" stroke="black" stroke-miterlimit="10"/>
<path d="M32.4299 42.88H41.3399" stroke="black" stroke-miterlimit="10"/>
<path d="M10.6599 48.6399V27.95H12.2199V34.58H10.8199" stroke="black" stroke-miterlimit="10"/>
<path d="M19.5699 48.64V42.52C19.5699 41.9551 19.3455 41.4133 18.9461 41.0139C18.5466 40.6144 18.0048 40.39 17.4399 40.39H10.6599" stroke="black" stroke-miterlimit="10"/>
<path d="M19.5699 43.09H10.6599" stroke="black" stroke-miterlimit="10"/>
<path d="M21.8701 48.57V34.67" stroke="black" stroke-miterlimit="10"/>
<path d="M30.1299 48.57V34.67" stroke="black" stroke-miterlimit="10"/>
<path d="M48.2301 4.44995H36.6201V38.66H48.2301" stroke="black" stroke-linecap="round" stroke-linejoin="round"/>
<path d="M34.3099 29.93V4.44995H17.6899V30.08" stroke="black" stroke-linecap="round" stroke-linejoin="round"/>
<path d="M20.19 38.66H17.53V36.27" stroke="black" stroke-linecap="round" stroke-linejoin="round"/>
<path d="M31.6599 38.66H34.4699V36.27" stroke="black" stroke-linecap="round" stroke-linejoin="round"/>
<path d="M3.77002 38.66H15.11V4.44995H3.77002" stroke="black" stroke-linecap="round" stroke-linejoin="round"/>
<path d="M22.63 6.98999L20.03 9.58999" stroke="black" stroke-linecap="round" stroke-linejoin="round"/>
<path d="M25.14 7.43994L20.48 12.0899" stroke="black" stroke-linecap="round" stroke-linejoin="round"/>
<path d="M17.47 31.27L27.61 42.47L31.98 31.27H17.47Z" fill="#B6915D"/>
</svg>
