<svg width="32" height="32" viewBox="0 0 32 32" fill="none" xmlns="http://www.w3.org/2000/svg">
<rect width="32" height="32" rx="16" fill="#E9EAEC"/>
<path d="M17.5 6.5L17.0274 5.71236C16.5617 4.93617 15.437 4.93543 14.9703 5.71101L12.6413 9.58087C12.4738 9.85928 12.2005 10.0578 11.8839 10.1312L7.4809 11.1509C6.59972 11.355 6.25252 12.4236 6.84545 13.1066L9.80818 16.5196C10.0212 16.765 10.1256 17.0863 10.0975 17.41L9.98966 18.6525M19.1681 9.2644L19.3586 9.58087C19.5261 9.85928 19.7994 10.0578 20.116 10.1312L24.519 11.1509C25.4002 11.355 25.7474 12.4236 25.1544 13.1066L22.1917 16.5196C21.9787 16.765 21.8743 17.0863 21.9024 17.41L22.2932 21.9127C22.3714 22.8138 21.4624 23.4742 20.6296 23.1214L16.4681 21.3583C16.1689 21.2316 15.831 21.2316 15.5318 21.3583L11.1507 23.2144C10.4175 23.525 9.61725 22.9436 9.6861 22.1503V22.1503L9.72404 21.713" stroke="#828897" stroke-width="1.5" stroke-linecap="round"/>
</svg>
