<svg width="52" height="52" viewBox="0 0 52 52" fill="none" xmlns="http://www.w3.org/2000/svg">
<path d="M29.4001 16.35V5.94995H7.09009V47.47H45.7101" stroke="black" stroke-miterlimit="10"/>
<path d="M7.09009 13.8899H29.4001" stroke="black" stroke-miterlimit="10"/>
<path d="M18.24 22.3999V13.8899" stroke="black" stroke-miterlimit="10"/>
<path d="M18.24 47.47V34.86" stroke="black" stroke-miterlimit="10"/>
<path d="M44.53 39.47V47.53" stroke="black" stroke-miterlimit="10"/>
<path d="M40.8701 39.47V47.53" stroke="black" stroke-miterlimit="10"/>
<path d="M37.2102 39.47V47.53" stroke="black" stroke-miterlimit="10"/>
<path d="M33.55 39.47V47.53" stroke="black" stroke-miterlimit="10"/>
<path d="M29.8901 39.47V47.53" stroke="black" stroke-miterlimit="10"/>
<path d="M26.23 39.47V47.53" stroke="black" stroke-miterlimit="10"/>
<path d="M22.5701 39.47V47.53" stroke="black" stroke-miterlimit="10"/>
<path d="M47.5 32.14C47.5 24.14 40.34 17.58 31.5 17.58C22.66 17.58 15.5 24.1 15.5 32.14H47.5Z" stroke="#B6915D" stroke-width="0.95" stroke-miterlimit="10"/>
<path d="M32.0502 17.58C27.4302 17.58 23.6802 24.1 23.6802 32.14" stroke="#B6915D" stroke-width="0.95" stroke-miterlimit="10"/>
<path d="M30.5801 17.58C35.2101 17.58 38.9501 24.1 38.9501 32.14" stroke="#B6915D" stroke-width="0.95" stroke-miterlimit="10"/>
<path d="M21.85 32.37C21.836 32.7693 21.7424 33.1619 21.5746 33.5245C21.4068 33.8872 21.1683 34.2127 20.873 34.4819C20.5777 34.7511 20.2316 34.9586 19.855 35.0922C19.4784 35.2258 19.0789 35.2829 18.68 35.26C18.2803 35.2843 17.8797 35.2283 17.5019 35.0953C17.1242 34.9623 16.7769 34.755 16.4805 34.4856C16.1841 34.2163 15.9447 33.8903 15.7763 33.527C15.6079 33.1636 15.5139 32.7702 15.5 32.37" stroke="#B6915D" stroke-width="0.96" stroke-miterlimit="10"/>
<path d="M28.2602 32.37C28.2462 32.7702 28.1523 33.1636 27.9839 33.527C27.8155 33.8903 27.576 34.2163 27.2796 34.4856C26.9833 34.755 26.636 34.9623 26.2582 35.0953C25.8805 35.2283 25.4799 35.2843 25.0802 35.26C24.6812 35.2829 24.2817 35.2258 23.9051 35.0922C23.5286 34.9586 23.1825 34.7511 22.8872 34.4819C22.5919 34.2127 22.3533 33.8872 22.1856 33.5245C22.0178 33.1619 21.9242 32.7693 21.9102 32.37" stroke="#B6915D" stroke-width="0.96" stroke-miterlimit="10"/>
<path d="M34.6701 32.37C34.5933 33.1588 34.2256 33.8908 33.6387 34.4234C33.0518 34.956 32.2876 35.251 31.4951 35.251C30.7025 35.251 29.9384 34.956 29.3514 34.4234C28.7645 33.8908 28.3968 33.1588 28.3201 32.37" stroke="#B6915D" stroke-width="0.96" stroke-miterlimit="10"/>
<path d="M41.08 32.37C41.0032 33.1588 40.6356 33.8908 40.0486 34.4234C39.4617 34.956 38.6975 35.251 37.905 35.251C37.1124 35.251 36.3483 34.956 35.7613 34.4234C35.1744 33.8908 34.8067 33.1588 34.73 32.37" stroke="#B6915D" stroke-width="0.96" stroke-miterlimit="10"/>
<path d="M47.4901 32.37C47.4134 33.1588 47.0457 33.8908 46.4588 34.4234C45.8719 34.956 45.1077 35.251 44.3151 35.251C43.5226 35.251 42.7584 34.956 42.1715 34.4234C41.5846 33.8908 41.2169 33.1588 41.1401 32.37" stroke="#B6915D" stroke-width="0.96" stroke-miterlimit="10"/>
<path d="M31.28 35.33V39.61" stroke="#B6915D" stroke-width="0.95" stroke-miterlimit="10"/>
<path d="M47.1902 41.58C47.1902 41.0495 46.9795 40.5408 46.6044 40.1657C46.2293 39.7907 45.7206 39.58 45.1902 39.58H18.1902" stroke="black" stroke-miterlimit="10"/>
<path d="M14.23 16.61L8.96997 22.81" stroke="black" stroke-linecap="round" stroke-linejoin="round"/>
<path d="M15.5901 20.13L10.3301 26.32" stroke="black" stroke-linecap="round" stroke-linejoin="round"/>
</svg>
