<svg width="52" height="52" viewBox="0 0 52 52" fill="none" xmlns="http://www.w3.org/2000/svg">
<path d="M45.5801 9.21997H7.83008V11.07H45.5801V9.21997Z" fill="white"/>
<path d="M19.61 3.55005H10.73V9.10005H19.61V3.55005Z" fill="white"/>
<path d="M19.9999 9.43996H10.3899V3.20996H19.9999V9.43996ZM11.1099 8.75996H19.3199V3.88996H11.0699L11.1099 8.75996Z" fill="#1D1D1B"/>
<path d="M18.2701 4.85999H12.0801V7.80999H18.2701V4.85999Z" fill="white"/>
<path d="M18.61 8.14002H11.74V4.52002H18.61V8.14002ZM12.42 7.46002H17.93V5.19002H12.42V7.46002Z" fill="#1D1D1B"/>
<path d="M42.2 3.13H40.53V9.10001H42.2V3.13Z" fill="white"/>
<path d="M42.5299 9.44004H40.1899V2.79004H42.5299V9.44004ZM40.8699 8.76004H41.8699V3.47004H40.8699V8.76004Z" fill="#1D1D1B"/>
<path d="M35.0638 3.01556L33.8083 8.85205L35.441 9.20325L36.6965 3.36676L35.0638 3.01556Z" fill="white"/>
<path d="M35.6999 9.60999L33.4099 9.12L34.8099 2.62L37.0999 3.11L35.6999 9.60999ZM34.2099 8.60999L35.2099 8.81L36.3199 3.64L35.3199 3.43L34.2099 8.60999Z" fill="#1D1D1B"/>
<path d="M38.7999 3.75H37.1299V9.1H38.7999V3.75Z" fill="white"/>
<path d="M39.14 9.43994H36.79V3.43994H39.14V9.43994ZM37.47 8.75994H38.47V4.08994H37.47V8.75994Z" fill="#1D1D1B"/>
<path d="M40.5301 2.35999H38.8601V9.09999H40.5301V2.35999Z" fill="white"/>
<path d="M40.87 9.44H38.52V2H40.87V9.44ZM39.2 8.76H40.2V2.7H39.2V8.76Z" fill="#1D1D1B"/>
<path d="M6.84009 26.96V47.8" stroke="#1D1D1B" stroke-linecap="round" stroke-linejoin="round"/>
<path d="M45.1599 26.96V47.8" stroke="#1D1D1B" stroke-linecap="round" stroke-linejoin="round"/>
<path d="M40.5901 15.1899V23.3899" stroke="#1D1D1B" stroke-linecap="round" stroke-linejoin="round"/>
<path d="M11.1499 15.1899V23.5299" stroke="#1D1D1B" stroke-linecap="round" stroke-linejoin="round"/>
<path d="M11.52 17H40.34" stroke="#1D1D1B" stroke-linecap="round" stroke-linejoin="round"/>
<path d="M7.11011 44H44.9101" stroke="#1D1D1B" stroke-linecap="round" stroke-linejoin="round"/>
<path d="M7.11011 40.6801H45.1601" stroke="#1D1D1B" stroke-linecap="round" stroke-linejoin="round"/>
<path d="M24.9999 31.51V24.92C24.9973 24.577 24.8592 24.2489 24.6157 24.0072C24.3722 23.7656 24.043 23.63 23.6999 23.63H11.2299C10.8878 23.63 10.5597 23.7659 10.3178 24.0078C10.0759 24.2498 9.93994 24.5779 9.93994 24.92V31.51" stroke="#B6915D" stroke-linecap="round" stroke-linejoin="round"/>
<path d="M31.19 23.63H28.34C28.1668 23.6247 27.9942 23.654 27.8325 23.7163C27.6708 23.7786 27.5232 23.8727 27.3984 23.9928C27.2735 24.113 27.174 24.257 27.1055 24.4162C27.0371 24.5754 27.0013 24.7467 27 24.92V31.51" stroke="#B6915D" stroke-linecap="round" stroke-linejoin="round"/>
<path d="M33.35 23.63H32.48" stroke="#B6915D" stroke-linecap="round" stroke-linejoin="round"/>
<path d="M42.06 31.51V24.92C42.06 24.5779 41.9241 24.2498 41.6822 24.0078C41.4403 23.7659 41.1122 23.63 40.77 23.63H34.54" stroke="#B6915D" stroke-linecap="round" stroke-linejoin="round"/>
<path d="M44.6501 31.78H6.84009" stroke="#1D1D1B" stroke-linecap="round" stroke-linejoin="round"/>
<path d="M44.99 9.43005H7.01001V11.6701H44.99V9.43005Z" fill="#B6915D"/>
</svg>
