<svg width="52" height="52" viewBox="0 0 52 52" fill="none" xmlns="http://www.w3.org/2000/svg">
<path d="M24.9 19.47L21.16 16.06C20.8817 15.8111 20.5267 15.6646 20.1538 15.6448C19.7808 15.625 19.4123 15.733 19.1092 15.9511C18.806 16.1691 18.5863 16.4841 18.4865 16.8439C18.3866 17.2038 18.4126 17.5869 18.56 17.93L25.16 32.86C25.2325 33.0222 25.3504 33.16 25.4994 33.2567C25.6485 33.3533 25.8223 33.4048 26 33.4048C26.1777 33.4048 26.3515 33.3533 26.5006 33.2567C26.6497 33.16 26.7675 33.0222 26.84 32.86L33.44 17.93C33.5875 17.5869 33.6134 17.2038 33.5135 16.8439C33.4137 16.4841 33.194 16.1691 32.8909 15.9511C32.5877 15.733 32.2192 15.625 31.8463 15.6448C31.4734 15.6646 31.1184 15.8111 30.84 16.06L27.1 19.47C26.8017 19.7491 26.4085 19.9044 26 19.9044C25.5915 19.9044 25.1983 19.7491 24.9 19.47Z" fill="black"/>
<path d="M9.70996 19.55C10.7856 16.0659 12.9431 13.015 15.8696 10.8398C18.7961 8.66455 22.3395 7.47808 25.9857 7.45245C29.632 7.42682 33.1917 8.56335 36.1485 10.6972C39.1053 12.8311 41.3054 15.8514 42.43 19.32" stroke="black" stroke-linecap="round" stroke-linejoin="round"/>
<path d="M19.7801 40.57C17.3097 39.586 15.1012 38.0427 13.3279 36.0612C11.5546 34.0797 10.2649 31.714 9.56006 29.15" stroke="black" stroke-linecap="round" stroke-linejoin="round"/>
<path d="M34.7699 39.4301C33.8524 39.9723 32.8846 40.4244 31.8799 40.7801" stroke="black" stroke-linecap="round" stroke-linejoin="round"/>
<path d="M37.3001 37.62L36.6001 38.2" stroke="black" stroke-linecap="round" stroke-linejoin="round"/>
<path d="M42.52 29.62C41.9032 31.6519 40.913 33.5511 39.6 35.22C39.4067 35.46 39.2067 35.7 39 35.94" stroke="black" stroke-linecap="round" stroke-linejoin="round"/>
<path d="M43.2599 27.01C44.6903 27.01 45.8499 25.8504 45.8499 24.42C45.8499 22.9895 44.6903 21.83 43.2599 21.83C41.8295 21.83 40.6699 22.9895 40.6699 24.42C40.6699 25.8504 41.8295 27.01 43.2599 27.01Z" stroke="#B6915D" stroke-width="0.9" stroke-miterlimit="10"/>
<path d="M8.7399 27.01C10.1703 27.01 11.3299 25.8504 11.3299 24.42C11.3299 22.9895 10.1703 21.83 8.7399 21.83C7.30948 21.83 6.1499 22.9895 6.1499 24.42C6.1499 25.8504 7.30948 27.01 8.7399 27.01Z" fill="#B6915D" stroke="black" stroke-width="0.9" stroke-miterlimit="10"/>
<path d="M25.88 43.9C27.3105 43.9 28.47 42.7404 28.47 41.31C28.47 39.8796 27.3105 38.72 25.88 38.72C24.4496 38.72 23.29 39.8796 23.29 41.31C23.29 42.7404 24.4496 43.9 25.88 43.9Z" stroke="#B6915D" stroke-width="0.9" stroke-miterlimit="10"/>
<path d="M27.78 36.95L27.04 38.65" stroke="#B6915D" stroke-width="0.9" stroke-linecap="round" stroke-linejoin="round"/>
<path d="M24.78 43.84L24.04 45.54" stroke="#B6915D" stroke-width="0.9" stroke-linecap="round" stroke-linejoin="round"/>
<path d="M30.1299 43.08L28.4299 42.34" stroke="#B6915D" stroke-width="0.9" stroke-linecap="round" stroke-linejoin="round"/>
<path d="M23.23 40.08L21.54 39.34" stroke="#B6915D" stroke-width="0.9" stroke-linecap="round" stroke-linejoin="round"/>
<path d="M30.3301 39.6899L28.6101 40.3599" stroke="#B6915D" stroke-width="0.9" stroke-linecap="round" stroke-linejoin="round"/>
<path d="M23.3401 42.4399L21.6201 43.1199" stroke="#B6915D" stroke-width="0.9" stroke-linecap="round" stroke-linejoin="round"/>
<path d="M27.6299 45.6L26.95 43.88" stroke="#B6915D" stroke-width="0.9" stroke-linecap="round" stroke-linejoin="round"/>
<path d="M24.87 38.61L24.2 36.89" stroke="#B6915D" stroke-width="0.9" stroke-linecap="round" stroke-linejoin="round"/>
</svg>
