<svg width="53" height="52" viewBox="0 0 53 52" fill="none" xmlns="http://www.w3.org/2000/svg">
<path d="M27.9221 26.8594L27.7171 31.9435C27.6963 32.3163 27.5488 32.6709 27.2992 32.9486C27.0495 33.2263 26.7125 33.4105 26.344 33.4707C25.9754 33.5309 25.5973 33.4635 25.2723 33.2796C24.9472 33.0958 24.6947 32.8065 24.5563 32.4597L18.6661 17.2357C18.6026 17.0697 18.5886 16.8889 18.6256 16.7152C18.6627 16.5414 18.7492 16.3821 18.8749 16.2565C19.0005 16.1308 19.1598 16.0443 19.3336 16.0072C19.5073 15.9702 19.6881 15.9842 19.8541 16.0477L35.0781 21.9379C35.4249 22.0763 35.7142 22.3288 35.898 22.6539C36.0819 22.9789 36.1493 23.357 36.0891 23.7256C36.0289 24.0941 35.8447 24.4311 35.567 24.6808C35.2893 24.9304 34.9347 25.0779 34.5619 25.0987L29.4778 25.3037C29.071 25.3219 28.6858 25.4916 28.3979 25.7795C28.11 26.0674 27.9403 26.4526 27.9221 26.8594Z" fill="black"/>
<path d="M9.86475 19.55C10.9404 16.0659 13.0979 13.015 16.0244 10.8398C18.9509 8.66455 22.4942 7.47808 26.1405 7.45245C29.7868 7.42682 33.3465 8.56335 36.3032 10.6972C39.26 12.8311 41.4602 15.8514 42.5847 19.32" stroke="black" stroke-linecap="round" stroke-linejoin="round"/>
<path d="M19.9348 40.57C17.4645 39.586 15.2559 38.0427 13.4827 36.0612C11.7094 34.0797 10.4197 31.714 9.71484 29.15" stroke="black" stroke-linecap="round" stroke-linejoin="round"/>
<path d="M34.9247 39.4301C34.0072 39.9723 33.0393 40.4244 32.0347 40.7801" stroke="black" stroke-linecap="round" stroke-linejoin="round"/>
<path d="M37.4549 37.62L36.7549 38.2" stroke="black" stroke-linecap="round" stroke-linejoin="round"/>
<path d="M42.6748 29.62C42.058 31.6519 41.0678 33.5511 39.7548 35.22C39.5615 35.46 39.3615 35.7 39.1548 35.94" stroke="black" stroke-linecap="round" stroke-linejoin="round"/>
<path d="M43.4147 27.01C44.8451 27.01 46.0047 25.8504 46.0047 24.42C46.0047 22.9895 44.8451 21.83 43.4147 21.83C41.9843 21.83 40.8247 22.9895 40.8247 24.42C40.8247 25.8504 41.9843 27.01 43.4147 27.01Z" stroke="#B6915D" stroke-width="0.9" stroke-miterlimit="10"/>
<path d="M8.89469 27.01C10.3251 27.01 11.4847 25.8504 11.4847 24.42C11.4847 22.9895 10.3251 21.83 8.89469 21.83C7.46427 21.83 6.30469 22.9895 6.30469 24.42C6.30469 25.8504 7.46427 27.01 8.89469 27.01Z" fill="#B6915D" stroke="black" stroke-width="0.9" stroke-miterlimit="10"/>
<path d="M26.0348 43.9C27.4652 43.9 28.6248 42.7404 28.6248 41.31C28.6248 39.8796 27.4652 38.72 26.0348 38.72C24.6044 38.72 23.4448 39.8796 23.4448 41.31C23.4448 42.7404 24.6044 43.9 26.0348 43.9Z" stroke="#B6915D" stroke-width="0.9" stroke-miterlimit="10"/>
<path d="M27.9348 36.95L27.1948 38.65" stroke="#B6915D" stroke-width="0.9" stroke-linecap="round" stroke-linejoin="round"/>
<path d="M24.9348 43.84L24.1948 45.54" stroke="#B6915D" stroke-width="0.9" stroke-linecap="round" stroke-linejoin="round"/>
<path d="M30.2847 43.08L28.5847 42.34" stroke="#B6915D" stroke-width="0.9" stroke-linecap="round" stroke-linejoin="round"/>
<path d="M23.3848 40.08L21.6948 39.34" stroke="#B6915D" stroke-width="0.9" stroke-linecap="round" stroke-linejoin="round"/>
<path d="M30.4849 39.6899L28.7649 40.3599" stroke="#B6915D" stroke-width="0.9" stroke-linecap="round" stroke-linejoin="round"/>
<path d="M23.4949 42.4399L21.7749 43.1199" stroke="#B6915D" stroke-width="0.9" stroke-linecap="round" stroke-linejoin="round"/>
<path d="M27.7847 45.6L27.1047 43.88" stroke="#B6915D" stroke-width="0.9" stroke-linecap="round" stroke-linejoin="round"/>
<path d="M25.0247 38.61L24.3547 36.89" stroke="#B6915D" stroke-width="0.9" stroke-linecap="round" stroke-linejoin="round"/>
</svg>
