<svg width="52" height="52" viewBox="0 0 52 52" fill="none" xmlns="http://www.w3.org/2000/svg">
<path d="M21.9999 25.6199L18.5899 29.3499C18.3232 29.622 18.1594 29.9784 18.1269 30.358C18.0943 30.7375 18.1949 31.1166 18.4114 31.4301C18.6278 31.7436 18.9467 31.972 19.3132 32.0759C19.6798 32.1799 20.071 32.153 20.4199 31.9999L35.3399 25.4099C35.505 25.3388 35.6457 25.2209 35.7446 25.0708C35.8434 24.9206 35.8961 24.7447 35.8961 24.5649C35.8961 24.3852 35.8434 24.2093 35.7446 24.0591C35.6457 23.909 35.505 23.791 35.3399 23.7199L20.4199 17.1199C20.0768 16.9725 19.6937 16.9466 19.3338 17.0464C18.974 17.1463 18.659 17.3659 18.441 17.6691C18.2229 17.9723 18.1149 18.3408 18.1347 18.7137C18.1545 19.0866 18.301 19.4416 18.5499 19.7199L21.9999 23.4099C22.2754 23.712 22.4281 24.1061 22.4281 24.5149C22.4281 24.9238 22.2754 25.3179 21.9999 25.6199Z" fill="black"/>
<path d="M9.70996 19.55C10.7856 16.0659 12.9431 13.015 15.8696 10.8398C18.7961 8.66455 22.3395 7.47808 25.9857 7.45245C29.632 7.42682 33.1917 8.56335 36.1485 10.6972C39.1053 12.8311 41.3054 15.8514 42.43 19.32" stroke="black" stroke-linecap="round" stroke-linejoin="round"/>
<path d="M19.7801 40.57C17.3097 39.586 15.1012 38.0427 13.3279 36.0612C11.5546 34.0797 10.2649 31.714 9.56006 29.15" stroke="black" stroke-linecap="round" stroke-linejoin="round"/>
<path d="M34.7699 39.4301C33.8524 39.9723 32.8846 40.4244 31.8799 40.7801" stroke="black" stroke-linecap="round" stroke-linejoin="round"/>
<path d="M37.3001 37.62L36.6001 38.2" stroke="black" stroke-linecap="round" stroke-linejoin="round"/>
<path d="M42.52 29.62C41.9032 31.6519 40.913 33.5511 39.6 35.22C39.4067 35.46 39.2067 35.7 39 35.94" stroke="black" stroke-linecap="round" stroke-linejoin="round"/>
<path d="M43.2599 27.01C44.6903 27.01 45.8499 25.8504 45.8499 24.42C45.8499 22.9895 44.6903 21.83 43.2599 21.83C41.8295 21.83 40.6699 22.9895 40.6699 24.42C40.6699 25.8504 41.8295 27.01 43.2599 27.01Z" stroke="#B6915D" stroke-width="0.9" stroke-miterlimit="10"/>
<path d="M8.7399 27.01C10.1703 27.01 11.3299 25.8504 11.3299 24.42C11.3299 22.9895 10.1703 21.83 8.7399 21.83C7.30948 21.83 6.1499 22.9895 6.1499 24.42C6.1499 25.8504 7.30948 27.01 8.7399 27.01Z" fill="#B6915D" stroke="black" stroke-width="0.9" stroke-miterlimit="10"/>
<path d="M25.88 43.9C27.3105 43.9 28.47 42.7404 28.47 41.31C28.47 39.8796 27.3105 38.72 25.88 38.72C24.4496 38.72 23.29 39.8796 23.29 41.31C23.29 42.7404 24.4496 43.9 25.88 43.9Z" stroke="#B6915D" stroke-width="0.9" stroke-miterlimit="10"/>
<path d="M27.78 36.95L27.04 38.65" stroke="#B6915D" stroke-width="0.9" stroke-linecap="round" stroke-linejoin="round"/>
<path d="M24.78 43.84L24.04 45.54" stroke="#B6915D" stroke-width="0.9" stroke-linecap="round" stroke-linejoin="round"/>
<path d="M30.1299 43.08L28.4299 42.34" stroke="#B6915D" stroke-width="0.9" stroke-linecap="round" stroke-linejoin="round"/>
<path d="M23.23 40.08L21.54 39.34" stroke="#B6915D" stroke-width="0.9" stroke-linecap="round" stroke-linejoin="round"/>
<path d="M30.3301 39.6899L28.6101 40.3599" stroke="#B6915D" stroke-width="0.9" stroke-linecap="round" stroke-linejoin="round"/>
<path d="M23.3401 42.4399L21.6201 43.1199" stroke="#B6915D" stroke-width="0.9" stroke-linecap="round" stroke-linejoin="round"/>
<path d="M27.6299 45.6L26.95 43.88" stroke="#B6915D" stroke-width="0.9" stroke-linecap="round" stroke-linejoin="round"/>
<path d="M24.87 38.61L24.2 36.89" stroke="#B6915D" stroke-width="0.9" stroke-linecap="round" stroke-linejoin="round"/>
</svg>
