<svg width="53" height="52" viewBox="0 0 53 52" fill="none" xmlns="http://www.w3.org/2000/svg">
<path d="M29.4531 22.7614L34.5019 22.9877C34.8828 22.9914 35.2506 23.1277 35.542 23.373C35.8335 23.6184 36.0304 23.9576 36.099 24.3323C36.1676 24.7071 36.1036 25.094 35.9179 25.4267C35.7323 25.7594 35.4366 26.0171 35.0817 26.1555L19.8365 32.0104C19.6694 32.0769 19.4866 32.093 19.3105 32.0567C19.1344 32.0204 18.9728 31.9333 18.8457 31.8061C18.7186 31.679 18.6315 31.5174 18.5952 31.3413C18.5589 31.1653 18.575 30.9824 18.6415 30.8154L24.5246 15.5984C24.6629 15.2516 24.9155 14.9623 25.2406 14.7785C25.5656 14.5946 25.9437 14.5272 26.3122 14.5874C26.6808 14.6476 27.0178 14.8318 27.2674 15.1095C27.5171 15.3872 27.6646 15.7418 27.6854 16.1146L27.8904 21.1987C27.9092 21.6071 28.0799 21.9937 28.369 22.2828C28.6581 22.5719 29.0447 22.7426 29.4531 22.7614Z" fill="black"/>
<path d="M9.86475 19.55C10.9404 16.0659 13.0979 13.015 16.0244 10.8398C18.9509 8.66455 22.4942 7.47808 26.1405 7.45245C29.7868 7.42682 33.3465 8.56335 36.3032 10.6972C39.26 12.8311 41.4602 15.8514 42.5847 19.32" stroke="black" stroke-linecap="round" stroke-linejoin="round"/>
<path d="M19.9348 40.57C17.4645 39.586 15.2559 38.0427 13.4827 36.0612C11.7094 34.0797 10.4197 31.714 9.71484 29.15" stroke="black" stroke-linecap="round" stroke-linejoin="round"/>
<path d="M34.9247 39.4301C34.0072 39.9723 33.0393 40.4244 32.0347 40.7801" stroke="black" stroke-linecap="round" stroke-linejoin="round"/>
<path d="M37.4549 37.62L36.7549 38.2" stroke="black" stroke-linecap="round" stroke-linejoin="round"/>
<path d="M42.6748 29.62C42.058 31.6519 41.0678 33.5511 39.7548 35.22C39.5615 35.46 39.3615 35.7 39.1548 35.94" stroke="black" stroke-linecap="round" stroke-linejoin="round"/>
<path d="M43.4147 27.01C44.8451 27.01 46.0047 25.8504 46.0047 24.42C46.0047 22.9895 44.8451 21.83 43.4147 21.83C41.9843 21.83 40.8247 22.9895 40.8247 24.42C40.8247 25.8504 41.9843 27.01 43.4147 27.01Z" stroke="#B6915D" stroke-width="0.9" stroke-miterlimit="10"/>
<path d="M8.89469 27.01C10.3251 27.01 11.4847 25.8504 11.4847 24.42C11.4847 22.9895 10.3251 21.83 8.89469 21.83C7.46427 21.83 6.30469 22.9895 6.30469 24.42C6.30469 25.8504 7.46427 27.01 8.89469 27.01Z" fill="#B6915D" stroke="black" stroke-width="0.9" stroke-miterlimit="10"/>
<path d="M26.0348 43.9C27.4652 43.9 28.6248 42.7404 28.6248 41.31C28.6248 39.8796 27.4652 38.72 26.0348 38.72C24.6044 38.72 23.4448 39.8796 23.4448 41.31C23.4448 42.7404 24.6044 43.9 26.0348 43.9Z" stroke="#B6915D" stroke-width="0.9" stroke-miterlimit="10"/>
<path d="M27.9348 36.95L27.1948 38.65" stroke="#B6915D" stroke-width="0.9" stroke-linecap="round" stroke-linejoin="round"/>
<path d="M24.9348 43.84L24.1948 45.54" stroke="#B6915D" stroke-width="0.9" stroke-linecap="round" stroke-linejoin="round"/>
<path d="M30.2847 43.08L28.5847 42.34" stroke="#B6915D" stroke-width="0.9" stroke-linecap="round" stroke-linejoin="round"/>
<path d="M23.3848 40.08L21.6948 39.34" stroke="#B6915D" stroke-width="0.9" stroke-linecap="round" stroke-linejoin="round"/>
<path d="M30.4849 39.6899L28.7649 40.3599" stroke="#B6915D" stroke-width="0.9" stroke-linecap="round" stroke-linejoin="round"/>
<path d="M23.4949 42.4399L21.7749 43.1199" stroke="#B6915D" stroke-width="0.9" stroke-linecap="round" stroke-linejoin="round"/>
<path d="M27.7847 45.6L27.1047 43.88" stroke="#B6915D" stroke-width="0.9" stroke-linecap="round" stroke-linejoin="round"/>
<path d="M25.0247 38.61L24.3547 36.89" stroke="#B6915D" stroke-width="0.9" stroke-linecap="round" stroke-linejoin="round"/>
</svg>
