<svg width="53" height="52" viewBox="0 0 53 52" fill="none" xmlns="http://www.w3.org/2000/svg">
<path d="M24.3695 26.8518L24.5958 31.9006C24.5995 32.2815 24.7358 32.6493 24.9811 32.9408C25.2265 33.2322 25.5657 33.4291 25.9404 33.4977C26.3152 33.5663 26.7021 33.5023 27.0348 33.3167C27.3675 33.131 27.6252 32.8354 27.7636 32.4804L33.6538 17.2705C33.7203 17.1035 33.7364 16.9206 33.7001 16.7446C33.6638 16.5685 33.5767 16.4069 33.4496 16.2798C33.3225 16.1526 33.1609 16.0655 32.9848 16.0293C32.8087 15.993 32.6258 16.009 32.4588 16.0755L17.2419 21.9587C16.895 22.097 16.6057 22.3496 16.4219 22.6746C16.2381 22.9997 16.1707 23.3777 16.2309 23.7463C16.2911 24.1149 16.4752 24.4518 16.7529 24.7015C17.0306 24.9512 17.3852 25.0986 17.7581 25.1194L22.8068 25.2891C23.2152 25.308 23.6018 25.4787 23.8909 25.7677C24.18 26.0568 24.3507 26.4435 24.3695 26.8518Z" fill="black"/>
<path d="M9.86475 19.55C10.9404 16.0659 13.0979 13.015 16.0244 10.8398C18.9509 8.66455 22.4942 7.47808 26.1405 7.45245C29.7868 7.42682 33.3465 8.56335 36.3032 10.6972C39.26 12.8311 41.4602 15.8514 42.5847 19.32" stroke="black" stroke-linecap="round" stroke-linejoin="round"/>
<path d="M19.9348 40.57C17.4645 39.586 15.2559 38.0427 13.4827 36.0612C11.7094 34.0797 10.4197 31.714 9.71484 29.15" stroke="black" stroke-linecap="round" stroke-linejoin="round"/>
<path d="M34.9247 39.4301C34.0072 39.9723 33.0393 40.4244 32.0347 40.7801" stroke="black" stroke-linecap="round" stroke-linejoin="round"/>
<path d="M37.4549 37.62L36.7549 38.2" stroke="black" stroke-linecap="round" stroke-linejoin="round"/>
<path d="M42.6748 29.62C42.058 31.6519 41.0678 33.5511 39.7548 35.22C39.5615 35.46 39.3615 35.7 39.1548 35.94" stroke="black" stroke-linecap="round" stroke-linejoin="round"/>
<path d="M43.4147 27.01C44.8451 27.01 46.0047 25.8504 46.0047 24.42C46.0047 22.9895 44.8451 21.83 43.4147 21.83C41.9843 21.83 40.8247 22.9895 40.8247 24.42C40.8247 25.8504 41.9843 27.01 43.4147 27.01Z" stroke="#B6915D" stroke-width="0.9" stroke-miterlimit="10"/>
<path d="M8.89469 27.01C10.3251 27.01 11.4847 25.8504 11.4847 24.42C11.4847 22.9895 10.3251 21.83 8.89469 21.83C7.46427 21.83 6.30469 22.9895 6.30469 24.42C6.30469 25.8504 7.46427 27.01 8.89469 27.01Z" fill="#B6915D" stroke="black" stroke-width="0.9" stroke-miterlimit="10"/>
<path d="M26.0348 43.9C27.4652 43.9 28.6248 42.7404 28.6248 41.31C28.6248 39.8796 27.4652 38.72 26.0348 38.72C24.6044 38.72 23.4448 39.8796 23.4448 41.31C23.4448 42.7404 24.6044 43.9 26.0348 43.9Z" stroke="#B6915D" stroke-width="0.9" stroke-miterlimit="10"/>
<path d="M27.9348 36.95L27.1948 38.65" stroke="#B6915D" stroke-width="0.9" stroke-linecap="round" stroke-linejoin="round"/>
<path d="M24.9348 43.84L24.1948 45.54" stroke="#B6915D" stroke-width="0.9" stroke-linecap="round" stroke-linejoin="round"/>
<path d="M30.2847 43.08L28.5847 42.34" stroke="#B6915D" stroke-width="0.9" stroke-linecap="round" stroke-linejoin="round"/>
<path d="M23.3848 40.08L21.6948 39.34" stroke="#B6915D" stroke-width="0.9" stroke-linecap="round" stroke-linejoin="round"/>
<path d="M30.4849 39.6899L28.7649 40.3599" stroke="#B6915D" stroke-width="0.9" stroke-linecap="round" stroke-linejoin="round"/>
<path d="M23.4949 42.4399L21.7749 43.1199" stroke="#B6915D" stroke-width="0.9" stroke-linecap="round" stroke-linejoin="round"/>
<path d="M27.7847 45.6L27.1047 43.88" stroke="#B6915D" stroke-width="0.9" stroke-linecap="round" stroke-linejoin="round"/>
<path d="M25.0247 38.61L24.3547 36.89" stroke="#B6915D" stroke-width="0.9" stroke-linecap="round" stroke-linejoin="round"/>
</svg>
