<svg width="53" height="52" viewBox="0 0 53 52" fill="none" xmlns="http://www.w3.org/2000/svg">
<path d="M22.8035 22.728L17.7477 22.9613C17.3749 22.9821 17.0203 23.1295 16.7426 23.3792C16.4649 23.6289 16.2807 23.9659 16.2205 24.3344C16.1603 24.703 16.2277 25.081 16.4116 25.4061C16.5954 25.7311 16.8847 25.9837 17.2315 26.1221L32.4555 32.0123C32.6215 32.0757 32.8023 32.0898 32.976 32.0527C33.1498 32.0157 33.3091 31.9291 33.4347 31.8035C33.5604 31.6779 33.6469 31.5186 33.684 31.3448C33.721 31.171 33.707 30.9903 33.6435 30.8243L27.7533 15.6003C27.6149 15.2535 27.3624 14.9642 27.0373 14.7804C26.7123 14.5965 26.3342 14.5291 25.9656 14.5893C25.5971 14.6495 25.2601 14.8337 25.0104 15.1114C24.7608 15.3891 24.6133 15.7437 24.5925 16.1165L24.3592 21.1723C24.3456 21.5806 24.1774 21.9684 23.8885 22.2573C23.5997 22.5461 23.2118 22.7144 22.8035 22.728Z" fill="black"/>
<path d="M9.86475 19.55C10.9404 16.0659 13.0979 13.015 16.0244 10.8398C18.9509 8.66455 22.4942 7.47808 26.1405 7.45245C29.7868 7.42682 33.3465 8.56335 36.3032 10.6972C39.26 12.8311 41.4602 15.8514 42.5847 19.32" stroke="black" stroke-linecap="round" stroke-linejoin="round"/>
<path d="M19.9348 40.57C17.4645 39.586 15.2559 38.0427 13.4827 36.0612C11.7094 34.0797 10.4197 31.714 9.71484 29.15" stroke="black" stroke-linecap="round" stroke-linejoin="round"/>
<path d="M34.9247 39.4301C34.0072 39.9723 33.0393 40.4244 32.0347 40.7801" stroke="black" stroke-linecap="round" stroke-linejoin="round"/>
<path d="M37.4549 37.62L36.7549 38.2" stroke="black" stroke-linecap="round" stroke-linejoin="round"/>
<path d="M42.6748 29.62C42.058 31.6519 41.0678 33.5511 39.7548 35.22C39.5615 35.46 39.3615 35.7 39.1548 35.94" stroke="black" stroke-linecap="round" stroke-linejoin="round"/>
<path d="M43.4147 27.01C44.8451 27.01 46.0047 25.8504 46.0047 24.42C46.0047 22.9895 44.8451 21.83 43.4147 21.83C41.9843 21.83 40.8247 22.9895 40.8247 24.42C40.8247 25.8504 41.9843 27.01 43.4147 27.01Z" stroke="#B6915D" stroke-width="0.9" stroke-miterlimit="10"/>
<path d="M8.89469 27.01C10.3251 27.01 11.4847 25.8504 11.4847 24.42C11.4847 22.9895 10.3251 21.83 8.89469 21.83C7.46427 21.83 6.30469 22.9895 6.30469 24.42C6.30469 25.8504 7.46427 27.01 8.89469 27.01Z" fill="#B6915D" stroke="black" stroke-width="0.9" stroke-miterlimit="10"/>
<path d="M26.0348 43.9C27.4652 43.9 28.6248 42.7404 28.6248 41.31C28.6248 39.8796 27.4652 38.72 26.0348 38.72C24.6044 38.72 23.4448 39.8796 23.4448 41.31C23.4448 42.7404 24.6044 43.9 26.0348 43.9Z" stroke="#B6915D" stroke-width="0.9" stroke-miterlimit="10"/>
<path d="M27.9348 36.95L27.1948 38.65" stroke="#B6915D" stroke-width="0.9" stroke-linecap="round" stroke-linejoin="round"/>
<path d="M24.9348 43.84L24.1948 45.54" stroke="#B6915D" stroke-width="0.9" stroke-linecap="round" stroke-linejoin="round"/>
<path d="M30.2847 43.08L28.5847 42.34" stroke="#B6915D" stroke-width="0.9" stroke-linecap="round" stroke-linejoin="round"/>
<path d="M23.3848 40.08L21.6948 39.34" stroke="#B6915D" stroke-width="0.9" stroke-linecap="round" stroke-linejoin="round"/>
<path d="M30.4849 39.6899L28.7649 40.3599" stroke="#B6915D" stroke-width="0.9" stroke-linecap="round" stroke-linejoin="round"/>
<path d="M23.4949 42.4399L21.7749 43.1199" stroke="#B6915D" stroke-width="0.9" stroke-linecap="round" stroke-linejoin="round"/>
<path d="M27.7847 45.6L27.1047 43.88" stroke="#B6915D" stroke-width="0.9" stroke-linecap="round" stroke-linejoin="round"/>
<path d="M25.0247 38.61L24.3547 36.89" stroke="#B6915D" stroke-width="0.9" stroke-linecap="round" stroke-linejoin="round"/>
</svg>
