<svg width="53" height="52" viewBox="0 0 53 52" fill="none" xmlns="http://www.w3.org/2000/svg">
<path d="M12.9548 11C12.4727 10.5776 12.0858 10.0576 11.8196 9.47452C11.5534 8.89142 11.4139 8.25846 11.4105 7.61747C11.407 6.97648 11.5396 6.34206 11.7996 5.75613C12.0595 5.1702 12.4408 4.64611 12.9183 4.21848C13.3959 3.79086 13.9587 3.46945 14.5696 3.27548C15.1806 3.08152 15.8257 3.01942 16.4625 3.09329C17.0992 3.16717 17.713 3.37533 18.2633 3.70402C18.8136 4.03271 19.2879 4.47445 19.6548 5.00005L16.9148 7.61005L16.5648 9.84005L12.9548 11Z" fill="#B6915D"/>
<path d="M33.9748 41H10.5548C9.65213 41.0026 8.78735 41.3631 8.15001 42.0023C7.51268 42.6415 7.15478 43.5073 7.15479 44.41C7.15479 45.2056 7.47086 45.9687 8.03346 46.5313C8.59607 47.0939 9.35914 47.41 10.1548 47.41H35.2348" stroke="#B6915D" stroke-linecap="round" stroke-linejoin="round"/>
<path d="M28.2647 28.51V28.79C28.2661 29.0679 28.2124 29.3434 28.107 29.6005C28.0016 29.8577 27.8463 30.0915 27.6503 30.2885C27.4542 30.4855 27.2212 30.6418 26.9645 30.7484C26.7079 30.8551 26.4327 30.91 26.1547 30.91H22.2147C21.939 30.9087 21.6656 30.9617 21.4103 31.066C21.155 31.1703 20.9228 31.3239 20.7269 31.518C20.5309 31.7121 20.3752 31.9428 20.2684 32.1971C20.1617 32.4514 20.106 32.7242 20.1047 33C20.1047 33.5596 20.327 34.0963 20.7227 34.492C21.1184 34.8877 21.6551 35.11 22.2147 35.11H31.5047" stroke="#B6915D" stroke-miterlimit="10"/>
<path d="M31.2948 28.4301H19.3848" stroke="black" stroke-linecap="round" stroke-linejoin="round"/>
<path d="M7.17473 28.4301H3.34473" stroke="black" stroke-linecap="round" stroke-linejoin="round"/>
<path d="M50.6749 28.4301H47.4749" stroke="black" stroke-linecap="round" stroke-linejoin="round"/>
<path d="M26.4249 10H25.5649C25.5698 9.93013 25.5698 9.85996 25.5649 9.79004C25.5938 9.17125 25.4969 8.55302 25.2801 7.97275C25.0632 7.39248 24.7309 6.86224 24.3032 6.41409C23.8755 5.96595 23.3614 5.60922 22.7919 5.36549C22.2224 5.12176 21.6093 4.99609 20.9899 4.99609C20.3704 4.99609 19.7574 5.12176 19.1879 5.36549C18.6184 5.60922 18.1042 5.96595 17.6766 6.41409C17.2489 6.86224 16.9166 7.39248 16.6997 7.97275C16.4828 8.55302 16.3859 9.17125 16.4149 9.79004C16.4149 9.86004 16.4149 9.93004 16.4149 10H15.4149C14.9999 10 14.589 10.0818 14.2056 10.2406C13.8222 10.3994 13.4739 10.6322 13.1804 10.9256C12.887 11.219 12.6542 11.5674 12.4954 11.9508C12.3366 12.3342 12.2549 12.7451 12.2549 13.16C12.2549 13.575 12.3366 13.9859 12.4954 14.3693C12.6542 14.7527 12.887 15.1011 13.1804 15.3945C13.4739 15.6879 13.8222 15.9207 14.2056 16.0795C14.589 16.2383 14.9999 16.32 15.4149 16.32H26.4249C26.8399 16.32 27.2508 16.2383 27.6342 16.0795C28.0176 15.9207 28.3659 15.6879 28.6593 15.3945C28.9528 15.1011 29.1855 14.7527 29.3443 14.3693C29.5031 13.9859 29.5849 13.575 29.5849 13.16C29.5849 12.7451 29.5031 12.3342 29.3443 11.9508C29.1855 11.5674 28.9528 11.219 28.6593 10.9256C28.3659 10.6322 28.0176 10.3994 27.6342 10.2406C27.2508 10.0818 26.8399 10 26.4249 10Z" stroke="black" stroke-linecap="round" stroke-linejoin="round"/>
<path d="M15.3049 36H11.7449C11.7449 36 11.7449 35.91 11.7449 35.87C11.7019 35.1473 11.3845 34.4682 10.8576 33.9716C10.3306 33.475 9.63391 33.1985 8.90985 33.1985C8.1858 33.1985 7.48909 33.475 6.96214 33.9716C6.43519 34.4682 6.1178 35.1473 6.07485 35.87C6.07485 35.87 6.07485 35.95 6.07485 36H3.97485" stroke="black" stroke-linecap="round" stroke-linejoin="round"/>
<path d="M39.3848 16.09H39.3748C34.9952 16.09 31.4448 19.6403 31.4448 24.02V34.89C31.4448 39.2696 34.9952 42.82 39.3748 42.82H39.3848C43.7644 42.82 47.3148 39.2696 47.3148 34.89V24.02C47.3148 19.6403 43.7644 16.09 39.3848 16.09Z" stroke="black" stroke-linecap="round" stroke-linejoin="round"/>
<path d="M39.6748 46.76V22.21" stroke="black" stroke-linecap="round" stroke-linejoin="round"/>
<path d="M39.7349 36.61L42.1849 33.21" stroke="black" stroke-linecap="round" stroke-linejoin="round"/>
<path d="M13.1548 35.92V28.17L15.5348 26.17" stroke="black" stroke-linecap="round" stroke-linejoin="round"/>
<path d="M13.1048 28.5L11.1548 25.79" stroke="black" stroke-linecap="round" stroke-linejoin="round"/>
<path d="M13.2248 32.07C16.8423 32.07 19.7748 29.1374 19.7748 25.52C19.7748 21.9025 16.8423 18.97 13.2248 18.97C9.60734 18.97 6.6748 21.9025 6.6748 25.52C6.6748 29.1374 9.60734 32.07 13.2248 32.07Z" stroke="black" stroke-linecap="round" stroke-linejoin="round"/>
</svg>
