<svg width="24" height="24" viewBox="0 0 24 24" fill="none" xmlns="http://www.w3.org/2000/svg">
<path d="M6.44 8.50488H17.55C21.11 8.50488 22 9.38488 22 12.8949V17.1049C22 20.6149 21.11 21.4949 17.56 21.4949H6.44C2.89 21.5049 2 20.6249 2 17.1149V12.8949C2 9.38488 2.89 8.50488 6.44 8.50488Z" stroke="#828897" stroke-width="1.5" stroke-linecap="round" stroke-linejoin="round"/>
<path d="M19 8.10488V5.89488C19 2.38488 18.11 1.50488 14.55 1.50488H9.44C5.89 1.50488 5 2.38488 5 5.89488V8.11488" stroke="#828897" stroke-width="1.5" stroke-linecap="round" stroke-linejoin="round"/>
<path d="M5.43994 12H10.5499" stroke="#828897" stroke-width="1.5" stroke-linecap="round" stroke-linejoin="round"/>
<path d="M19 21.125V20.2748C19 16.7648 18.11 15.8848 14.55 15.8848H11.44C7.89 15.8848 7 16.7648 7 20.2748V21.4948" stroke="#828897" stroke-width="1.5" stroke-linecap="square" stroke-linejoin="round"/>
</svg>
