<svg width="52" height="52" viewBox="0 0 52 52" fill="none" xmlns="http://www.w3.org/2000/svg">
<path d="M6.29004 47H47.94" stroke="#1D1D1B" stroke-linecap="round" stroke-linejoin="round"/>
<path d="M21.1501 35.66V5.54004H45.7301V46.72" stroke="#1D1D1B" stroke-width="0.89" stroke-linecap="round" stroke-linejoin="round"/>
<path d="M42.7301 46.72V8.54004H24.1501V38.65" stroke="#1D1D1B" stroke-width="0.89" stroke-linecap="round" stroke-linejoin="round"/>
<path d="M42.3101 27.16H38.3701" stroke="#1D1D1B" stroke-width="0.89" stroke-linecap="round" stroke-linejoin="round"/>
<path d="M33.44 17.7C34.2188 17.7 34.85 17.0687 34.85 16.29C34.85 15.5113 34.2188 14.88 33.44 14.88C32.6613 14.88 32.03 15.5113 32.03 16.29C32.03 17.0687 32.6613 17.7 33.44 17.7Z" stroke="#1D1D1B" stroke-width="0.89" stroke-linecap="round" stroke-linejoin="round"/>
<path d="M17.32 15.75C17.3387 16.005 17.3047 16.2612 17.2199 16.5025C17.1352 16.7438 17.0016 16.965 16.8275 17.1524C16.6534 17.3397 16.4426 17.4892 16.2082 17.5913C15.9737 17.6935 15.7207 17.7463 15.465 17.7463C15.2092 17.7463 14.9562 17.6935 14.7218 17.5913C14.4874 17.4892 14.2765 17.3397 14.1024 17.1524C13.9283 16.965 13.7948 16.7438 13.71 16.5025C13.6253 16.2612 13.5912 16.005 13.61 15.75V11.48" stroke="#1D1D1B" stroke-linecap="round" stroke-linejoin="round"/>
<path d="M11.11 15.75C11.1288 16.005 11.0947 16.2612 11.01 16.5025C10.9252 16.7438 10.7917 16.965 10.6176 17.1524C10.4435 17.3397 10.2326 17.4892 9.9982 17.5913C9.76376 17.6935 9.51076 17.7463 9.25502 17.7463C8.99928 17.7463 8.74628 17.6935 8.51184 17.5913C8.2774 17.4892 8.06655 17.3397 7.89247 17.1524C7.71838 16.965 7.5848 16.7438 7.50007 16.5025C7.41534 16.2612 7.38128 16.005 7.40002 15.75V11.48" stroke="#1D1D1B" stroke-linecap="round" stroke-linejoin="round"/>
<path d="M25.7101 38C25.1971 37.99 24.6873 38.0817 24.2101 38.27C20.6401 31.19 20.8701 31.61 20.8301 31.57C20.7218 31.2279 20.5074 30.9291 20.2179 30.7169C19.9284 30.5048 19.579 30.3903 19.2201 30.39H17.7601C17.6275 30.39 17.5003 30.4427 17.4065 30.5365C17.3128 30.6302 17.2601 30.7574 17.2601 30.89C17.2601 31.0226 17.3128 31.1498 17.4065 31.2436C17.5003 31.3373 17.6275 31.39 17.7601 31.39H19.2201C19.412 31.39 19.5961 31.4655 19.7328 31.6003C19.8694 31.735 19.9474 31.9181 19.9501 32.11C19.9528 32.2066 19.9358 32.3028 19.9001 32.3926C19.8644 32.4824 19.8108 32.564 19.7424 32.6324C19.6741 32.7007 19.5925 32.7544 19.5027 32.7901C19.4128 32.8258 19.3167 32.8428 19.2201 32.84H17.7601C17.6275 32.84 17.5003 32.8927 17.4065 32.9865C17.3128 33.0802 17.2601 33.2074 17.2601 33.34C17.2601 33.4726 17.3128 33.5998 17.4065 33.6936C17.5003 33.7873 17.6275 33.84 17.7601 33.84H19.2201C19.4691 33.8451 19.7159 33.7927 19.9414 33.6869C20.1668 33.5811 20.3649 33.4248 20.5201 33.23L21.5201 35.28H12.2201C12.0282 35.28 11.844 35.2045 11.7074 35.0698C11.5708 34.935 11.4927 34.7519 11.4901 34.56C11.4872 34.4638 11.5043 34.3681 11.5401 34.2788C11.5759 34.1895 11.6297 34.1085 11.6982 34.041C11.7667 33.9734 11.8484 33.9207 11.9382 33.8861C12.028 33.8515 12.1239 33.8359 12.2201 33.84H13.6401C13.7727 33.84 13.8999 33.7873 13.9936 33.6936C14.0874 33.5998 14.1401 33.4726 14.1401 33.34C14.1401 33.2074 14.0874 33.0802 13.9936 32.9865C13.8999 32.8927 13.7727 32.84 13.6401 32.84H12.2201C11.9892 32.8222 11.7572 32.8522 11.5385 32.9283C11.3198 33.0044 11.1192 33.1249 10.9493 33.2821C10.7794 33.4394 10.6438 33.6301 10.5511 33.8423C10.4584 34.0544 10.4106 34.2835 10.4106 34.515C10.4106 34.7465 10.4584 34.9756 10.5511 35.1877C10.6438 35.3999 10.7794 35.5906 10.9493 35.7479C11.1192 35.9052 11.3198 36.0256 11.5385 36.1017C11.7572 36.1778 11.9892 36.2079 12.2201 36.19H13.0001L12.2701 38.19C11.4213 38.0016 10.5353 38.075 9.72902 38.4004C8.92275 38.7258 8.23407 39.2879 7.75382 40.0127C7.27356 40.7375 7.02431 41.5909 7.03894 42.4602C7.05357 43.3295 7.33139 44.174 7.83575 44.8822C8.34011 45.5905 9.04732 46.1291 9.86408 46.4272C10.6808 46.7253 11.5688 46.7688 12.4108 46.552C13.2528 46.3351 14.0092 45.8681 14.5804 45.2126C15.1515 44.557 15.5106 43.7438 15.6101 42.88H17.1501C17.2558 43.2917 17.4944 43.6569 17.8289 43.9191C18.1634 44.1813 18.5751 44.3257 19.0001 44.33C19.3956 44.3323 19.782 44.2111 20.1053 43.9834C20.4287 43.7556 20.6729 43.4326 20.8039 43.0594C20.9349 42.6862 20.9462 42.2814 20.8362 41.9015C20.7261 41.5215 20.5003 41.1854 20.1901 40.94L22.3401 36.83L23.3401 38.83C22.7311 39.2089 22.2283 39.736 21.8785 40.3621C21.5287 40.9882 21.3435 41.6928 21.3401 42.41C21.3401 43.5611 21.7973 44.665 22.6112 45.4789C23.4251 46.2928 24.529 46.75 25.6801 46.75C26.8311 46.75 27.935 46.2928 28.7489 45.4789C29.5628 44.665 30.0201 43.5611 30.0201 42.41C30.0103 41.2606 29.5562 40.1595 28.7527 39.3375C27.9493 38.5154 26.859 38.0361 25.7101 38ZM13.8401 36.57L17.5301 41C17.3273 41.2302 17.1802 41.5039 17.1001 41.8H15.5701C15.4811 41.082 15.2165 40.397 14.7996 39.8057C14.3827 39.2144 13.8264 38.735 13.1801 38.41L13.8401 36.57ZM12.8401 39.35C13.3065 39.5949 13.7089 39.9461 14.0146 40.3751C14.3203 40.8042 14.5209 41.2991 14.6001 41.82H12.0001L12.8401 39.35ZM11.3001 45.63C10.8321 45.6274 10.3698 45.5267 9.94314 45.3345C9.51644 45.1422 9.13475 44.8627 8.82267 44.514C8.51059 44.1652 8.27504 43.755 8.13121 43.3096C7.98738 42.8643 7.93846 42.3937 7.9876 41.9283C8.03674 41.4629 8.18285 41.013 8.41651 40.6075C8.65017 40.202 8.9662 39.8499 9.34423 39.5741C9.72226 39.2982 10.1539 39.1046 10.6113 39.0057C11.0688 38.9068 11.5418 38.9049 12.0001 39L10.8901 42.12C10.8622 42.1936 10.8528 42.2728 10.8628 42.3508C10.8727 42.4289 10.9017 42.5032 10.9471 42.5674C10.9925 42.6316 11.053 42.6837 11.1233 42.719C11.1936 42.7543 11.2714 42.7718 11.3501 42.77H14.6901C14.5589 43.5727 14.1452 44.302 13.5236 44.8265C12.9019 45.3509 12.1134 45.6359 11.3001 45.63ZM19.0001 43.23C18.8002 43.2298 18.605 43.1696 18.4397 43.0574C18.2743 42.9451 18.1464 42.7859 18.0724 42.6002C17.9984 42.4146 17.9817 42.211 18.0245 42.0158C18.0673 41.8206 18.1677 41.6427 18.3126 41.505C18.4575 41.3674 18.6403 41.2763 18.8374 41.2435C19.0346 41.2108 19.2371 41.2379 19.4187 41.3213C19.6003 41.4047 19.7528 41.5406 19.8564 41.7115C19.96 41.8824 20.0101 42.0804 20.0001 42.28C19.9872 42.5365 19.8762 42.7782 19.6901 42.955C19.5039 43.1319 19.2568 43.2303 19.0001 43.23ZM19.3001 40.41C18.9654 40.3513 18.6212 40.3788 18.3001 40.49L14.6901 36.11H21.5301L19.3001 40.41ZM25.7201 45.63C24.8288 45.6301 23.9736 45.2781 23.3406 44.6507C22.7076 44.0233 22.348 43.1712 22.3401 42.28C22.3408 41.7387 22.4744 41.2059 22.7289 40.7282C22.9834 40.2505 23.3512 39.8425 23.8001 39.54L25.3001 42.47C25.3437 42.5442 25.4048 42.6066 25.4779 42.6519C25.5511 42.6972 25.6342 42.724 25.7201 42.73C25.8 42.729 25.8784 42.708 25.9481 42.669C26.0178 42.6299 26.0767 42.5741 26.1194 42.5066C26.1621 42.4391 26.1873 42.3619 26.1927 42.2822C26.198 42.2025 26.1834 42.1227 26.1501 42.05L24.6501 39.12C25.1084 38.9679 25.5943 38.9171 26.0742 38.9709C26.5541 39.0247 27.0166 39.182 27.4299 39.4318C27.8431 39.6816 28.1973 40.0181 28.468 40.418C28.7387 40.818 28.9194 41.2718 28.9977 41.7484C29.076 42.2249 29.0501 42.7127 28.9217 43.1782C28.7932 43.6438 28.5654 44.0759 28.2539 44.4449C27.9423 44.8139 27.5544 45.1109 27.117 45.3155C26.6796 45.5201 26.203 45.6274 25.7201 45.63Z" fill="#B6915D"/>
</svg>
