<svg width="124" height="164" viewBox="0 0 124 164" fill="none" xmlns="http://www.w3.org/2000/svg">
<g clip-path="url(#clip0_4592_65391)">
<path d="M1.91659 114.382C1.53068 114.135 1.21539 113.793 1.00159 113.388C0.776985 112.957 0.623746 112.492 0.547839 112.012C0.462323 111.481 0.419686 110.944 0.42034 110.407V107.208C0.412527 106.699 0.455234 106.19 0.547839 105.689C0.562346 105.535 0.610525 105.387 0.68895 105.254C0.767376 105.121 0.874123 105.007 1.00159 104.92C1.21909 104.812 1.52284 104.883 1.91659 105.134C2.25766 105.353 2.54174 105.65 2.74534 106C2.95777 106.365 3.10617 106.763 3.18409 107.178C3.27946 107.672 3.32469 108.175 3.31909 108.678V109.375L2.56909 108.903V108.25C2.56909 107.913 2.56909 107.609 2.53909 107.339C2.52339 107.096 2.46632 106.858 2.37034 106.634C2.26982 106.423 2.10944 106.245 1.90909 106.124C1.69159 105.982 1.53409 105.955 1.42909 106.045C1.30459 106.192 1.23557 106.378 1.23409 106.57C1.20133 106.885 1.18631 107.202 1.18909 107.519V111.112C1.18389 111.488 1.20645 111.864 1.25659 112.237C1.28941 112.486 1.3669 112.727 1.48534 112.949C1.58925 113.127 1.73461 113.278 1.90909 113.388C2.11909 113.523 2.28409 113.545 2.36284 113.452C2.47438 113.301 2.53482 113.118 2.53534 112.93C2.55784 112.675 2.56909 112.368 2.56909 112.012V111.34L3.31909 111.813V112.484C3.32751 112.947 3.28602 113.41 3.19534 113.864C3.17972 114.007 3.13343 114.144 3.05963 114.267C2.98584 114.39 2.88629 114.496 2.76784 114.577C2.55784 114.682 2.28409 114.625 1.91659 114.382ZM4.19659 115.747V106.679L6.35284 108.063V109L4.97284 108.112V111.112L6.09784 111.832V112.75L4.97284 112.03V115.357L6.36409 116.249V117.157L4.19659 115.747ZM7.11409 117.622L7.21534 108.622L7.96534 109.113L8.94784 117.097L9.93784 110.377L10.6878 110.864L10.7891 119.995L10.1666 119.594L10.1028 112.975L9.16534 118.949L8.72659 118.668L7.80784 111.483L7.74409 118.027L7.11409 117.622ZM11.7941 120.622V111.562L13.9503 112.945V113.875L12.5703 112.99V115.99L13.6953 116.71V117.625L12.5703 116.905V120.232L13.9616 121.128V122.032L11.7941 120.622ZM14.7228 122.497V113.444L15.4991 113.943V117.862L16.9278 118.777V114.862L17.7041 115.36V124.424L16.9278 123.925V119.684L15.4991 118.769V123.01L14.7228 122.497ZM20.1341 126.074C19.7638 125.838 19.4552 125.516 19.2341 125.137C18.998 124.724 18.8356 124.274 18.7541 123.805C18.6529 123.259 18.6039 122.704 18.6078 122.148V118.713C18.595 118.227 18.6455 117.742 18.7579 117.269C18.7774 117.126 18.8312 116.99 18.9148 116.873C18.9984 116.755 19.1093 116.659 19.2379 116.594C19.3951 116.562 19.5575 116.566 19.7129 116.607C19.8682 116.647 20.0123 116.722 20.1341 116.827C20.4995 117.057 20.8043 117.372 21.0228 117.745C21.253 118.147 21.4151 118.584 21.5028 119.039C21.6048 119.575 21.6538 120.121 21.6491 120.667V124.113C21.6603 124.601 21.6112 125.088 21.5028 125.564C21.481 125.712 21.4266 125.853 21.3436 125.978C21.2606 126.102 21.1511 126.207 21.0228 126.284C20.8053 126.4 20.5091 126.329 20.1341 126.089V126.074ZM20.1341 125.077C20.3366 125.208 20.5091 125.238 20.5991 125.17C20.7265 125.056 20.8033 124.895 20.8128 124.724C20.8508 124.444 20.8684 124.162 20.8654 123.88V119.905C20.8667 119.605 20.8492 119.304 20.8128 119.005C20.7825 118.762 20.7102 118.526 20.5991 118.308C20.4895 118.105 20.3293 117.935 20.1341 117.813C19.9278 117.678 19.7591 117.644 19.6616 117.704C19.5976 117.755 19.5454 117.82 19.5085 117.893C19.4716 117.966 19.4509 118.046 19.4478 118.128C19.4063 118.402 19.3875 118.679 19.3916 118.957V122.932C19.3896 123.237 19.4084 123.543 19.4478 123.847C19.4765 124.097 19.5488 124.341 19.6616 124.567C19.7693 124.781 19.9324 124.962 20.1341 125.092V125.077ZM22.5491 127.525V118.473L23.8241 119.294C24.0671 119.448 24.2879 119.635 24.4803 119.849C24.6671 120.063 24.8224 120.303 24.9416 120.562C25.0708 120.844 25.164 121.141 25.2191 121.447C25.2783 121.801 25.3072 122.16 25.3054 122.519C25.3123 122.825 25.2846 123.131 25.2229 123.43C25.1931 123.615 25.1004 123.783 24.9603 123.907C24.8917 123.945 24.8142 123.966 24.7354 123.966C24.6565 123.966 24.579 123.945 24.5104 123.907C24.7323 124.124 24.9161 124.378 25.0541 124.657C25.1954 124.961 25.2974 125.282 25.3578 125.613C25.4285 126.001 25.4624 126.396 25.4591 126.79C25.462 127.128 25.4344 127.466 25.3766 127.799C25.3432 128.034 25.2545 128.258 25.1179 128.452C25.0664 128.522 24.9995 128.58 24.9221 128.621C24.8448 128.662 24.7591 128.685 24.6716 128.688C24.4402 128.675 24.2175 128.596 24.0304 128.459L22.5491 127.525ZM23.3253 122.74L23.7829 123.037C23.9278 123.166 24.1134 123.242 24.3078 123.25C24.4316 123.228 24.5216 123.119 24.5704 122.928C24.6276 122.658 24.6528 122.382 24.6453 122.107C24.6572 121.775 24.618 121.444 24.5291 121.124C24.4554 120.899 24.3265 120.697 24.1541 120.535C23.9535 120.355 23.7377 120.191 23.5091 120.048L23.3253 119.932V122.74ZM23.3253 127.117L23.8466 127.45C24.1916 127.675 24.4241 127.69 24.5403 127.503C24.6914 127.132 24.7518 126.731 24.7166 126.333C24.721 125.992 24.6896 125.651 24.6228 125.317C24.5721 125.044 24.473 124.782 24.3303 124.544C24.191 124.324 24.0039 124.138 23.7829 124L23.3253 123.708V127.117ZM27.6828 130.934C27.2955 130.691 26.9797 130.349 26.7678 129.944C26.5416 129.514 26.3883 129.048 26.3141 128.568C26.2269 128.037 26.1842 127.5 26.1866 126.963V123.76C26.1769 123.251 26.2196 122.742 26.3141 122.242C26.3295 122.091 26.3782 121.945 26.4566 121.816C26.5351 121.686 26.6414 121.575 26.7678 121.492C26.9816 121.379 27.2891 121.45 27.6828 121.705C28.0213 121.917 28.3042 122.206 28.5079 122.549C28.7229 122.912 28.8714 123.311 28.9466 123.727C29.0416 124.221 29.0868 124.723 29.0816 125.227V125.943L28.3316 125.47V124.833C28.3316 124.499 28.3316 124.195 28.3016 123.925C28.289 123.681 28.2318 123.441 28.1329 123.217C28.0337 123.006 27.8745 122.83 27.6754 122.71C27.4541 122.568 27.3004 122.542 27.1954 122.628C27.07 122.774 26.9998 122.96 26.9966 123.153C26.9653 123.469 26.9515 123.787 26.9553 124.105V127.698C26.9504 128.074 26.973 128.45 27.0228 128.823C27.0534 129.071 27.1297 129.311 27.2478 129.532C27.3529 129.711 27.4995 129.863 27.6754 129.974C27.8854 130.109 28.0503 130.128 28.1253 130.034C28.2391 129.884 28.2998 129.701 28.2979 129.513C28.3204 129.258 28.3316 128.954 28.3316 128.594V127.923L29.0816 128.395V129.067C29.09 129.53 29.0485 129.992 28.9578 130.447C28.9434 130.589 28.898 130.727 28.8248 130.85C28.7516 130.973 28.6524 131.078 28.5341 131.159C28.3241 131.234 28.0578 131.17 27.6828 130.934ZM29.9591 132.299V123.25L30.7354 123.749V127.75L31.0241 127.934L32.0216 124.559L32.7941 125.058L31.6991 128.662L32.9329 134.212L32.1566 133.713L31.0316 128.568L30.7354 128.38V132.802L29.9591 132.299ZM33.2816 134.433L34.4628 126.127L35.2128 126.607L36.4016 136.435L35.6516 135.967L35.4003 133.518L34.2753 132.79L34.0053 134.902L33.2816 134.433ZM34.3803 131.95L35.3066 132.547L34.8416 128.159L34.3803 131.95ZM36.7541 136.664L37.9203 133.342C37.6524 132.954 37.4521 132.524 37.3279 132.07C37.1718 131.504 37.0973 130.918 37.1066 130.33C37.0939 129.929 37.1484 129.529 37.2679 129.145C37.3028 129.014 37.3725 128.896 37.4695 128.801C37.5666 128.707 37.6874 128.64 37.8191 128.609C38.1912 128.589 38.5574 128.708 38.8466 128.943L39.9716 129.667V138.734L39.1916 138.25V134.5L38.7528 134.219L38.6629 134.155L38.5729 134.092L37.6129 137.249L36.7541 136.664ZM38.9104 133.383L39.1991 133.567V130.075L38.8879 129.877C38.5429 129.655 38.2804 129.61 38.1041 129.742C37.9279 129.873 37.8378 130.225 37.8378 130.792C37.822 131.331 37.9046 131.868 38.0816 132.378C38.2388 132.791 38.5273 133.142 38.9029 133.375L38.9104 133.383ZM42.6829 140.478V131.41L43.4591 131.909V135.828L44.8879 136.743V132.828L45.6641 133.323V142.375L44.8879 141.877V137.65L43.4516 136.75V140.995L42.6829 140.478ZM46.3691 142.844L47.5579 134.538L48.3079 135.018L49.4929 144.847L48.7429 144.378L48.4916 141.929L47.3666 141.202L47.0966 143.313L46.3691 142.844ZM47.4679 140.362L48.3941 140.958L47.9329 136.57L47.4679 140.362ZM50.1829 145.297V136.233L52.5716 137.767V138.685L50.9591 137.647V140.5L51.1279 140.613C51.506 140.847 51.844 141.141 52.1291 141.483C52.4044 141.832 52.6048 142.234 52.7179 142.664C52.8607 143.231 52.9263 143.815 52.9129 144.4C52.9206 144.778 52.8866 145.155 52.8116 145.525C52.7706 145.759 52.6594 145.975 52.4929 146.144C52.4181 146.206 52.3302 146.249 52.2359 146.271C52.1416 146.293 52.0434 146.294 51.9491 146.272C51.669 146.207 51.4042 146.088 51.1691 145.923L50.1829 145.297ZM50.9591 144.892L51.1766 145.03C51.3445 145.152 51.5384 145.233 51.7429 145.267C51.8929 145.267 52.0016 145.177 52.0729 144.97C52.159 144.626 52.1943 144.271 52.1779 143.917C52.1974 143.421 52.1249 142.927 51.9641 142.458C51.7957 142.078 51.5141 141.76 51.1579 141.547L50.9591 141.419V144.892ZM53.7116 147.565V138.498L55.8641 139.885V140.823L54.4841 139.938V142.938L55.6091 143.658V144.55L54.4841 143.834V147.157L55.8791 148.053V148.96L53.7116 147.565ZM56.6404 149.44V140.38L58.0204 141.269C58.3454 141.474 58.6187 141.751 58.8191 142.079C59.0269 142.427 59.174 142.807 59.2541 143.204C59.3516 143.679 59.3981 144.163 59.3929 144.648C59.4051 145.035 59.3532 145.421 59.2391 145.792C59.2099 145.908 59.1531 146.016 59.0735 146.106C58.9939 146.196 58.8938 146.266 58.7816 146.309C58.6496 146.331 58.5146 146.324 58.3854 146.29C58.2561 146.256 58.1356 146.194 58.0316 146.11L57.4204 145.717V149.935L56.6404 149.44ZM57.4166 144.813L57.7916 145.042C57.9453 145.16 58.1279 145.235 58.3204 145.259C58.4479 145.259 58.5379 145.173 58.5941 145.004C58.6607 144.738 58.6885 144.464 58.6766 144.19C58.6817 143.844 58.663 143.499 58.6204 143.155C58.5892 142.927 58.5058 142.709 58.3766 142.518C58.2152 142.317 58.0197 142.145 57.7991 142.012L57.4241 141.779L57.4166 144.813ZM60.0716 151.645V142.589L62.2279 143.973V144.914L60.8479 144.025V147.025L61.9729 147.745V148.642L60.8479 147.922V151.248L62.2391 152.14V153.048L60.0716 151.645ZM62.5991 153.269L63.8891 149.467L62.7266 144.288L63.4766 144.768L64.5191 149.815L64.5604 149.842V145.473L65.2204 145.897V150.273L65.2654 150.303L66.3041 146.594L67.0541 147.078L65.8879 150.76L67.1854 156.228L66.4354 155.74L65.2804 150.464L65.2279 150.43V154.964L64.5679 154.54V150.007L64.5191 149.973L63.3604 153.764L62.5991 153.269ZM67.7741 156.625V147.539L68.5579 148.038V151.957L69.9866 152.875V148.957L70.7629 149.455V158.523L69.9866 158.024V153.783L68.5579 152.875V157.117L67.7741 156.625ZM71.4604 158.995L72.6416 150.685L73.3916 151.169L74.5804 160.998L73.8304 160.525L73.5754 158.08L72.4504 157.353L72.1804 159.464L71.4604 158.995ZM72.5591 156.509L73.4854 157.105L73.0204 152.722L72.5591 156.509ZM74.9329 161.208L76.0991 157.885C75.8305 157.498 75.6301 157.069 75.5066 156.614C75.3506 156.048 75.2761 155.462 75.2854 154.874C75.273 154.472 75.3274 154.07 75.4466 153.685C75.4815 153.554 75.5512 153.436 75.6483 153.341C75.7453 153.247 75.8661 153.18 75.9979 153.149C76.3704 153.13 76.7367 153.25 77.0254 153.487L78.1504 154.21V163.278L77.3779 162.779V159.029L76.9391 158.748L76.8491 158.684L76.7591 158.62L75.7991 161.774L74.9329 161.208ZM77.0891 157.927L77.3779 158.11V154.619L77.0666 154.42C76.7216 154.195 76.4591 154.15 76.2829 154.285C76.1066 154.42 76.0166 154.769 76.0166 155.335C76.0015 155.874 76.0828 156.411 76.2566 156.922C76.4183 157.338 76.7103 157.69 77.0891 157.927Z" fill="black"/>
</g>
<g clip-path="url(#clip1_4592_65391)">
<path d="M107.91 84.8785C107.877 84.5768 107.791 84.2834 107.655 84.0122L99.0298 67.0022C98.6548 66.2522 97.9048 65.6935 96.8248 65.3672C95.7037 65.0509 94.5256 64.9919 93.3785 65.1947C92.5259 65.3243 91.7016 65.5983 90.941 66.0047L73.0835 75.9347C71.3098 76.921 70.2823 78.2935 70.2598 79.7072V134.682H70.2898C70.4398 135.713 71.1298 136.625 72.2773 137.307L86.1185 145.253C87.4763 145.972 88.9965 146.329 90.5323 146.288C91.5076 146.286 92.4793 146.169 93.4273 145.94L103.552 143.498C105.547 143.015 107.085 141.972 107.677 140.708C107.762 140.528 107.826 140.338 107.869 140.142H107.929V84.8785H107.91Z" fill="white"/>
<path d="M70.2635 79.6922V87.7022C70.286 87.6197 70.3123 87.5372 70.3273 87.4509H70.3685V78.9459C70.3007 79.1903 70.2642 79.4423 70.2598 79.6959L70.2635 79.6922Z" fill="#D8D8D8"/>
<path d="M52.9873 58.4072C52.9873 58.4072 52.9873 58.3734 52.9873 58.3547C52.961 57.3309 53.5873 56.3522 54.7535 55.5984L70.3685 45.5034V32.0822H70.3198C70.1618 31.4009 69.7501 30.8055 69.1685 30.4172L62.936 25.8947C62.066 25.2647 60.6861 24.9947 59.2648 25.1784L24.5061 29.6334C21.7761 29.9822 19.6311 31.3622 19.1773 33.0684C19.0955 33.3803 19.0764 33.7054 19.1211 34.0247H19.0911V88.6284H19.1323C19.2733 89.3439 19.6842 89.9777 20.2798 90.3984L35.0211 101.648C35.9923 102.398 37.4398 102.773 38.9773 102.773C40.3214 102.777 41.6505 102.491 42.8735 101.933L52.976 97.1897V58.4072H52.9873Z" fill="white"/>
<path d="M93.3748 56.9109C93.3613 56.5783 93.2809 56.2518 93.1385 55.9509L86.6923 42.5034C86.2423 41.5659 85.2823 40.8647 83.9173 40.4784C82.6818 40.1602 81.3956 40.0888 80.1325 40.2683C78.8693 40.4479 77.654 40.8748 76.556 41.5247L70.3685 45.5034L54.746 55.5984C53.5798 56.3484 52.9535 57.3309 52.9798 58.3547C52.9798 58.3547 52.9798 58.3884 52.9798 58.4072V112.91C53.021 113.798 53.5648 114.593 54.5173 115.141L62.0173 119.465C63.1598 120.064 64.4365 120.361 65.726 120.327C66.4712 120.327 67.2142 120.246 67.9423 120.087L70.271 119.57V79.6922C70.2754 79.4386 70.312 79.1866 70.3798 78.9422C70.6835 77.8172 71.636 76.7259 73.0948 75.9159L90.9523 65.9859C91.7129 65.5795 92.5372 65.3056 93.3898 65.1759V56.9109H93.3748Z" fill="#D8D8D8"/>
<path d="M19.8597 87.8784C19.8279 88.2284 19.8929 88.5803 20.0477 88.8958C20.2024 89.2113 20.441 89.4781 20.7372 89.6672L35.4784 100.917C37.0572 102.121 40.2297 102.207 42.5584 101.112L53.8684 95.7722" stroke="black" stroke-width="1.5" stroke-miterlimit="10"/>
<path d="M20.7372 35.1572L35.4784 46.4072C37.0572 47.611 40.2297 47.6972 42.5584 46.6022L67.4997 34.891C69.7497 33.8372 70.2972 32.041 68.7334 30.9047L62.4934 26.3785C61.7809 25.861 60.5884 25.6285 59.3584 25.7972L24.6184 30.241C20.6622 30.7472 18.5209 33.466 20.7372 35.1572Z" stroke="black" stroke-width="1.5" stroke-miterlimit="10"/>
<path d="M107.175 139.707C107.119 140.975 105.619 142.253 103.369 142.782L93.2436 145.227C90.7873 145.82 88.1548 145.583 86.4936 144.62L72.6561 136.628C71.4823 135.95 70.9461 135.027 71.0211 134.075" stroke="black" stroke-width="1.5" stroke-miterlimit="10"/>
<path d="M98.3659 67.3285L106.991 84.3347C107.76 85.8347 106.143 87.616 103.387 88.2797L93.2622 90.7247C90.8059 91.3172 88.1734 91.0997 86.5122 90.1172L72.6559 82.1222C70.1847 80.6935 70.5447 78.1922 73.4509 76.576L91.3084 66.646C93.7684 65.2772 97.5109 65.641 98.3659 67.3285Z" stroke="black" stroke-width="1.5" stroke-miterlimit="10"/>
<path d="M107.175 84.8635V140.157" stroke="black" stroke-width="1.5" stroke-miterlimit="10"/>
<path d="M71.0134 79.6922V134.667" stroke="black" stroke-width="1.5" stroke-miterlimit="10"/>
<path d="M71.0136 118.748L67.9273 119.431C65.9473 119.866 63.8698 119.66 62.5386 118.891L55.0386 114.567C54.7278 114.421 54.4584 114.2 54.2548 113.924C54.0511 113.647 53.9197 113.325 53.8723 112.985" stroke="black" stroke-width="1.5" stroke-linecap="round" stroke-linejoin="round"/>
<path d="M88.8148 60.3085L67.9273 64.9285C65.9473 65.3635 63.8698 65.1572 62.5386 64.3885L55.0386 60.0685C53.3848 59.1122 53.4973 57.466 55.2936 56.3185L77.1186 42.2147C80.0848 40.2947 85.1098 40.6697 86.1711 42.886L92.6173 56.3522C93.3561 57.8972 91.6423 59.6822 88.8148 60.3085Z" stroke="black" stroke-width="1.5" stroke-miterlimit="10"/>
<path d="M53.8835 58.4822V112.985" stroke="black" stroke-width="1.5" stroke-miterlimit="10"/>
<path d="M92.7859 56.986V65.5097" stroke="black" stroke-width="1.5" stroke-linecap="round" stroke-linejoin="round"/>
<path d="M69.6223 31.9472V47.356" stroke="black" stroke-width="1.5" stroke-miterlimit="10"/>
<path d="M19.8447 33.8897V88.486" stroke="black" stroke-width="1.5" stroke-miterlimit="10"/>
</g>
<path d="M101.631 29.2482C101.152 28.9907 100.693 28.7025 100.257 28.3836C99.0371 27.4885 98.0009 26.3603 97.2161 25.0665C96.4313 23.7728 95.9101 22.3381 95.6771 20.842C95.5606 20.1062 95.5238 19.3643 95.5545 18.6224" stroke="#BA9566" stroke-width="0.613141" stroke-linecap="round" stroke-linejoin="round"/>
<path d="M117.45 24.0975C116.488 26.0841 114.967 27.7702 113.054 28.9352C111.098 30.1186 108.854 30.6888 106.604 30.5968" stroke="#BA9566" stroke-width="0.613141" stroke-linecap="round" stroke-linejoin="round"/>
<path d="M108.477 7.62914C103.517 7.04052 98.7773 9.73221 96.6865 14.1591" stroke="#818383" stroke-width="0.613141" stroke-linecap="round" stroke-linejoin="round"/>
<path d="M118.684 19.3642C118.794 14.6859 116.041 10.3755 111.755 8.5116" stroke="#818383" stroke-width="0.613141" stroke-linecap="round" stroke-linejoin="round"/>
<path d="M95.8835 17.6656C96.6254 17.733 97.2815 17.1628 97.3551 16.3841C97.4286 15.6054 96.8829 14.9187 96.141 14.8451C95.3991 14.7777 94.7431 15.3479 94.6695 16.1266C94.5959 16.9053 95.1416 17.592 95.8835 17.6656Z" fill="#BA9566"/>
<path d="M95.6088 17.9049C94.8424 17.7026 94.3151 16.9484 94.3887 16.1084C94.4316 15.6424 94.6462 15.2255 95.0018 14.9373C95.3329 14.6614 95.7498 14.5327 96.1668 14.5695C97.062 14.6553 97.718 15.483 97.6322 16.4089C97.5893 16.8749 97.3747 17.2918 97.0191 17.58C96.688 17.8559 96.271 17.9846 95.8541 17.9479C95.7682 17.9417 95.6824 17.9233 95.6027 17.9049H95.6088ZM96.2771 15.1581C96.2281 15.1458 96.1729 15.1335 96.1177 15.1274C95.848 15.1029 95.5782 15.1887 95.3636 15.3665C95.1306 15.5627 94.9834 15.8448 94.9528 16.1575C94.8976 16.7829 95.3268 17.3347 95.9154 17.3899C96.1852 17.4144 96.455 17.3286 96.6696 17.1508C96.9026 16.9546 97.0497 16.6725 97.0804 16.3598C97.1294 15.7957 96.7799 15.2868 96.2833 15.1581H96.2771Z" fill="#BA9566"/>
<path d="M107.21 20.0389C107.651 20.0818 108.044 19.7384 108.087 19.2724C108.129 18.8064 107.804 18.4018 107.363 18.3588C106.922 18.3159 106.529 18.6593 106.486 19.1253C106.443 19.5913 106.768 19.9959 107.21 20.0389Z" fill="#818383"/>
<path d="M107.044 20.1795C106.59 20.063 106.271 19.6093 106.32 19.1065C106.345 18.8306 106.474 18.5792 106.682 18.4075C106.878 18.242 107.124 18.1684 107.375 18.1868C107.908 18.2358 108.301 18.7263 108.252 19.2843C108.227 19.5602 108.099 19.8116 107.89 19.9833C107.694 20.1488 107.449 20.2224 107.197 20.1979C107.148 20.1979 107.099 20.1856 107.05 20.1734L107.044 20.1795ZM107.442 18.5424C107.412 18.5363 107.381 18.5301 107.344 18.524C107.185 18.5117 107.026 18.5608 106.897 18.665C106.756 18.7815 106.67 18.9471 106.652 19.1371C106.615 19.5112 106.872 19.8361 107.222 19.8729C107.381 19.8852 107.541 19.8361 107.669 19.7319C107.81 19.6154 107.896 19.4499 107.915 19.2598C107.945 18.9225 107.737 18.6221 107.436 18.5424H107.442Z" fill="#818383"/>
<path d="M118.042 23.1655C118.784 23.2329 119.44 22.6627 119.513 21.884C119.587 21.1053 119.041 20.4186 118.299 20.345C117.557 20.2776 116.901 20.8478 116.828 21.6265C116.76 22.4052 117.3 23.0919 118.042 23.1655Z" fill="white"/>
<path d="M117.768 23.4049C117.008 23.2087 116.474 22.4484 116.548 21.6084C116.591 21.1424 116.805 20.7255 117.161 20.4373C117.492 20.1614 117.909 20.0326 118.326 20.0694C119.221 20.1552 119.877 20.983 119.791 21.9149C119.748 22.3809 119.534 22.7979 119.178 23.086C118.847 23.362 118.43 23.4907 118.013 23.4539C117.927 23.4478 117.848 23.4294 117.768 23.411V23.4049ZM118.436 20.658C118.387 20.6457 118.332 20.6335 118.277 20.6273C118.007 20.6028 117.737 20.6887 117.523 20.8665C117.29 21.0627 117.143 21.3447 117.112 21.6574C117.057 22.2828 117.486 22.8347 118.075 22.8898C118.344 22.9144 118.614 22.8285 118.829 22.6507C119.062 22.4545 119.209 22.1725 119.239 21.8598C119.289 21.2957 118.945 20.7868 118.442 20.658H118.436Z" fill="#BA9566"/>
<path d="M109.466 9.8052L107.449 10.6452C107.1 10.7924 106.799 10.357 107.057 10.0811L110.165 6.79468C110.355 6.59235 110.699 6.68432 110.76 6.9541L111.839 11.3442C111.931 11.7121 111.453 11.9451 111.22 11.6446L109.883 9.91557C109.785 9.78681 109.613 9.74389 109.472 9.8052H109.466Z" fill="#020303"/>
<path d="M105.374 27.194L105.429 28.2977C105.435 28.3896 105.472 28.4755 105.527 28.5491C105.582 28.6226 105.662 28.6717 105.748 28.6962L106.821 28.9783C106.907 29.0089 106.98 29.058 107.029 29.1315C107.085 29.199 107.115 29.2848 107.121 29.3768C107.121 29.4688 107.103 29.5546 107.06 29.6282C107.017 29.7018 106.95 29.7631 106.87 29.7999L105.834 30.1984C105.748 30.2291 105.668 30.2904 105.613 30.364C105.564 30.4437 105.533 30.5356 105.533 30.6276L105.595 31.7374C105.595 31.8232 105.564 31.9091 105.515 31.9826C105.466 32.0562 105.392 32.1114 105.313 32.1421C105.233 32.1727 105.141 32.1789 105.055 32.1605C104.969 32.1421 104.89 32.0991 104.834 32.0317L104.135 31.1733C104.074 31.1059 103.994 31.0568 103.909 31.0323C103.823 31.0077 103.725 31.0139 103.639 31.0445L102.603 31.4431C102.517 31.4676 102.425 31.4676 102.345 31.4431C102.259 31.4186 102.186 31.3634 102.13 31.2959C102.075 31.2285 102.045 31.1426 102.032 31.0568C102.026 30.971 102.045 30.879 102.088 30.8054L102.695 29.8734C102.744 29.7999 102.762 29.7079 102.762 29.6159C102.762 29.5239 102.725 29.4381 102.67 29.3645L101.971 28.5C101.922 28.4264 101.897 28.3406 101.891 28.2547C101.891 28.1689 101.916 28.0831 101.965 28.0034C102.014 27.9298 102.081 27.8685 102.161 27.8378C102.241 27.801 102.333 27.7949 102.419 27.8072L103.492 28.0953C103.584 28.1199 103.669 28.1137 103.755 28.0769C103.841 28.0463 103.915 27.985 103.964 27.9114L104.565 26.9855C104.614 26.912 104.687 26.8507 104.779 26.82C104.865 26.7893 104.957 26.7832 105.043 26.8077C105.135 26.8323 105.208 26.8813 105.27 26.9488C105.331 27.0101 105.368 27.102 105.38 27.1879L105.374 27.194Z" fill="#BA9566"/>
<path d="M110.926 5.42139C110.608 5.33555 110.381 5.20679 110.24 5.02898C110.099 4.85117 110.025 4.63657 110.013 4.39744C110.001 4.15219 110.037 3.89467 110.105 3.61876L110.516 2.03685C110.595 1.73641 110.7 1.47889 110.822 1.27043C110.951 1.06196 111.116 0.920936 111.325 0.841228C111.533 0.761519 111.797 0.767651 112.116 0.847359C112.398 0.920936 112.606 1.0313 112.741 1.17845C112.876 1.32561 112.956 1.50342 112.98 1.71189C113.005 1.92036 112.98 2.16561 112.907 2.43539L112.815 2.79102L112.22 2.63773L112.3 2.3189C112.343 2.15335 112.373 2.0062 112.392 1.8713C112.41 1.74255 112.392 1.62605 112.331 1.54021C112.275 1.44824 112.159 1.38079 111.987 1.33787C111.809 1.28882 111.668 1.29495 111.57 1.35013C111.466 1.40532 111.386 1.49729 111.331 1.63218C111.276 1.76707 111.215 1.92036 111.166 2.11043L110.7 3.88854C110.638 4.1154 110.614 4.29934 110.614 4.44036C110.614 4.58139 110.651 4.69175 110.724 4.76533C110.792 4.84504 110.902 4.90022 111.043 4.93701C111.215 4.97993 111.343 4.9738 111.435 4.91861C111.527 4.86343 111.601 4.77146 111.656 4.6427C111.711 4.51394 111.76 4.36066 111.803 4.18285L111.889 3.85175L112.484 4.00503L112.398 4.33613C112.324 4.61204 112.232 4.83891 112.11 5.03511C111.987 5.22519 111.834 5.36008 111.638 5.43365C111.448 5.50723 111.202 5.50723 110.908 5.43365L110.926 5.42139Z" fill="#000100"/>
<path d="M102.79 38.0162C102.508 37.9427 102.3 37.8262 102.171 37.6667C102.042 37.5073 101.969 37.3111 101.957 37.0781C101.944 36.8451 101.981 36.5815 102.055 36.2933L102.214 35.674L101.717 35.5453L101.196 37.5503L100.626 37.4031L101.766 33.0253L102.337 33.1724L101.84 35.0793L102.337 35.2081L102.478 34.6624C102.551 34.3681 102.655 34.1289 102.772 33.9389C102.895 33.7488 103.048 33.6139 103.238 33.5464C103.428 33.479 103.667 33.479 103.949 33.5464C104.231 33.62 104.434 33.7365 104.568 33.8898C104.697 34.0431 104.771 34.2393 104.783 34.4662C104.795 34.693 104.765 34.9505 104.691 35.2387L104.268 36.8697C104.194 37.1517 104.096 37.397 103.968 37.5932C103.845 37.7894 103.686 37.9304 103.495 38.004C103.305 38.0837 103.066 38.0837 102.784 38.004L102.79 38.0162ZM102.913 37.538C103.066 37.5809 103.195 37.5748 103.293 37.5319C103.391 37.4889 103.471 37.4092 103.526 37.2927C103.587 37.1824 103.637 37.0413 103.679 36.8819L104.182 34.9628C104.225 34.8034 104.244 34.6562 104.25 34.5336C104.25 34.411 104.219 34.3067 104.158 34.2209C104.096 34.1351 103.986 34.0737 103.833 34.037C103.679 34.0002 103.551 34.0002 103.453 34.037C103.354 34.0799 103.275 34.1535 103.22 34.2638C103.158 34.3742 103.109 34.5091 103.066 34.6685L102.564 36.5876C102.521 36.747 102.496 36.8942 102.496 37.0229C102.496 37.1517 102.527 37.2621 102.588 37.3479C102.649 37.4338 102.76 37.5012 102.913 37.538Z" fill="#BA9566"/>
<path d="M91.2566 17.1571C91.0174 17.0958 90.8335 16.9977 90.6986 16.8689C90.5637 16.7402 90.4779 16.5746 90.4411 16.3845C90.4043 16.1945 90.4166 15.986 90.4779 15.753L90.5147 15.6058L91.0849 15.753C91.0849 15.753 91.0726 15.802 91.0665 15.8327C91.0604 15.8572 91.0542 15.8818 91.0542 15.9063C91.0113 16.0964 91.0113 16.2558 91.042 16.3968C91.0788 16.5317 91.1891 16.6237 91.3792 16.6727C91.5202 16.7095 91.6367 16.7034 91.7226 16.6543C91.8145 16.6053 91.8881 16.5256 91.9433 16.4091C91.9985 16.2926 92.0475 16.1577 92.0905 15.9983C92.1518 15.7714 92.1456 15.5691 92.0905 15.3912C92.0291 15.2134 91.8575 15.0785 91.5815 14.9866C91.5693 14.9804 91.5509 14.9743 91.5325 14.9682C91.5141 14.9682 91.4957 14.9559 91.4712 14.9498C91.4528 14.9498 91.4344 14.9375 91.416 14.9375L91.5386 14.4715C91.5386 14.4715 91.5693 14.4777 91.5877 14.4838C91.6061 14.4838 91.6245 14.4961 91.649 14.4961C91.6674 14.4961 91.6858 14.5022 91.698 14.5083C91.9801 14.5635 92.1885 14.539 92.3296 14.4409C92.4706 14.3428 92.5687 14.1772 92.63 13.9442C92.6791 13.748 92.6852 13.5763 92.6361 13.4353C92.5932 13.2943 92.4706 13.1962 92.2683 13.1471C92.0782 13.0981 91.9249 13.1226 91.8084 13.2207C91.6919 13.3188 91.6061 13.466 91.5386 13.6561C91.5386 13.6806 91.5264 13.699 91.5202 13.7235C91.5141 13.748 91.508 13.7726 91.5018 13.7971L90.9255 13.6438L90.9623 13.4966C91.0236 13.2636 91.1217 13.0736 91.2505 12.9326C91.3792 12.7915 91.5386 12.6934 91.7287 12.6505C91.9188 12.6015 92.1334 12.6137 92.3664 12.675C92.6055 12.7363 92.8017 12.8344 92.9427 12.9755C93.0837 13.1104 93.1818 13.2759 93.2248 13.466C93.2677 13.6561 93.2616 13.8707 93.2002 14.1036C93.1328 14.3673 93.0163 14.5635 92.863 14.7045C92.7036 14.8394 92.5258 14.913 92.3173 14.913C92.4338 14.9927 92.5319 15.0847 92.5994 15.2073C92.6668 15.3238 92.7097 15.4648 92.722 15.6242C92.7343 15.7837 92.7159 15.9615 92.6607 16.1577C92.5932 16.4152 92.4951 16.6359 92.3786 16.8076C92.256 16.9793 92.1027 17.1019 91.9188 17.1632C91.7348 17.2245 91.508 17.2245 91.2505 17.1571H91.2566Z" fill="#BA9566"/>
<path d="M120.539 24.7473L121.679 20.3694L122.685 20.6331C122.881 20.6821 123.047 20.7496 123.182 20.8354C123.317 20.9151 123.421 21.0132 123.494 21.1297C123.568 21.2462 123.611 21.3811 123.623 21.5283C123.635 21.6816 123.617 21.8471 123.568 22.0372C123.519 22.215 123.458 22.3683 123.378 22.4848C123.298 22.6074 123.2 22.6932 123.09 22.7423C122.979 22.7914 122.844 22.8097 122.697 22.7975C122.863 22.8833 122.985 22.9876 123.071 23.1102C123.157 23.2328 123.2 23.38 123.218 23.5394C123.231 23.7049 123.212 23.8889 123.157 24.0973C123.108 24.2874 123.041 24.453 122.961 24.594C122.881 24.735 122.777 24.8515 122.654 24.9373C122.532 25.0232 122.397 25.0722 122.237 25.0968C122.078 25.1213 121.906 25.1029 121.71 25.0538L120.545 24.7473H120.539ZM121.814 22.356L122.176 22.448C122.348 22.4909 122.489 22.5032 122.599 22.4786C122.71 22.4541 122.795 22.3928 122.863 22.2947C122.93 22.1966 122.985 22.0617 123.035 21.89C123.09 21.6877 123.096 21.5344 123.059 21.4302C123.022 21.3259 122.943 21.2401 122.82 21.1849C122.697 21.1297 122.532 21.0746 122.323 21.0194L122.176 20.9826L121.821 22.356H121.814ZM121.263 24.4714L121.673 24.5756C121.949 24.6492 122.145 24.6308 122.274 24.5265C122.397 24.4223 122.501 24.2261 122.575 23.9441C122.624 23.7601 122.636 23.6007 122.624 23.4658C122.605 23.3309 122.556 23.2144 122.464 23.1224C122.372 23.0305 122.237 22.963 122.06 22.914L121.698 22.822L121.269 24.4714H121.263Z" fill="#BA9566"/>
<defs>
<clipPath id="clip0_4592_65391">
<rect width="77.73" height="58.4062" fill="white" transform="translate(0.42041 104.872)"/>
</clipPath>
<clipPath id="clip1_4592_65391">
<rect width="88.83" height="121.316" fill="white" transform="translate(19.0947 24.9872)"/>
</clipPath>
</defs>
</svg>
