<svg width="53" height="52" viewBox="0 0 53 52" fill="none" xmlns="http://www.w3.org/2000/svg">
<path d="M4.46484 30.6V48.16" stroke="#1D1D1B" stroke-linecap="round" stroke-linejoin="round"/>
<path d="M30.2749 30.6V48.16" stroke="#1D1D1B" stroke-linecap="round" stroke-linejoin="round"/>
<path d="M27.8147 20.34V33.8" stroke="#1D1D1B" stroke-linecap="round" stroke-linejoin="round"/>
<path d="M7.93481 20.34V33.89" stroke="#1D1D1B" stroke-linecap="round" stroke-linejoin="round"/>
<path d="M8.23486 21.79H27.6049" stroke="#1D1D1B" stroke-linecap="round" stroke-linejoin="round"/>
<path d="M4.68481 45.1H30.0748" stroke="#1D1D1B" stroke-linecap="round" stroke-linejoin="round"/>
<path d="M4.68481 42.4399H30.2748" stroke="#1D1D1B" stroke-linecap="round" stroke-linejoin="round"/>
<path d="M9.39478 34.26V29C9.39478 28.7348 9.50013 28.4804 9.68767 28.2929C9.87521 28.1054 10.1296 28 10.3948 28H25.3948C25.66 28 25.9143 28.1054 26.1019 28.2929C26.2894 28.4804 26.3948 28.7348 26.3948 29V34.3L9.39478 34.26Z" fill="#B6915D"/>
<path d="M29.8648 34.48H4.46484" stroke="#1D1D1B" stroke-linecap="round" stroke-linejoin="round"/>
<path d="M11.6448 21.63V4.73999H48.3748V39.65H30.3948" stroke="black" stroke-linecap="round" stroke-linejoin="round"/>
<path d="M26.2549 5.02002V21.45" stroke="black" stroke-linecap="round" stroke-linejoin="round"/>
<path d="M26.4749 10.02H48.1849" stroke="black" stroke-linecap="round" stroke-linejoin="round"/>
<path d="M31.8347 17.8L37.8847 14.25L43.9247 17.8H31.8347Z" stroke="black" stroke-linecap="round" stroke-linejoin="round"/>
<path d="M31.8347 21.4L37.8847 17.85L43.9247 21.4H31.8347Z" stroke="black" stroke-linecap="round" stroke-linejoin="round"/>
<path d="M31.8347 25.2301L37.8847 21.6801L43.9247 25.2301H31.8347Z" stroke="black" stroke-linecap="round" stroke-linejoin="round"/>
<path d="M39.0949 9.79999C39.0622 9.37811 38.8716 8.98407 38.5611 8.69663C38.2506 8.40919 37.843 8.24951 37.4199 8.24951C36.9967 8.24951 36.5892 8.40919 36.2786 8.69663C35.9681 8.98407 35.7775 9.37811 35.7449 9.79999V11.08C35.7449 11.3452 35.8502 11.5996 36.0378 11.7871C36.2253 11.9746 36.4797 12.08 36.7449 12.08H37.0549C37.3201 12.08 37.5744 12.1854 37.762 12.3729C37.9495 12.5604 38.0549 12.8148 38.0549 13.08V14.14" stroke="black" stroke-linecap="round" stroke-linejoin="round"/>
</svg>
