<svg width="52" height="52" viewBox="0 0 52 52" fill="none" xmlns="http://www.w3.org/2000/svg">
<path d="M8.12011 46.81V43.14C8.11879 41.9914 8.34389 40.8538 8.78253 39.7923C9.22117 38.7307 9.86474 37.7661 10.6765 36.9534C11.4882 36.1408 12.4521 35.4961 13.5131 35.0562C14.5742 34.6164 15.7115 34.39 16.8601 34.39C18.0087 34.39 19.146 34.6164 20.2071 35.0562C21.2681 35.4961 22.232 36.1408 23.0438 36.9534C23.8555 37.7661 24.499 38.7307 24.9377 39.7923C25.3763 40.8538 25.6014 41.9914 25.6001 43.14V46.81H28.6001V43.14C28.5988 41.9914 28.8239 40.8538 29.2625 39.7923C29.7012 38.7307 30.3447 37.7661 31.1565 36.9534C31.9682 36.1408 32.9321 35.4961 33.9931 35.0562C35.0542 34.6164 36.1915 34.39 37.3401 34.39C38.4887 34.39 39.626 34.6164 40.6871 35.0562C41.7481 35.4961 42.712 36.1408 43.5238 36.9534C44.3355 37.7661 44.979 38.7307 45.4177 39.7923C45.8563 40.8538 46.0814 41.9914 46.0801 43.14V46.81H49.0001V31.61H5.36011V46.81H8.12011Z" stroke="black" stroke-linecap="round" stroke-linejoin="round"/>
<path d="M28.9 18.0001C29.9549 18.0001 30.81 17.1449 30.81 16.0901C30.81 15.0352 29.9549 14.1801 28.9 14.1801C27.8451 14.1801 26.99 15.0352 26.99 16.0901C26.99 17.1449 27.8451 18.0001 28.9 18.0001Z" stroke="#B6915D" stroke-linecap="round" stroke-linejoin="round"/>
<path d="M44.3901 9.44003H43.6801C43.6849 9.38346 43.6849 9.32659 43.6801 9.27003C43.6801 8.27812 43.2861 7.32684 42.5847 6.62545C41.8833 5.92406 40.932 5.53003 39.9401 5.53003C38.9482 5.53003 37.9969 5.92406 37.2955 6.62545C36.5941 7.32684 36.2001 8.27812 36.2001 9.27003C36.1953 9.32659 36.1953 9.38346 36.2001 9.44003H35.4101C34.7523 9.48096 34.1349 9.77112 33.6835 10.2514C33.2322 10.7317 32.981 11.366 32.981 12.025C32.981 12.6841 33.2322 13.3184 33.6835 13.7987C34.1349 14.2789 34.7523 14.5691 35.4101 14.61H44.3501C45.0079 14.5691 45.6253 14.2789 46.0767 13.7987C46.528 13.3184 46.7792 12.6841 46.7792 12.025C46.7792 11.366 46.528 10.7317 46.0767 10.2514C45.6253 9.77112 45.0079 9.48096 44.3501 9.44003H44.3901Z" stroke="#B6915D" stroke-linecap="round" stroke-linejoin="round"/>
<path d="M21.3 13.52H20.6C20.6 13.46 20.6 13.41 20.6 13.35C20.6 12.3581 20.206 11.4068 19.5046 10.7054C18.8032 10.004 17.8519 9.60999 16.86 9.60999C15.8681 9.60999 14.9168 10.004 14.2154 10.7054C13.5141 11.4068 13.12 12.3581 13.12 13.35C13.12 13.41 13.12 13.46 13.12 13.52H12.33C11.6722 13.5609 11.0548 13.8511 10.6035 14.3314C10.1521 14.8116 9.90088 15.4459 9.90088 16.105C9.90088 16.7641 10.1521 17.3983 10.6035 17.8786C11.0548 18.3589 11.6722 18.6491 12.33 18.69H21.3C21.653 18.712 22.0068 18.6614 22.3395 18.5414C22.6722 18.4214 22.9768 18.2346 23.2345 17.9924C23.4922 17.7502 23.6976 17.4578 23.838 17.1332C23.9784 16.8086 24.0509 16.4587 24.0509 16.105C24.0509 15.7513 23.9784 15.4014 23.838 15.0768C23.6976 14.7522 23.4922 14.4598 23.2345 14.2176C22.9768 13.9754 22.6722 13.7885 22.3395 13.6686C22.0068 13.5486 21.653 13.498 21.3 13.52Z" fill="#B6915D"/>
<path d="M33.3699 10.31C32.9608 9.96952 32.6298 9.54496 32.3993 9.0652C32.1688 8.58543 32.0443 8.06169 32.0341 7.52953C32.024 6.99738 32.1284 6.46926 32.3404 5.98104C32.5524 5.49282 32.8669 5.05593 33.2627 4.70003C33.6585 4.34413 34.1262 4.07756 34.6341 3.9184C35.142 3.75925 35.6782 3.71124 36.2063 3.77764C36.7344 3.84404 37.242 4.0233 37.6947 4.30324C38.1474 4.58317 38.5346 4.95724 38.8299 5.40004" stroke="#B6915D" stroke-linecap="round" stroke-linejoin="round"/>
<path d="M48.7999 25.6801H5.44995" stroke="black" stroke-linecap="round" stroke-linejoin="round"/>
<path d="M47.72 25.89V31.48" stroke="black" stroke-width="1.01" stroke-linecap="round" stroke-linejoin="round"/>
<path d="M42.6399 25.89V31.48" stroke="black" stroke-width="1.01" stroke-linecap="round" stroke-linejoin="round"/>
<path d="M37.55 25.89V31.48" stroke="black" stroke-width="1.01" stroke-linecap="round" stroke-linejoin="round"/>
<path d="M32.46 25.89V31.48" stroke="black" stroke-width="1.01" stroke-linecap="round" stroke-linejoin="round"/>
<path d="M27.3701 25.89V31.48" stroke="black" stroke-width="1.01" stroke-linecap="round" stroke-linejoin="round"/>
<path d="M22.28 25.89V31.48" stroke="black" stroke-width="1.01" stroke-linecap="round" stroke-linejoin="round"/>
<path d="M17.1899 25.89V31.48" stroke="black" stroke-width="1.01" stroke-linecap="round" stroke-linejoin="round"/>
<path d="M12.1001 25.89V31.48" stroke="black" stroke-width="1.01" stroke-linecap="round" stroke-linejoin="round"/>
<path d="M7.01001 25.89V31.48" stroke="black" stroke-width="1.01" stroke-linecap="round" stroke-linejoin="round"/>
</svg>
