<svg width="52" height="52" viewBox="0 0 52 52" fill="none" xmlns="http://www.w3.org/2000/svg">
<path d="M41.3399 4.73999H10.6499C9.56193 4.73999 8.67993 5.62199 8.67993 6.70999C8.67993 7.79799 9.56193 8.67999 10.6499 8.67999H41.3399C42.4279 8.67999 43.3099 7.79799 43.3099 6.70999C43.3099 5.62199 42.4279 4.73999 41.3399 4.73999Z" stroke="#1D1D1B" stroke-miterlimit="10"/>
<path d="M24.5901 9.09998V37.99" stroke="#1D1D1B" stroke-miterlimit="10"/>
<path d="M28.95 9.09998V26.71" stroke="#B6915D" stroke-miterlimit="10"/>
<path d="M35.1399 9.09998V34.94" stroke="#1D1D1B" stroke-miterlimit="10"/>
<path d="M37.76 9.09998V25.25" stroke="#1D1D1B" stroke-miterlimit="10"/>
<path d="M20.5 9.09998V28.12" stroke="#1D1D1B" stroke-miterlimit="10"/>
<path d="M16.1399 9.09998V34.37" stroke="#1D1D1B" stroke-miterlimit="10"/>
<path d="M24.8701 45.03C26.8141 45.03 28.3901 43.454 28.3901 41.51C28.3901 39.5659 26.8141 37.99 24.8701 37.99C22.9261 37.99 21.3501 39.5659 21.3501 41.51C21.3501 43.454 22.9261 45.03 24.8701 45.03Z" stroke="#1D1D1B" stroke-miterlimit="10"/>
<path d="M28.7801 35.04C31.1052 35.04 32.9901 33.1551 32.9901 30.83C32.9901 28.5049 31.1052 26.62 28.7801 26.62C26.455 26.62 24.5701 28.5049 24.5701 30.83C24.5701 33.1551 26.455 35.04 28.7801 35.04Z" stroke="#B6915D" stroke-miterlimit="10"/>
<path d="M28.78 28.27C29.43 28.3107 30.0401 28.5976 30.486 29.0723C30.9319 29.547 31.1801 30.1737 31.1801 30.825C31.1801 31.4763 30.9319 32.1031 30.486 32.5778C30.0401 33.0524 29.43 33.3393 28.78 33.38" stroke="#B6915D" stroke-linecap="round" stroke-linejoin="round"/>
<path d="M37.7601 30.11C39.0801 30.11 40.1501 29.0399 40.1501 27.72C40.1501 26.4 39.0801 25.33 37.7601 25.33C36.4402 25.33 35.3701 26.4 35.3701 27.72C35.3701 29.0399 36.4402 30.11 37.7601 30.11Z" stroke="#1D1D1B" stroke-miterlimit="10"/>
<path d="M35.2901 40.67C36.9248 40.67 38.2501 39.3448 38.2501 37.71C38.2501 36.0752 36.9248 34.75 35.2901 34.75C33.6553 34.75 32.3301 36.0752 32.3301 37.71C32.3301 39.3448 33.6553 40.67 35.2901 40.67Z" stroke="#1D1D1B" stroke-miterlimit="10"/>
<path d="M20.3601 33.06C21.7574 33.06 22.8901 31.9273 22.8901 30.53C22.8901 29.1327 21.7574 28 20.3601 28C18.9628 28 17.8301 29.1327 17.8301 30.53C17.8301 31.9273 18.9628 33.06 20.3601 33.06Z" stroke="#1D1D1B" stroke-miterlimit="10"/>
<path d="M16.14 41.09C18.0067 41.09 19.52 39.5767 19.52 37.71C19.52 35.8432 18.0067 34.33 16.14 34.33C14.2733 34.33 12.76 35.8432 12.76 37.71C12.76 39.5767 14.2733 41.09 16.14 41.09Z" stroke="#1D1D1B" stroke-miterlimit="10"/>
<path d="M12.06 31.59C12.6454 31.59 13.12 31.1154 13.12 30.53C13.12 29.9446 12.6454 29.47 12.06 29.47C11.4746 29.47 11 29.9446 11 30.53C11 31.1154 11.4746 31.59 12.06 31.59Z" fill="#1D1D1B"/>
<path d="M16.1401 46.3001C16.7255 46.3001 17.2001 45.8255 17.2001 45.2401C17.2001 44.6546 16.7255 44.1801 16.1401 44.1801C15.5547 44.1801 15.0801 44.6546 15.0801 45.2401C15.0801 45.8255 15.5547 46.3001 16.1401 46.3001Z" fill="#B6915D"/>
<path d="M31.3601 43.11C31.9455 43.11 32.42 42.6354 32.42 42.05C32.42 41.4646 31.9455 40.99 31.3601 40.99C30.7746 40.99 30.3 41.4646 30.3 42.05C30.3 42.6354 30.7746 43.11 31.3601 43.11Z" fill="#1D1D1B"/>
<path d="M37.03 46.38C37.6154 46.38 38.09 45.9054 38.09 45.32C38.09 44.7346 37.6154 44.26 37.03 44.26C36.4445 44.26 35.97 44.7346 35.97 45.32C35.97 45.9054 36.4445 46.38 37.03 46.38Z" fill="#1D1D1B"/>
<path d="M40.7299 33.1C41.3153 33.1 41.7899 32.6254 41.7899 32.04C41.7899 31.4546 41.3153 30.98 40.7299 30.98C40.1445 30.98 39.6699 31.4546 39.6699 32.04C39.6699 32.6254 40.1445 33.1 40.7299 33.1Z" fill="#B6915D"/>
<path d="M32.77 25.2C33.3554 25.2 33.83 24.7254 33.83 24.14C33.83 23.5545 33.3554 23.08 32.77 23.08C32.1845 23.08 31.71 23.5545 31.71 24.14C31.71 24.7254 32.1845 25.2 32.77 25.2Z" fill="#B6915D"/>
</svg>
