<svg width="29" height="29" viewBox="0 0 29 29" fill="none" xmlns="http://www.w3.org/2000/svg">
<rect x="0.780273" y="0.500061" width="28" height="28" fill="#B6915D"/>
<g clip-path="url(#clip0_3546_24897)">
<rect width="24" height="24" transform="translate(2.78027 2.50006)" fill="#B6915D"/>
<path d="M5.93701 18.2402V13.6012C5.93701 11.8518 5.93701 11.2023 6.4805 10.6588C7.02399 10.1153 9.79629 9.89005 11.5458 9.89005H18.1316C19.8811 9.89005 22.5362 10.1153 23.0797 10.6588C23.6232 11.2023 23.6232 11.8518 23.6232 13.6012V15.1089C23.6232 18.6079 23.6232 20.3573 22.5362 21.4443C21.4492 22.5313 19.6997 22.5313 16.2008 22.5313H13.3594C9.86045 22.5313 8.11098 22.5313 7.02399 21.4443" stroke="#F9F0E5" stroke-width="1.5" stroke-linecap="round"/>
<path d="M17.9991 10.2962V10.2962C18.328 8.93947 18.4924 8.26111 18.3061 7.73209C18.1675 7.33858 17.9027 7.00193 17.553 6.77453C17.0827 6.46881 16.3847 6.46881 14.9887 6.46881H14.5725C13.1765 6.46881 12.4785 6.46881 12.0083 6.77453C11.6585 7.00193 11.3937 7.33858 11.2551 7.73209C11.0688 8.26111 11.2332 8.93947 11.5621 10.2962V10.2962" stroke="#F9F0E5" stroke-width="1.5"/>
<path d="M14.78 15.5731L14.78 20.1543" stroke="#F9F0E5" stroke-width="1.5" stroke-linecap="round"/>
<path d="M17.0706 17.8635L12.4893 17.8635" stroke="#F9F0E5" stroke-width="1.5" stroke-linecap="round"/>
<path d="M19.9124 13.2825L6.28456 13.2825" stroke="#F9F0E5" stroke-width="1.5" stroke-linecap="round"/>
</g>
<defs>
<clipPath id="clip0_3546_24897">
<rect width="24" height="24" fill="white" transform="translate(2.78027 2.50006)"/>
</clipPath>
</defs>
</svg>
