<svg width="25" height="25" viewBox="0 0 25 25" fill="none" xmlns="http://www.w3.org/2000/svg">
<g clip-path="url(#clip0_3546_24952)">
<path d="M3.42261 15.966V11.327C3.42261 9.57753 3.42261 8.92806 3.9661 8.38457C4.50959 7.84108 7.28188 7.61581 9.03136 7.61581H15.6172C17.3667 7.61581 20.0218 7.84108 20.5653 8.38457C21.1088 8.92806 21.1088 9.57753 21.1088 11.327V12.8347C21.1088 16.3336 21.1088 18.0831 20.0218 19.1701C18.9348 20.2571 17.1853 20.2571 13.6864 20.2571H10.845C7.34605 20.2571 5.59657 20.2571 4.50959 19.1701" stroke="white" stroke-width="1.5" stroke-linecap="round"/>
<path d="M15.4847 8.02196V8.02196C15.8136 6.66524 15.978 5.98688 15.7917 5.45786C15.6531 5.06435 15.3883 4.7277 15.0386 4.50029C14.5683 4.19458 13.8703 4.19458 12.4743 4.19458H12.0581C10.6621 4.19458 9.96408 4.19458 9.49385 4.50029C9.14408 4.7277 8.87928 5.06435 8.74069 5.45786C8.55437 5.98688 8.71882 6.66524 9.04772 8.02196V8.02196" stroke="white" stroke-width="1.5"/>
<path d="M12.2656 13.2988L12.2656 17.8801" stroke="white" stroke-width="1.5" stroke-linecap="round"/>
<path d="M14.5562 15.5892L9.97489 15.5892" stroke="white" stroke-width="1.5" stroke-linecap="round"/>
<path d="M17.3979 11.0083L3.77015 11.0083" stroke="white" stroke-width="1.5" stroke-linecap="round"/>
</g>
<defs>
<clipPath id="clip0_3546_24952">
<rect width="24" height="24" fill="white" transform="translate(0.265869 0.22583)"/>
</clipPath>
</defs>
</svg>
