<svg width="25" height="25" viewBox="0 0 25 25" fill="none" xmlns="http://www.w3.org/2000/svg">
<g clip-path="url(#clip0_3546_24955)">
<path d="M12.2659 21.8387V14.9134V7.98807" stroke="white" stroke-width="1.5" stroke-linecap="round" stroke-linejoin="round"/>
<path d="M12.2659 12.8821L14.3284 10.804L16.3909 8.72589" stroke="white" stroke-width="1.5" stroke-linecap="round" stroke-linejoin="round"/>
<path d="M12.2659 14.9134L10.0471 13.1072L7.82837 11.3011" stroke="white" stroke-width="1.5" stroke-linecap="round" stroke-linejoin="round"/>
<path d="M3.56252 10.0081C3.26084 10.899 3.19068 11.8493 3.3271 12.7733C3.52612 14.1213 4.16482 15.4131 5.16571 16.3818C6.41017 17.5862 8.14221 18.2707 9.99966 18.1244C10.5982 18.0773 11.1704 17.947 11.7058 17.7457C12.9532 18.9761 14.7038 19.6781 16.5826 19.5301C20.027 19.2588 22.5982 16.2337 22.3256 12.7733C22.1616 10.6908 21.005 8.92522 19.3592 7.90847C19.1178 4.84337 16.0601 2.50153 12.5737 2.77618C10.3019 2.95511 8.41002 4.33202 7.46334 6.24166C6.6952 6.51679 5.9945 6.91064 5.39448 7.40383" stroke="white" stroke-width="1.40317" stroke-linecap="round"/>
</g>
<defs>
<clipPath id="clip0_3546_24955">
<rect width="24" height="24" fill="white" transform="translate(0.265869 0.22583)"/>
</clipPath>
</defs>
</svg>
