<svg width="29" height="28" viewBox="0 0 29 28" fill="none" xmlns="http://www.w3.org/2000/svg">
<rect x="0.780273" y="6.10352e-05" width="28" height="28" fill="#B6915D"/>
<g clip-path="url(#clip0_3546_24912)">
<rect width="24" height="24" transform="translate(2.78027 2.00006)" fill="#B6915D"/>
<path d="M14.7803 23.613V16.6876V9.7623" stroke="#F9F0E5" stroke-width="1.5" stroke-linecap="round" stroke-linejoin="round"/>
<path d="M14.7803 14.6564L16.8428 12.5782L18.9053 10.5001" stroke="#F9F0E5" stroke-width="1.5" stroke-linecap="round" stroke-linejoin="round"/>
<path d="M14.7803 16.6876L12.5615 14.8815L10.3428 13.0753" stroke="#F9F0E5" stroke-width="1.5" stroke-linecap="round" stroke-linejoin="round"/>
<path d="M6.07693 11.7824C5.77524 12.6732 5.70508 13.6236 5.8415 14.5475C6.04052 15.8955 6.67922 17.1873 7.68012 18.156C8.92457 19.3605 10.6566 20.0449 12.5141 19.8986C13.1126 19.8515 13.6848 19.7212 14.2202 19.5199C15.4676 20.7503 17.2182 21.4523 19.097 21.3044C22.5414 21.0331 25.1126 18.0079 24.84 14.5475C24.676 12.465 23.5194 10.6994 21.8736 9.68271C21.6322 6.6176 18.5745 4.27576 15.0881 4.55041C12.8163 4.72934 10.9244 6.10625 9.97774 8.01589C9.20961 8.29102 8.5089 8.68487 7.90889 9.17806" stroke="#F9F0E5" stroke-width="1.40317" stroke-linecap="round"/>
</g>
<defs>
<clipPath id="clip0_3546_24912">
<rect width="24" height="24" fill="white" transform="translate(2.78027 2.00006)"/>
</clipPath>
</defs>
</svg>
