<svg width="25" height="25" viewBox="0 0 25 25" fill="none" xmlns="http://www.w3.org/2000/svg">
<g clip-path="url(#clip0_3546_24954)">
<path d="M8.76587 3.25721H9.51587V2.50723L8.76589 2.50721L8.76587 3.25721ZM6.07837 3.25714L6.07839 2.50714L5.68788 2.50713L5.46395 2.82704L6.07837 3.25714ZM2.64087 8.25714L2.02026 7.83602C1.79128 8.17346 1.87389 8.63203 2.20623 8.86836L2.64087 8.25714ZM5.45337 10.2571H6.20337V9.87018L5.88801 9.64593L5.45337 10.2571ZM5.45337 21.1947H4.70337V21.9447H5.45337V21.1947ZM15.7659 3.25721L15.7659 2.50721L15.0159 2.50723V3.25721H15.7659ZM18.4534 3.25714L19.0678 2.82704L18.8439 2.50713L18.4534 2.50714L18.4534 3.25714ZM21.8909 8.25714L22.3255 8.86836C22.6579 8.63203 22.7405 8.17346 22.5115 7.83602L21.8909 8.25714ZM19.0784 10.2571L18.6437 9.64593L18.3284 9.87018V10.2571H19.0784ZM19.0784 21.1947V21.9447H19.8284V21.1947H19.0784ZM6.20337 17.6009C6.20337 17.1867 5.86758 16.8509 5.45337 16.8509C5.03916 16.8509 4.70337 17.1867 4.70337 17.6009H6.20337ZM4.70337 13.4446C4.70337 13.8589 5.03916 14.1946 5.45337 14.1946C5.86758 14.1946 6.20337 13.8589 6.20337 13.4446H4.70337ZM8.76589 2.50721L6.07839 2.50714L6.07835 4.00714L8.76585 4.00721L8.76589 2.50721ZM3.26148 8.67827C4.44822 6.92938 5.38337 5.55784 6.69279 3.68724L5.46395 2.82704C4.14837 4.70644 3.20852 6.0849 2.02026 7.83602L3.26148 8.67827ZM2.20623 8.86836L5.01873 10.8684L5.88801 9.64593L3.07551 7.64593L2.20623 8.86836ZM5.45337 21.9447H11.5784V20.4447H5.45337V21.9447ZM15.0159 3.25721C15.0159 4.49123 13.8668 5.63221 12.2659 5.63221V7.13221C14.5309 7.13221 16.5159 5.47498 16.5159 3.25721H15.0159ZM12.2659 5.63221C10.6649 5.63221 9.51587 4.49123 9.51587 3.25721H8.01587C8.01587 5.47498 10.0008 7.13221 12.2659 7.13221V5.63221ZM15.7659 4.00721L18.4534 4.00714L18.4534 2.50714L15.7659 2.50721L15.7659 4.00721ZM22.5115 7.83602C21.3232 6.0849 20.3834 4.70644 19.0678 2.82704L17.8389 3.68724C19.1484 5.55784 20.0835 6.92938 21.2703 8.67827L22.5115 7.83602ZM21.4562 7.64593L18.6437 9.64593L19.513 10.8684L22.3255 8.86836L21.4562 7.64593ZM18.3284 10.2571V21.1947H19.8284V10.2571H18.3284ZM19.0784 20.4447H11.5784V21.9447H19.0784V20.4447ZM4.70337 17.6009V21.1947H6.20337V17.6009H4.70337ZM4.70337 10.2571V13.4446H6.20337V10.2571H4.70337Z" fill="white"/>
</g>
<defs>
<clipPath id="clip0_3546_24954">
<rect width="24" height="24" fill="white" transform="translate(0.265869 0.22583)"/>
</clipPath>
</defs>
</svg>
