<svg width="25" height="25" viewBox="0 0 25 25" fill="none" xmlns="http://www.w3.org/2000/svg">
<g clip-path="url(#clip0_3546_24959)">
<rect x="9.4375" y="6.53931" width="6.01758" height="12.9976" rx="3.00879" stroke="white" stroke-width="1.5"/>
<path d="M22.0142 12.2258C22.0142 17.5931 17.6331 21.9441 12.2659 21.9441C6.89862 21.9441 2.51758 17.5931 2.51758 12.2258C2.51758 6.85858 6.89862 2.50757 12.2659 2.50757C13.6367 2.50757 14.9432 2.7914 16.1288 3.30351" stroke="white" stroke-width="1.5" stroke-linecap="round"/>
<path d="M6.97021 20.6202V16.1354C6.97021 14.4607 7.99936 13.0264 9.4597 12.4304M17.9224 20.0786V16.1354C17.9224 14.4607 16.8932 13.0264 15.4329 12.4304" stroke="white" stroke-width="1.5"/>
<path d="M19.7671 2.52319L19.7693 6.36075C19.7695 6.70019 20.1007 6.94078 20.4236 6.83608L24.074 5.65235L20.425 6.84037C20.1022 6.94545 19.9757 7.33474 20.1751 7.60947L22.4289 10.7154L20.1714 7.61212C19.9717 7.33763 19.5624 7.33763 19.3628 7.61212L17.1053 10.7154L19.3591 7.60947C19.5585 7.33474 19.432 6.94545 19.1092 6.84037L15.4602 5.65235L19.1106 6.83608C19.4335 6.94078 19.7646 6.70019 19.7648 6.36075L19.7671 2.52319Z" fill="white"/>
</g>
<defs>
<clipPath id="clip0_3546_24959">
<rect width="24" height="24" fill="white" transform="translate(0.265869 0.22583)"/>
</clipPath>
</defs>
</svg>
