<svg width="29" height="28" viewBox="0 0 29 28" fill="none" xmlns="http://www.w3.org/2000/svg">
<rect x="0.155273" width="28" height="28" fill="#B6915D"/>
<g clip-path="url(#clip0_3546_24936)">
<rect width="24" height="24" transform="translate(2.15527 2)" fill="#B6915D"/>
<rect x="11.3269" y="8.31348" width="6.01758" height="12.9976" rx="3.00879" stroke="#F9F0E5" stroke-width="1.5"/>
<path d="M23.9036 14C23.9036 19.3672 19.5225 23.7183 14.1553 23.7183C8.78803 23.7183 4.40698 19.3672 4.40698 14C4.40698 8.63275 8.78803 4.28174 14.1553 4.28174C15.5261 4.28174 16.8326 4.56557 18.0182 5.07768" stroke="#F9F0E5" stroke-width="1.5" stroke-linecap="round"/>
<path d="M8.85962 22.3944V17.9096C8.85962 16.2349 9.88876 14.8006 11.3491 14.2046M19.8118 21.8528V17.9096C19.8118 16.2349 18.7826 14.8006 17.3223 14.2046" stroke="#F9F0E5" stroke-width="1.5"/>
<path d="M21.181 5.76089C21.3306 5.30023 21.9823 5.30023 22.132 5.76089L22.561 7.08103C22.6279 7.28704 22.8199 7.42652 23.0365 7.42652L24.4246 7.42652C24.9089 7.42652 25.1103 8.04633 24.7185 8.33103L23.5955 9.14693C23.4202 9.27425 23.3469 9.49993 23.4138 9.70594L23.8428 11.0261C23.9925 11.4867 23.4652 11.8698 23.0734 11.5851L21.9504 10.7692C21.7751 10.6419 21.5378 10.6419 21.3626 10.7692L20.2396 11.5851C19.8478 11.8698 19.3205 11.4867 19.4702 11.0261L19.8991 9.70594C19.9661 9.49993 19.8927 9.27425 19.7175 9.14693L18.5945 8.33103C18.2027 8.04633 18.4041 7.42652 18.8884 7.42652L20.2765 7.42652C20.4931 7.42652 20.6851 7.28704 20.752 7.08103L21.181 5.76089Z" fill="#F9F0E5"/>
</g>
<defs>
<clipPath id="clip0_3546_24936">
<rect width="24" height="24" fill="white" transform="translate(2.15527 2)"/>
</clipPath>
</defs>
</svg>
