<svg width="25" height="25" viewBox="0 0 25 25" fill="none" xmlns="http://www.w3.org/2000/svg">
<g clip-path="url(#clip0_3546_24953)">
<path d="M4.79139 18.8706C4.9659 19.0673 5.14842 19.2574 5.33863 19.4403C6.51602 20.5729 7.98808 21.4323 9.6777 21.885C15.0124 23.3144 20.4957 20.1486 21.9252 14.8139C23.3546 9.47928 20.1887 3.99591 14.8541 2.56649C9.51942 1.13707 4.03605 4.3029 2.60663 9.63756C2.15233 11.333 2.1622 13.0435 2.55834 14.6341C2.62075 14.8847 2.69275 15.1323 2.77403 15.3764" stroke="white" stroke-width="1.5" stroke-linecap="round"/>
<path d="M17.8643 8.34991C18.0381 7.97391 17.8742 7.52823 17.4982 7.35447C17.1222 7.1807 16.6765 7.34464 16.5027 7.72064L17.8643 8.34991ZM19.7909 18.8315C18.0775 17.1518 17.0159 14.8134 17.0159 12.2257H15.5159C15.5159 15.2327 16.7515 17.9525 18.7408 19.9027L19.7909 18.8315ZM16.5027 7.72064C15.869 9.0918 15.5159 10.6185 15.5159 12.2257H17.0159C17.0159 10.8402 17.32 9.52784 17.8643 8.34991L16.5027 7.72064Z" fill="white"/>
<path d="M7.81529 17.0761C7.62185 17.4424 7.16811 17.5825 6.80184 17.389C6.43557 17.1956 6.29547 16.7418 6.48891 16.3756L7.81529 17.0761ZM5.78552 4.68503C7.77622 6.5979 9.01587 9.26912 9.01587 12.2258H7.51587C7.51587 9.69855 6.45825 7.41172 4.74622 5.76663L5.78552 4.68503ZM6.48891 16.3756C7.14524 15.1329 7.51587 13.7226 7.51587 12.2258H9.01587C9.01587 13.9735 8.58243 15.6236 7.81529 17.0761L6.48891 16.3756Z" fill="white"/>
<path d="M12.2659 2.22583V22.2258" stroke="white" stroke-width="1.5" stroke-linecap="round"/>
<path d="M22.2659 12.2258L2.26587 12.2258" stroke="white" stroke-width="1.5" stroke-linecap="round"/>
</g>
<defs>
<clipPath id="clip0_3546_24953">
<rect width="24" height="24" fill="white" transform="translate(0.265869 0.22583)"/>
</clipPath>
</defs>
</svg>
