<svg width="29" height="29" viewBox="0 0 29 29" fill="none" xmlns="http://www.w3.org/2000/svg">
<rect x="0.887207" y="0.5" width="28" height="28" fill="#B6915D"/>
<g clip-path="url(#clip0_3546_24900)">
<rect width="24" height="24" transform="translate(2.88721 2.5)" fill="#B6915D"/>
<path d="M7.41273 21.1447C7.58723 21.3414 7.76975 21.5315 7.95996 21.7145C9.13736 22.847 10.6094 23.7064 12.299 24.1591C17.6337 25.5886 23.1171 22.4227 24.5465 17.0881C25.9759 11.7534 22.8101 6.27005 17.4754 4.84063C12.1408 3.41121 6.65739 6.57704 5.22797 11.9117C4.77367 13.6072 4.78354 15.3177 5.17968 16.9082C5.24209 17.1588 5.31409 17.4065 5.39537 17.6506" stroke="#F9F0E5" stroke-width="1.5" stroke-linecap="round"/>
<path d="M20.4857 10.6241C20.6594 10.2481 20.4955 9.8024 20.1195 9.62864C19.7435 9.45487 19.2978 9.61881 19.1241 9.99481L20.4857 10.6241ZM22.4122 21.1057C20.6988 19.426 19.6372 17.0876 19.6372 14.4998H18.1372C18.1372 17.5069 19.3728 20.2267 21.3622 22.1768L22.4122 21.1057ZM19.1241 9.99481C18.4904 11.366 18.1372 12.8927 18.1372 14.4998H19.6372C19.6372 13.1144 19.9413 11.802 20.4857 10.6241L19.1241 9.99481Z" fill="#F9F0E5"/>
<path d="M10.4366 19.3503C10.2432 19.7165 9.78945 19.8566 9.42318 19.6632C9.05691 19.4697 8.91681 19.016 9.11025 18.6497L10.4366 19.3503ZM8.40686 6.9592C10.3976 8.87207 11.6372 11.5433 11.6372 14.5H10.1372C10.1372 11.9727 9.07958 9.68589 7.36755 8.0408L8.40686 6.9592ZM9.11025 18.6497C9.76658 17.407 10.1372 15.9967 10.1372 14.5H11.6372C11.6372 16.2477 11.2038 17.8977 10.4366 19.3503L9.11025 18.6497Z" fill="#F9F0E5"/>
<path d="M14.8872 4.5V24.5" stroke="#F9F0E5" stroke-width="1.5" stroke-linecap="round"/>
<path d="M24.8872 14.5L4.88721 14.5" stroke="#F9F0E5" stroke-width="1.5" stroke-linecap="round"/>
</g>
<defs>
<clipPath id="clip0_3546_24900">
<rect width="24" height="24" fill="white" transform="translate(2.88721 2.5)"/>
</clipPath>
</defs>
</svg>
