<svg width="29" height="29" viewBox="0 0 29 29" fill="none" xmlns="http://www.w3.org/2000/svg">
<rect x="0.762207" y="0.541656" width="28" height="28" fill="#B6915D"/>
<g clip-path="url(#clip0_3546_24909)">
<rect width="24" height="24" transform="translate(2.76221 2.54166)" fill="#B6915D"/>
<path d="M11.2622 5.57304H12.0122V4.82306L11.2622 4.82304L11.2622 5.57304ZM8.57471 5.57297L8.57473 4.82297L8.18422 4.82296L7.96028 5.14287L8.57471 5.57297ZM5.13721 10.573L4.5166 10.1518C4.28762 10.4893 4.37023 10.9479 4.70256 11.1842L5.13721 10.573ZM7.94971 12.573H8.69971V12.186L8.38435 11.9618L7.94971 12.573ZM7.94971 23.5105H7.19971V24.2605H7.94971V23.5105ZM18.2622 5.57304L18.2622 4.82304L17.5122 4.82306V5.57304H18.2622ZM20.9497 5.57297L21.5641 5.14287L21.3402 4.82296L20.9497 4.82297L20.9497 5.57297ZM24.3872 10.573L24.8218 11.1842C25.1542 10.9479 25.2368 10.4893 25.0078 10.1518L24.3872 10.573ZM21.5747 12.573L21.1401 11.9618L20.8247 12.186V12.573H21.5747ZM21.5747 23.5105V24.2605H22.3247V23.5105H21.5747ZM8.69971 19.9167C8.69971 19.5025 8.36392 19.1667 7.94971 19.1667C7.53549 19.1667 7.19971 19.5025 7.19971 19.9167H8.69971ZM7.19971 15.7605C7.19971 16.1747 7.53549 16.5105 7.94971 16.5105C8.36392 16.5105 8.69971 16.1747 8.69971 15.7605H7.19971ZM11.2622 4.82304L8.57473 4.82297L8.57469 6.32297L11.2622 6.32304L11.2622 4.82304ZM5.75781 10.9941C6.94456 9.24521 7.87971 7.87367 9.18913 6.00306L7.96028 5.14287C6.64471 7.02226 5.70486 8.40073 4.5166 10.1518L5.75781 10.9941ZM4.70256 11.1842L7.51506 13.1842L8.38435 11.9618L5.57185 9.96175L4.70256 11.1842ZM7.94971 24.2605H14.0747V22.7605H7.94971V24.2605ZM17.5122 5.57304C17.5122 6.80705 16.3632 7.94804 14.7622 7.94804V9.44804C17.0272 9.44804 19.0122 7.7908 19.0122 5.57304H17.5122ZM14.7622 7.94804C13.1612 7.94804 12.0122 6.80705 12.0122 5.57304H10.5122C10.5122 7.7908 12.4972 9.44804 14.7622 9.44804V7.94804ZM18.2622 6.32304L20.9497 6.32297L20.9497 4.82297L18.2622 4.82304L18.2622 6.32304ZM25.0078 10.1518C23.8196 8.40073 22.8797 7.02226 21.5641 5.14287L20.3353 6.00306C21.6447 7.87367 22.5799 9.24521 23.7666 10.9941L25.0078 10.1518ZM23.9526 9.96175L21.1401 11.9618L22.0093 13.1842L24.8218 11.1842L23.9526 9.96175ZM20.8247 12.573V23.5105H22.3247V12.573H20.8247ZM21.5747 22.7605H14.0747V24.2605H21.5747V22.7605ZM7.19971 19.9167V23.5105H8.69971V19.9167H7.19971ZM7.19971 12.573V15.7605H8.69971V12.573H7.19971Z" fill="#F9F0E5"/>
</g>
<defs>
<clipPath id="clip0_3546_24909">
<rect width="24" height="24" fill="white" transform="translate(2.76221 2.54166)"/>
</clipPath>
</defs>
</svg>
