<svg width="140" height="81" viewBox="0 0 140 81" fill="none" xmlns="http://www.w3.org/2000/svg">
<path d="M132.766 67.0532C133.229 67.3942 133.959 67.5891 134.885 67.5891C135.81 67.5891 136.517 67.4186 137.004 67.0532C137.467 66.6879 137.759 66.1277 137.905 65.3483V65.2021H136.225V65.2996C136.151 65.6893 136.03 65.9815 135.835 66.152C135.616 66.2982 135.323 66.3712 134.885 66.3712C134.447 66.3712 134.154 66.2982 133.959 66.152C133.765 66.0059 133.643 65.738 133.57 65.2996V65.2021H131.865V65.3483C132.011 66.152 132.303 66.7122 132.79 67.0776" fill="white"/>
<path d="M6.40571 77.2587L2.43563 68.1494H0V80.1327H2.16771V72.3387L5.48017 80.1327H7.28253L10.6193 72.3387V80.1327H12.7627V68.1494H10.3271L6.40571 77.2587Z" fill="white"/>
<path d="M20.1669 67.9307C18.3158 67.9307 16.8788 68.5396 15.8314 69.733C14.8328 70.8778 14.3457 72.3148 14.3457 74.1659C14.3457 76.017 14.8328 77.454 15.8314 78.5744C16.8788 79.7678 18.3401 80.3524 20.1669 80.3524C21.9936 80.3524 23.4306 79.7678 24.5023 78.5987C25.5009 77.4783 26.0124 75.9926 26.0124 74.1659C26.0124 72.3392 25.5009 70.8291 24.5023 69.7087C23.455 68.5152 21.9936 67.9307 20.1669 67.9307ZM22.8948 77.3078C22.2615 78.0629 21.336 78.4282 20.1669 78.4282C18.9978 78.4282 18.0722 78.0385 17.439 77.2591C16.8057 76.4797 16.5134 75.4811 16.5134 74.1659C16.5134 72.8506 16.8057 71.8277 17.439 71.0483C18.0966 70.2445 18.9978 69.8548 20.1669 69.8548C21.336 69.8548 22.2615 70.2202 22.8948 70.9752C23.528 71.7546 23.8447 72.8263 23.8447 74.1659C23.8447 75.5055 23.528 76.5528 22.8948 77.3078Z" fill="white"/>
<path d="M35.9495 75.8952C35.7303 76.7476 35.3406 77.4053 34.8048 77.8437C34.2933 78.2334 33.6113 78.4282 32.8319 78.4282C31.5898 78.4282 30.6642 78.0385 30.0797 77.2835C29.5438 76.5772 29.2759 75.5298 29.2759 74.1659C29.2759 72.8019 29.5438 71.8033 30.104 71.0726C30.7129 70.2445 31.5898 69.8548 32.7832 69.8548C33.6113 69.8548 34.2446 70.0253 34.7561 70.3663C35.2676 70.7073 35.6086 71.2431 35.8034 71.9982V72.0956H37.9224V71.9495C37.7276 70.7316 37.1917 69.7574 36.3149 69.0511C35.4137 68.3204 34.2446 67.9307 32.8319 67.9307C30.9078 67.9307 29.4464 68.5639 28.4478 69.8305C27.571 70.9265 27.1326 72.3879 27.1326 74.1659C27.1326 75.9439 27.571 77.4296 28.3991 78.4769C29.3733 79.7191 30.8834 80.3524 32.8563 80.3524C34.1472 80.3524 35.2676 79.987 36.1931 79.232C37.1917 78.4282 37.8006 77.3566 38.0685 75.9439V75.7978H35.9983V75.8952H35.9495Z" fill="white"/>
<path d="M44.5963 68.1494H39.6033V80.1083H41.771V75.6024H44.572C47.4947 75.6024 48.9804 74.3359 48.9804 71.8515C48.9804 69.3672 47.4947 68.125 44.5963 68.125V68.1494ZM41.771 70.0004H44.4502C45.2783 70.0004 45.8628 70.1466 46.2282 70.4389C46.5935 70.7068 46.7884 71.1939 46.7884 71.8515C46.7884 72.5091 46.5935 72.9963 46.2525 73.2885C45.8628 73.5808 45.2539 73.727 44.4502 73.727H41.771V70.0248V70.0004Z" fill="white"/>
<path d="M52.5364 74.9205H58.6986V73.045H52.5364V70.0249H59.0883V68.1494H50.3931V80.1327H59.3562V78.2573H52.5364V74.9205Z" fill="white"/>
<path d="M73.4587 76.6254C73.3613 77.1612 73.1177 77.5753 72.7524 77.8189C72.4601 77.965 72.1435 78.0624 71.7294 78.0624H71.1205V79.8161L66.6633 68.1738H64.3251L59.7461 80.1571H62.0599L63.1316 77.21H67.8811L68.9528 80.1571H72.2165C73.2151 80.1571 73.9945 79.8892 74.5547 79.3533C75.0906 78.8175 75.4559 77.9894 75.6508 76.8933L76.7468 70.0492H79.8888V80.1327H82.0565V68.1494H74.8957L73.5074 76.6254H73.4587ZM67.1991 75.3832H63.7649L65.4942 70.6094L67.1991 75.3832Z" fill="white"/>
<path d="M92.4323 75.8952C92.2131 76.7476 91.8234 77.4053 91.2876 77.8437C90.7761 78.2334 90.0941 78.4282 89.3147 78.4282C88.0726 78.4282 87.147 78.0385 86.5625 77.2835C86.0266 76.5772 85.7587 75.5298 85.7587 74.1659C85.7587 72.8019 86.0266 71.8033 86.5868 71.0726C87.1957 70.2445 88.0726 69.8548 89.266 69.8548C90.0941 69.8548 90.7274 70.0253 91.2145 70.3663C91.726 70.7073 92.067 71.2431 92.2618 71.9982V72.0956H94.3808V71.9495C94.186 70.7316 93.6502 69.7574 92.7733 69.0511C91.8721 68.3204 90.703 67.9307 89.266 67.9307C87.3662 67.9307 85.8805 68.5639 84.8819 69.8305C84.0051 70.9265 83.5667 72.3879 83.5667 74.1659C83.5667 75.9439 84.0051 77.4296 84.8332 78.4769C85.8074 79.7191 87.3175 80.3524 89.2904 80.3524C90.5813 80.3524 91.7016 79.987 92.6272 79.232C93.6258 78.4282 94.2347 77.3566 94.5026 75.9439V75.7978H92.4323V75.8952Z" fill="white"/>
<path d="M95.209 70.0249H99.0573V80.1327H101.201V70.0249H105.049V68.1494H95.209V70.0249Z" fill="white"/>
<path d="M111.211 68.1494H106.218V80.1083H108.386V75.6024H111.187C114.109 75.6024 115.595 74.3359 115.595 71.8515C115.595 69.3672 114.109 68.125 111.211 68.125V68.1494ZM108.386 70.0004H111.065C111.893 70.0004 112.478 70.1466 112.843 70.4389C113.208 70.7068 113.403 71.1939 113.403 71.8515C113.403 72.5091 113.208 72.9963 112.867 73.2885C112.478 73.5808 111.869 73.727 111.065 73.727H108.386V70.0248V70.0004Z" fill="white"/>
<path d="M122.317 67.9306C120.466 67.9306 119.005 68.5395 117.982 69.733C116.983 70.8777 116.496 72.3147 116.496 74.1658C116.496 76.0169 117.008 77.4539 117.982 78.5743C119.029 79.7678 120.491 80.3523 122.317 80.3523C124.144 80.3523 125.581 79.7678 126.653 78.5743C127.652 77.4539 128.163 75.9682 128.163 74.1415C128.163 72.3147 127.652 70.8047 126.653 69.6843C125.606 68.4908 124.144 67.9062 122.317 67.9062V67.9306ZM122.317 69.8304C123.511 69.8304 124.412 70.1957 125.045 70.9508C125.679 71.7302 125.995 72.8019 125.995 74.1171C125.995 75.4323 125.679 76.504 125.045 77.2591C124.412 78.0141 123.487 78.3795 122.317 78.3795C121.148 78.3795 120.223 77.9898 119.59 77.2104C118.956 76.431 118.664 75.4323 118.664 74.1171C118.664 72.8019 118.956 71.7789 119.59 70.9995C120.247 70.1957 121.148 69.806 122.317 69.806" fill="white"/>
<path d="M137.637 68.1494L131.889 76.5767V68.1494H129.722V80.1327H131.841L137.516 71.8272V80.1327H139.683V68.1494H137.637Z" fill="white"/>
<path d="M21.5062 46.0335H20.4833V43.2812H19.7039L20.0692 42.4531H21.5062V46.0335Z" fill="white"/>
<path d="M23.552 44.8154C23.4302 44.8641 23.2841 44.8885 23.1136 44.8885C22.8213 44.8885 22.5534 44.791 22.3342 44.5475C22.115 44.3283 22.0176 44.036 22.0176 43.695C22.0176 43.281 22.1637 42.94 22.456 42.6964C22.7483 42.4528 23.0893 42.3311 23.5277 42.3311C23.9661 42.3311 24.3071 42.4528 24.575 42.6964C24.8673 42.94 25.0134 43.2566 25.0134 43.6707C25.0134 43.8411 24.989 43.9873 24.9403 44.1578C24.8916 44.3283 24.8186 44.4988 24.7211 44.6936C24.6237 44.8641 24.5019 45.059 24.3558 45.2782L23.8199 46.0089H22.5778L23.1136 45.3756C23.3085 45.132 23.479 44.9372 23.6007 44.791L23.552 44.8154ZM23.5033 44.1821C23.6494 44.1821 23.7712 44.1334 23.8443 44.036C23.9417 43.9386 23.9661 43.8168 23.9661 43.6707C23.9661 43.5245 23.9174 43.4027 23.8199 43.3053C23.7225 43.2079 23.6007 43.1835 23.4546 43.1835C23.3085 43.1835 23.211 43.2322 23.1136 43.3053C23.0162 43.4027 22.9675 43.5002 22.9675 43.6463C22.9675 43.7924 23.0162 43.9142 23.1136 44.0116C23.211 44.1091 23.3085 44.1578 23.4546 44.1578L23.5033 44.1821Z" fill="white"/>
<path d="M26.8162 44.8154C26.6944 44.8641 26.5483 44.8885 26.3778 44.8885C26.0855 44.8885 25.8176 44.791 25.5984 44.5475C25.3792 44.3283 25.2817 44.036 25.2817 43.695C25.2817 43.281 25.4279 42.94 25.7202 42.6964C26.0124 42.4528 26.3534 42.3311 26.7918 42.3311C27.2302 42.3311 27.5712 42.4528 27.8392 42.6964C28.1314 42.94 28.2532 43.2566 28.2532 43.6707C28.2532 43.8411 28.2532 43.9873 28.1801 44.1578C28.1314 44.3283 28.0584 44.4988 27.9609 44.6936C27.8635 44.8641 27.7417 45.059 27.5956 45.2782L27.0597 46.0089H25.8176L26.3534 45.3756C26.5483 45.132 26.7188 44.9372 26.8405 44.791L26.8162 44.8154ZM26.7675 44.1821C26.9136 44.1821 27.0354 44.1334 27.1085 44.036C27.2059 43.9386 27.2302 43.8168 27.2302 43.6707C27.2302 43.5245 27.1815 43.4027 27.0841 43.3053C26.9867 43.2079 26.8649 43.1835 26.7431 43.1835C26.6213 43.1835 26.4996 43.2322 26.4021 43.3053C26.3047 43.4027 26.256 43.5002 26.256 43.6463C26.256 43.7924 26.3047 43.9142 26.4021 44.0116C26.4996 44.1091 26.597 44.1578 26.7675 44.1578V44.1821Z" fill="white"/>
<path d="M30.8838 44.1334C31.2735 44.3282 31.4927 44.6448 31.4927 45.0833C31.4927 45.3025 31.4196 45.4973 31.2978 45.6435C31.1761 45.8139 31.0056 45.9357 30.7864 46.0088C30.5672 46.0819 30.3236 46.1306 30.0557 46.1306C29.6416 46.1306 29.3006 46.0332 29.0327 45.8383C28.7648 45.6435 28.6187 45.3999 28.6187 45.0589C28.6187 44.6205 28.8135 44.3282 29.2032 44.109C28.8622 43.9385 28.6674 43.6706 28.6674 43.3052C28.6674 42.9886 28.8135 42.7451 29.0571 42.5746C29.325 42.4041 29.6416 42.3066 30.0313 42.3066C30.421 42.3066 30.762 42.4041 31.0299 42.5746C31.2735 42.7451 31.4196 42.9886 31.4196 43.3052C31.4196 43.6706 31.2491 43.9385 30.8838 44.109V44.1334ZM30.0313 45.3755C30.0313 45.3755 30.2505 45.3268 30.3479 45.2538C30.4454 45.1807 30.4697 45.0589 30.4697 44.9371C30.4697 44.8153 30.421 44.7179 30.3479 44.6205C30.2505 44.5474 30.1531 44.4987 30.0313 44.4987C29.9095 44.4987 29.8121 44.5474 29.7147 44.6205C29.6173 44.6936 29.5929 44.791 29.5929 44.9371C29.5929 45.0833 29.6416 45.1563 29.7147 45.2538C29.8121 45.3268 29.9095 45.3755 30.0313 45.3755ZM30.0313 43.7924C30.0313 43.7924 30.2262 43.768 30.2992 43.6949C30.3723 43.6219 30.421 43.5488 30.421 43.4514C30.421 43.354 30.3723 43.2565 30.2992 43.2078C30.2262 43.1348 30.1287 43.1104 30.0313 43.1104C29.9339 43.1104 29.8365 43.1348 29.7634 43.2078C29.6903 43.2809 29.6416 43.354 29.6416 43.4514C29.6416 43.5488 29.6903 43.6462 29.7634 43.6949C29.8365 43.7437 29.9339 43.7924 30.0313 43.7924Z" fill="white"/>
<path d="M49.4675 0C49.1021 0 40.6992 0 40.5287 0C34.5127 0.146138 28.9838 2.92276 25.2573 7.64788C21.4334 2.77662 15.7096 0 9.49879 0H0.34082V3.99443H9.52315C15.052 3.99443 20.1181 6.79541 23.0652 11.4718C23.869 12.7383 24.5023 14.1267 24.9163 15.5637L25.2573 16.7328L25.5983 15.5637C26.0124 14.1267 26.6456 12.7383 27.4494 11.4718C30.4209 6.79541 35.487 3.99443 40.9915 3.99443H45.814V26.6701H49.8085V0H49.4675Z" fill="white"/>
<path d="M40.6505 29.2275C35.5113 29.2275 31.322 25.0382 31.322 19.8991C31.322 14.7599 35.5113 10.5706 40.6505 10.5706H43.2323V6.57617H40.6505C33.2949 6.57617 27.3276 12.5678 27.3276 19.8991C27.3276 27.2303 33.3193 33.222 40.6505 33.222H45.9358V42.2825C45.9358 44.9617 45.0833 49.4676 39.3596 49.4676H33.3193C29.5197 49.4676 26.7674 50.8803 25.0868 52.1468C23.4062 50.8803 20.654 49.4676 16.8544 49.4676H10.814C5.11466 49.4676 4.23783 44.9617 4.23783 42.2825V10.5706H9.49879C14.638 10.5706 18.8273 14.7599 18.8273 19.8991C18.8273 25.0382 14.638 29.2275 9.49879 29.2275H6.79524V33.222H9.49879C16.8544 33.222 22.8217 27.2547 22.8217 19.8991C22.8217 12.5435 16.8544 6.57617 9.49879 6.57617H0.34082V42.2825C0.34082 50.4419 5.72356 53.3646 10.7897 53.3646H16.83C21.2142 53.3646 23.5037 55.8977 23.6011 55.9951L25.0625 57.7L26.5238 55.9951C26.5238 55.9951 28.9108 53.3646 33.2949 53.3646H39.3353C44.377 53.3646 49.7841 50.4419 49.7841 42.2825V29.2275H40.6261H40.6505Z" fill="white"/>
</svg>
