<svg width="253" height="53" viewBox="0 0 253 53" fill="none" xmlns="http://www.w3.org/2000/svg">
<g clip-path="url(#clip0_4967_7224)">
<path d="M60.499 28.5645H61.7426L64.2578 33.8183L66.745 28.5645H67.9607L64.6072 35.4393C63.8806 36.9204 63.2098 37.3955 62.3155 37.3955C61.9469 37.3935 61.582 37.3224 61.2396 37.1859V36.2078C61.5381 36.3727 61.8771 36.4501 62.2177 36.4313C62.8186 36.4313 63.2098 35.8445 63.5032 35.2436L63.643 34.9362L60.499 28.5645Z" fill="white"/>
<path d="M68.2402 37.1997V30.8838H73.4383V37.1438H72.4042V31.7921H69.2742V37.1438L68.2402 37.1997Z" fill="white"/>
<path d="M80.7178 34.0281C80.7178 36.152 79.6139 37.3956 77.7136 37.3956C77.2898 37.409 76.8681 37.3304 76.4777 37.1652C76.0872 37.0001 75.7372 36.7522 75.4517 36.4388C75.1662 36.1254 74.952 35.7539 74.8238 35.3498C74.6957 34.9457 74.6566 34.5186 74.7093 34.0979C74.6562 33.6693 74.697 33.2343 74.8289 32.8231C74.9609 32.4118 75.1807 32.0342 75.4732 31.7165C75.7657 31.3987 76.1239 31.1484 76.5228 30.9829C76.9217 30.8175 77.3519 30.7408 77.7834 30.7583C78.2021 30.7438 78.6188 30.8214 79.0042 30.9855C79.3896 31.1496 79.7344 31.3961 80.0142 31.7079C80.294 32.0196 80.502 32.389 80.6236 32.7899C80.7452 33.1908 80.7773 33.6134 80.7178 34.0281ZM75.7293 34.0281C75.7293 35.5651 76.4559 36.4734 77.7275 36.4734C78.999 36.4734 79.6698 35.5511 79.6698 34.0141C79.6698 32.477 78.9153 31.5688 77.6996 31.5688C76.4839 31.5688 75.7293 32.5749 75.7293 34.07V34.0281Z" fill="white"/>
<path d="M86.8663 37.1999H85.8882V31.8481H83.6664L83.5826 34.6427C83.5826 36.6828 82.7162 37.3536 81.8359 37.3536C81.5882 37.3543 81.3424 37.3117 81.1094 37.2278V36.3894C81.2837 36.4533 81.4688 36.4818 81.6543 36.4732C82.0595 36.4732 82.5206 36.11 82.5626 34.7546L82.6604 30.9678H86.9222L86.8663 37.1999Z" fill="white"/>
<path d="M88.3896 37.1997V30.8838H89.4237V33.3711H92.5537V30.8838H93.5877V37.1438H92.5537V34.3491H89.4237V37.1438L88.3896 37.1997Z" fill="white"/>
<path d="M100.867 34.0279C100.867 36.1518 99.7633 37.3954 97.863 37.3954C97.4346 37.4171 97.0067 37.3448 96.6094 37.1833C96.212 37.0218 95.855 36.7752 95.5633 36.4608C95.2715 36.1465 95.0522 35.7719 94.9208 35.3636C94.7894 34.9554 94.7492 34.5233 94.8028 34.0977C94.7498 33.6691 94.7906 33.2341 94.9225 32.8229C95.0544 32.4116 95.2743 32.034 95.5668 31.7163C95.8592 31.3985 96.2174 31.1482 96.6164 30.9828C97.0153 30.8173 97.4455 30.7406 97.877 30.7581C98.3002 30.7351 98.7233 30.8065 99.1157 30.9668C99.508 31.1271 99.8599 31.3725 100.146 31.6853C100.432 31.998 100.645 32.3704 100.77 32.7755C100.895 33.1806 100.928 33.6084 100.867 34.0279ZM95.8788 34.0279C95.8788 35.5649 96.6194 36.4732 97.877 36.4732C99.1346 36.4732 99.8192 35.551 99.8192 34.0139C99.8192 32.4768 99.0647 31.5686 97.849 31.5686C96.6333 31.5686 95.8788 32.5747 95.8788 34.0698V34.0279Z" fill="white"/>
<path d="M107.839 37.1997V32.2811L105.981 37.2276H105.031L103.186 32.2811V37.2276H102.152V30.8838H103.634L105.534 35.9561L107.434 30.8838H108.915V37.1438L107.839 37.1997Z" fill="white"/>
<path d="M116.14 34.0279C116.14 36.1518 115.036 37.3954 113.135 37.3954C112.707 37.4171 112.279 37.3448 111.882 37.1833C111.484 37.0218 111.127 36.7752 110.836 36.4608C110.544 36.1465 110.325 35.7719 110.193 35.3636C110.062 34.9554 110.022 34.5233 110.075 34.0977C110.022 33.6691 110.063 33.2341 110.195 32.8229C110.327 32.4116 110.547 32.034 110.839 31.7163C111.132 31.3985 111.49 31.1482 111.889 30.9828C112.288 30.8173 112.718 30.7406 113.149 30.7581C113.573 30.7351 113.996 30.8065 114.388 30.9668C114.78 31.1271 115.132 31.3725 115.418 31.6853C115.705 31.998 115.918 32.3704 116.042 32.7755C116.167 33.1806 116.2 33.6084 116.14 34.0279ZM111.137 34.0279C111.137 35.5649 111.878 36.4732 113.149 36.4732C114.421 36.4732 115.078 35.551 115.078 34.0139C115.078 32.4768 114.337 31.5686 113.121 31.5686C111.906 31.5686 111.137 32.5747 111.137 34.0698V34.0279Z" fill="white"/>
<path d="M121.171 37.1997V34.4051C120.534 34.5564 119.884 34.6498 119.229 34.6845C117.985 34.6845 117.189 34.0976 117.189 32.882V30.8838H118.223V32.6863C118.223 33.4828 118.656 33.7763 119.425 33.7763C120.016 33.7567 120.603 33.6628 121.171 33.4968V30.8838H122.205V37.1438L121.171 37.1997Z" fill="white"/>
<path d="M126.41 37.3961C125.99 37.4226 125.57 37.3543 125.181 37.1962C124.792 37.038 124.443 36.794 124.161 36.4825C123.879 36.171 123.671 35.7998 123.552 35.3967C123.434 34.9936 123.407 34.569 123.475 34.1544C123.423 33.7368 123.458 33.3127 123.579 32.9095C123.699 32.5063 123.903 32.1329 124.177 31.8131C124.451 31.4933 124.788 31.2343 125.168 31.0528C125.548 30.8712 125.961 30.7711 126.382 30.7588C128.436 30.7588 129.176 32.3937 129.176 34.1962V34.3499H124.467C124.433 34.6234 124.458 34.9013 124.542 35.1641C124.625 35.4268 124.765 35.6683 124.951 35.8717C125.137 36.0751 125.365 36.2355 125.619 36.3419C125.874 36.4483 126.148 36.4982 126.424 36.4879C126.831 36.5159 127.233 36.3865 127.548 36.1265C127.863 35.8665 128.065 35.4957 128.114 35.0905H129.121C129.057 35.7517 128.738 36.3619 128.232 36.7923C127.726 37.2226 127.073 37.4391 126.41 37.3961ZM126.41 31.6112C125.914 31.6222 125.443 31.8277 125.098 32.1833C124.753 32.5389 124.561 33.016 124.565 33.5116H128.212C128.226 33.2583 128.187 33.0048 128.097 32.7679C128.006 32.5309 127.867 32.3157 127.687 32.1363C127.508 31.957 127.293 31.8174 127.056 31.727C126.819 31.6365 126.565 31.5971 126.312 31.6112H126.41Z" fill="white"/>
<path d="M130.267 37.1997V30.8838H131.301V33.3711H134.431V30.8838H135.451V37.1438H134.431V34.3491H131.301V37.1438L130.267 37.1997Z" fill="white"/>
<path d="M137.002 37.1997V30.8838H138.036V33.3711H141.166V30.8838H142.2V37.1438H141.166V34.3491H138.036V37.1438L137.002 37.1997Z" fill="white"/>
<path d="M146.728 37.1997H143.709V30.8838H144.743V33.2732H146.686C146.95 33.2448 147.217 33.2737 147.469 33.3581C147.721 33.4425 147.952 33.5802 148.145 33.762C148.339 33.9438 148.491 34.1654 148.591 34.4114C148.692 34.6574 148.737 34.9222 148.726 35.1876C148.749 35.4564 148.713 35.7271 148.621 35.9808C148.529 36.2345 148.383 36.465 148.193 36.6565C148.003 36.848 147.773 36.9958 147.52 37.0896C147.267 37.1834 146.997 37.221 146.728 37.1997ZM144.743 34.2094V36.2914H146.364C147.203 36.2914 147.65 35.9141 147.65 35.2434C147.65 34.5727 147.217 34.2094 146.364 34.2094H144.743ZM150.752 30.9397V37.1997H149.718V30.8838L150.752 30.9397Z" fill="white"/>
<path d="M152.289 37.2005V30.8846H153.323V35.9849L156.117 30.8846H157.431V37.1446H156.411V32.0304L153.616 37.1446L152.289 37.2005ZM154.888 30.2139C154.426 30.2222 153.978 30.0529 153.638 29.7408C153.297 29.4288 153.089 28.9979 153.057 28.5371H153.672C153.734 28.8104 153.889 29.0536 154.111 29.2245C154.333 29.3955 154.608 29.4834 154.888 29.4733C155.165 29.4775 155.435 29.387 155.653 29.2168C155.872 29.0465 156.026 28.8067 156.089 28.5371H156.718C156.693 29.0029 156.488 29.4408 156.147 29.7587C155.805 30.0766 155.354 30.2497 154.888 30.2418V30.2139Z" fill="white"/>
<path d="M167.939 37.1718C167.715 37.2551 167.479 37.2977 167.24 37.2976C167.117 37.3085 166.993 37.292 166.877 37.2494C166.761 37.2067 166.655 37.1389 166.569 37.0507C166.482 36.9626 166.415 36.8563 166.375 36.7395C166.334 36.6228 166.319 36.4983 166.332 36.3753C166.056 36.7031 165.708 36.9632 165.316 37.1352C164.923 37.3072 164.496 37.3867 164.068 37.3674C163.816 37.4039 163.558 37.385 163.314 37.3121C163.069 37.2393 162.843 37.1141 162.652 36.9453C162.461 36.7765 162.308 36.5681 162.205 36.3346C162.102 36.1011 162.052 35.8479 162.056 35.5928C162.056 34.4749 162.797 33.8181 164.278 33.6365C165.759 33.4548 166.276 33.4968 166.276 32.6445C166.276 31.7921 165.787 31.6104 164.879 31.6104C163.971 31.6104 163.481 31.9737 163.328 32.896H162.322C162.322 31.4986 163.328 30.772 164.935 30.772C165.643 30.725 166.344 30.9387 166.905 31.3728C167.08 31.6013 167.207 31.8625 167.279 32.1409C167.351 32.4193 167.366 32.7093 167.324 32.9938C167.324 33.93 167.324 34.8522 167.324 35.7884C167.324 36.2495 167.422 36.4033 167.743 36.4033H167.995L167.939 37.1718ZM164.893 34.3771C164.152 34.4749 163.132 34.5587 163.132 35.5648C163.132 36.2076 163.607 36.6128 164.376 36.6128C165.354 36.6128 166.276 35.9421 166.276 35.2155V34.0697C165.844 34.2701 165.368 34.3567 164.893 34.3213V34.3771Z" fill="white"/>
<path d="M169.965 31.8479V37.1997H168.931V30.8838H173.234V31.7921L169.965 31.8479Z" fill="white"/>
<path d="M176.337 37.3961C175.917 37.4248 175.495 37.3582 175.104 37.2009C174.713 37.0437 174.363 36.8001 174.079 36.4883C173.796 36.1765 173.586 35.8046 173.467 35.4004C173.347 34.9962 173.321 34.5703 173.389 34.1544C173.336 33.7368 173.371 33.3127 173.492 32.9095C173.613 32.5063 173.817 32.1329 174.091 31.8131C174.364 31.4933 174.702 31.2343 175.082 31.0528C175.461 30.8712 175.875 30.7711 176.296 30.7588C178.364 30.7588 179.09 32.3937 179.09 34.1962V34.3499H174.381C174.344 34.6227 174.368 34.9002 174.449 35.163C174.531 35.4259 174.669 35.6676 174.854 35.8713C175.039 36.0751 175.267 36.2358 175.521 36.3423C175.774 36.4488 176.048 36.4985 176.323 36.4879C176.731 36.5159 177.133 36.3865 177.448 36.1265C177.762 35.8665 177.965 35.4957 178.014 35.0905H179.02C178.96 35.7479 178.646 36.3559 178.145 36.7862C177.645 37.2164 176.996 37.4351 176.337 37.3961ZM176.268 31.6112C175.772 31.6222 175.301 31.8277 174.956 32.1833C174.611 32.5389 174.419 33.016 174.423 33.5116H178.112C178.126 33.2632 178.088 33.0147 178.001 32.7817C177.913 32.5487 177.779 32.3362 177.606 32.1577C177.432 31.9792 177.224 31.8386 176.994 31.7445C176.764 31.6505 176.516 31.6051 176.268 31.6112Z" fill="white"/>
<path d="M180.221 37.1997V30.8838H181.255V33.3711H184.385V30.8838H185.419V37.1438H184.385V34.3491H181.255V37.1438L180.221 37.1997Z" fill="white"/>
<path d="M189.514 31.8479V37.1997H188.48V31.8479H186.244V30.8838H191.764V31.7921L189.514 31.8479Z" fill="white"/>
<path d="M61.2808 48.8821V42.6221H66.4648V48.8821H65.4448V43.5303H62.3148V48.8821H61.2808Z" fill="white"/>
<path d="M73.7598 45.7094C73.7598 47.8334 72.6559 49.077 70.7555 49.077C70.3272 49.0988 69.8994 49.0263 69.502 48.8649C69.1047 48.7034 68.7476 48.4568 68.4558 48.1424C68.1641 47.828 67.9448 47.4536 67.8134 47.0453C67.6821 46.637 67.6418 46.2048 67.6954 45.7793C67.6423 45.3507 67.6832 44.9157 67.8151 44.5044C67.9471 44.0932 68.1669 43.7156 68.4594 43.3979C68.7519 43.0801 69.11 42.8299 69.5089 42.6644C69.9079 42.4989 70.338 42.4223 70.7695 42.4398C71.1928 42.4168 71.6159 42.488 72.0082 42.6484C72.4006 42.8087 72.7525 43.0541 73.0386 43.3669C73.3246 43.6797 73.5377 44.052 73.6624 44.4571C73.7872 44.8622 73.8204 45.2899 73.7598 45.7094ZM68.7574 45.7094C68.7574 47.2465 69.498 48.1548 70.7695 48.1548C72.0411 48.1548 72.6979 47.2325 72.6979 45.6955C72.6979 44.1584 71.9572 43.2641 70.7416 43.2641C69.5259 43.2641 68.7574 44.2563 68.7574 45.7514V45.7094Z" fill="white"/>
<path d="M79.3213 43.4598C79.5416 43.1053 79.8547 42.8177 80.2265 42.628C80.5984 42.4384 81.0149 42.354 81.4313 42.3838C83.1779 42.3838 84.2259 43.6414 84.2259 45.6675C84.2259 47.6937 83.136 48.9932 81.4313 48.9932C81.0222 49.0175 80.6139 48.9349 80.2464 48.7536C79.8789 48.5723 79.5649 48.2985 79.3353 47.9591V51.2568H78.3013V42.5794H79.2654L79.3213 43.4598ZM79.3213 45.6815C79.3213 47.2046 80.0759 48.1269 81.2916 48.1269C82.5072 48.1269 83.1919 47.1906 83.1919 45.6815C83.1919 44.1724 82.4653 43.2501 81.2496 43.2501C80.0339 43.2501 79.3493 44.2143 79.3493 45.7234L79.3213 45.6815Z" fill="white"/>
<path d="M88.1665 49.0497C87.7446 49.0789 87.3216 49.0121 86.9293 48.8541C86.537 48.6961 86.1857 48.4511 85.9019 48.1377C85.618 47.8242 85.409 47.4504 85.2905 47.0444C85.1721 46.6384 85.1474 46.2109 85.2181 45.7939C85.1653 45.3763 85.2004 44.9524 85.3213 44.5492C85.4421 44.146 85.6458 43.7725 85.9195 43.4527C86.1932 43.133 86.5308 42.874 86.9106 42.6924C87.2903 42.5109 87.7038 42.4107 88.1245 42.3984C90.1926 42.3984 90.9192 44.0334 90.9192 45.8499V45.9896H86.2242C86.187 46.2635 86.2106 46.5423 86.2931 46.8062C86.3756 47.0701 86.5151 47.3126 86.7018 47.5165C86.8884 47.7205 87.1176 47.881 87.3731 47.9865C87.6287 48.0921 87.9043 48.1403 88.1805 48.1275C88.5861 48.1553 88.9868 48.0255 89.2992 47.7652C89.6115 47.5049 89.8114 47.1342 89.8573 46.7302H90.8633C90.8097 47.394 90.4965 48.0099 89.9916 48.4442C89.4867 48.8785 88.8308 49.096 88.1665 49.0497ZM88.1665 43.2508C87.671 43.2618 87.1998 43.4673 86.8547 43.8229C86.5096 44.1785 86.3182 44.6557 86.322 45.1512H89.955C89.8013 44.0054 89.1307 43.2927 88.1106 43.2927L88.1665 43.2508Z" fill="white"/>
<path d="M97.5979 48.8535C97.374 48.9357 97.1376 48.9783 96.8992 48.9793C96.776 48.9903 96.6518 48.9739 96.5356 48.9312C96.4195 48.8886 96.3142 48.8207 96.2274 48.7325C96.1406 48.6444 96.0744 48.5381 96.0335 48.4213C95.9926 48.3045 95.978 48.1801 95.9909 48.057C95.7135 48.3868 95.3635 48.648 94.9684 48.8201C94.5733 48.9922 94.1437 49.0706 93.7133 49.0492C93.4618 49.0835 93.2058 49.0629 92.963 48.989C92.7202 48.9152 92.4962 48.7897 92.3064 48.6211C92.1166 48.4526 91.9655 48.2449 91.8634 48.0125C91.7614 47.7801 91.7108 47.5283 91.7151 47.2745C91.7151 46.1567 92.4557 45.514 93.9369 45.3323C95.418 45.1507 95.935 45.1786 95.935 44.3262C95.935 43.4738 95.446 43.3062 94.5377 43.3062C93.6295 43.3062 93.1404 43.6555 92.9867 44.5777H91.9666C91.9666 43.1804 92.9867 42.4538 94.5936 42.4538C95.3008 42.4145 95.999 42.6274 96.5639 43.0547C96.7382 43.286 96.865 43.5496 96.937 43.8302C97.0089 44.1108 97.0246 44.4028 96.983 44.6895C96.983 45.6118 96.983 46.534 96.983 47.4842C96.983 47.9453 97.0948 48.099 97.4162 48.099C97.4995 48.1121 97.5844 48.1121 97.6677 48.099L97.5979 48.8535ZM94.5517 46.0589C93.7972 46.1567 92.7911 46.2406 92.7911 47.2467C92.7911 47.8894 93.2522 48.2946 94.0347 48.2946C94.8172 48.2946 95.935 47.6239 95.935 46.8973V45.7515C95.5029 45.9519 95.0267 46.0384 94.5517 46.003V46.0589Z" fill="white"/>
<path d="M103.787 48.8815H102.753V43.5297H100.517L100.434 46.3244C100.434 48.3784 99.5673 49.0352 98.701 49.0352C98.4488 49.0356 98.1984 48.9931 97.9604 48.9095V48.071C98.1355 48.1319 98.3202 48.1603 98.5054 48.1549C98.9246 48.1549 99.3857 47.7916 99.4136 46.4362L99.5254 42.6494H103.717L103.787 48.8815Z" fill="white"/>
<path d="M105.312 48.8821V42.6221H106.346V47.7223L109.14 42.6221H110.454V48.8821H109.434V43.7818L106.639 48.8821H105.312Z" fill="white"/>
<path d="M114.338 42.4395C115.623 42.4395 116.699 42.9564 116.699 44.1302C116.693 44.4277 116.592 44.7155 116.411 44.9518C116.23 45.1881 115.979 45.3604 115.693 45.4436C116.049 45.5109 116.369 45.7053 116.593 45.9906C116.816 46.2759 116.929 46.6328 116.909 46.9947C116.909 48.3921 115.623 49.0488 114.31 49.0488C112.675 49.0488 111.669 48.2523 111.515 46.8969H112.563C112.563 47.7912 113.304 48.2104 114.226 48.2104C115.148 48.2104 115.763 47.6654 115.763 47.0226C115.763 46.3799 115.386 46.0026 114.435 46.0026H113.569V45.1642H114.268C114.994 45.1642 115.581 44.8847 115.581 44.1441C115.581 43.683 115.106 43.2498 114.268 43.2498C113.429 43.2498 112.759 43.5573 112.675 44.3957H111.627C111.795 42.8865 113.08 42.4395 114.338 42.4395Z" fill="white"/>
<path d="M123.616 48.8532C123.393 48.9353 123.156 48.9779 122.918 48.979C122.794 48.9926 122.669 48.978 122.551 48.9362C122.434 48.8945 122.327 48.8267 122.24 48.738C122.153 48.6492 122.087 48.5418 122.047 48.4238C122.007 48.3059 121.994 48.1803 122.009 48.0567C121.732 48.3865 121.382 48.6476 120.987 48.8197C120.592 48.9919 120.162 49.0703 119.732 49.0488C119.48 49.0831 119.224 49.0626 118.982 48.9887C118.739 48.9148 118.515 48.7893 118.325 48.6208C118.135 48.4522 117.984 48.2446 117.882 48.0122C117.78 47.7798 117.729 47.528 117.734 47.2742C117.734 46.1563 118.474 45.5136 119.955 45.332C121.437 45.1503 121.954 45.1782 121.954 44.3259C121.954 43.4735 121.465 43.3058 120.556 43.3058C119.648 43.3058 119.089 43.6551 118.991 44.5774H118.027C118.027 43.18 119.033 42.4535 120.654 42.4535C121.357 42.4113 122.052 42.6247 122.61 43.0543C122.79 43.2831 122.921 43.546 122.995 43.8271C123.07 44.1082 123.086 44.4015 123.044 44.6892C123.044 45.6114 123.044 46.5336 123.044 47.4838C123.044 47.9449 123.155 48.0987 123.477 48.0987C123.56 48.1117 123.645 48.1117 123.728 48.0987L123.616 48.8532ZM120.57 46.0585C119.816 46.1563 118.796 46.2402 118.796 47.2463C118.796 47.8891 119.271 48.2943 120.053 48.2943C120.836 48.2943 121.954 47.6236 121.954 46.897V45.7512C121.534 45.9446 121.073 46.031 120.612 46.0027L120.57 46.0585Z" fill="white"/>
<path d="M129.596 48.8821H124.622V42.6221H125.656V47.9738H128.744V42.6221H129.764V47.9738H130.574V50.8662H129.596V48.8821Z" fill="white"/>
<path d="M131.539 48.8821V42.6221H132.573V47.7223L135.367 42.6221H136.681V48.8821H135.661V43.7818L132.866 48.8821H131.539Z" fill="white"/>
<path d="M138.288 48.8821V42.6221H139.308V47.7223L142.103 42.6221H143.5V48.8821H142.466V43.7818L139.671 48.8821H138.288Z" fill="white"/>
<path d="M148.39 48.8821V42.6221H149.424V45.1093H152.554V42.6221H153.588V48.8821H152.554V46.0874H149.424V48.8821H148.39Z" fill="white"/>
<path d="M157.753 49.0497C157.331 49.0789 156.908 49.0121 156.516 48.8541C156.123 48.6961 155.772 48.4511 155.488 48.1377C155.204 47.8242 154.995 47.4504 154.877 47.0444C154.759 46.6384 154.734 46.2109 154.805 45.7939C154.752 45.3752 154.787 44.9501 154.909 44.5459C155.031 44.1418 155.236 43.7676 155.511 43.4476C155.786 43.1276 156.125 42.869 156.507 42.6882C156.888 42.5075 157.303 42.4088 157.725 42.3984C159.779 42.3984 160.52 44.0334 160.52 45.8499V45.9896H155.811C155.773 46.2635 155.797 46.5423 155.88 46.8062C155.962 47.0701 156.102 47.3126 156.288 47.5165C156.475 47.7205 156.704 47.881 156.96 47.9865C157.215 48.0921 157.491 48.1403 157.767 48.1275C158.173 48.1553 158.573 48.0255 158.886 47.7652C159.198 47.5049 159.398 47.1342 159.444 46.7302H160.45C160.396 47.394 160.083 48.0099 159.578 48.4442C159.073 48.8785 158.417 49.096 157.753 49.0497ZM157.753 43.2508C157.257 43.2618 156.786 43.4673 156.441 43.8229C156.096 44.1785 155.905 44.6557 155.908 45.1512H159.542C159.388 44.0054 158.731 43.2927 157.697 43.2927L157.753 43.2508Z" fill="white"/>
<path d="M166.514 50.8665V48.8823H161.735V50.8665H160.757V47.974H161.428C161.953 46.7024 162.224 45.3398 162.224 43.9637V42.5664H166.681V47.9182H167.492V50.8107L166.514 50.8665ZM165.647 43.5306H163.23V44.0476C163.238 45.3905 162.991 46.7228 162.503 47.974H165.647V43.5306Z" fill="white"/>
<path d="M168.33 42.6221H171.223C172.313 42.6221 173.375 42.8596 173.375 44.1451C173.392 44.4464 173.312 44.7453 173.146 44.9972C172.98 45.2491 172.736 45.4403 172.452 45.5424C172.811 45.5946 173.135 45.7841 173.357 46.0709C173.579 46.3576 173.68 46.7193 173.64 47.0795C173.644 47.3289 173.597 47.5764 173.502 47.8067C173.406 48.037 173.264 48.2452 173.084 48.4182C172.905 48.5912 172.691 48.7255 172.458 48.8125C172.224 48.8995 171.975 48.9374 171.726 48.9239H168.33V42.6221ZM172.299 44.3128C172.299 43.7818 172.019 43.5024 171.111 43.5024H169.336V45.1512H171.125C172.033 45.1512 172.341 44.8577 172.341 44.3128H172.299ZM169.336 48.0017H171.544C171.682 48.008 171.82 47.985 171.948 47.9342C172.077 47.8834 172.193 47.8058 172.29 47.7068C172.386 47.6078 172.46 47.4895 172.508 47.3597C172.555 47.2299 172.574 47.0915 172.564 46.9537C172.564 46.3808 172.201 46.0176 171.349 46.0176H169.336V48.0017Z" fill="white"/>
<path d="M174.898 48.8821V42.6221H175.932V47.7223L178.727 42.6221H180.054V48.8821H179.02V43.7818L176.225 48.8821H174.898Z" fill="white"/>
<path d="M182.136 48.8821H180.906L183.701 45.1931L181.311 42.6221H182.597L185.14 45.5006V42.6221H186.16V45.5006L188.703 42.6221H189.975L187.586 45.1931L190.38 48.8821H189.095L186.957 45.8499L186.174 46.6324V48.8821H185.098V46.6324L184.316 45.8499L182.136 48.8821Z" fill="white"/>
<path d="M191.079 48.8821V42.6221H192.113V47.7223L194.908 42.6221H196.221V48.8821H195.201V43.7818L192.406 48.8821H191.079Z" fill="white"/>
<path d="M203.571 48.8821V43.9495L201.713 48.8821H200.776L198.918 43.9495V48.8821H197.898V42.6221H199.295L201.21 47.6944L203.124 42.6221H204.661V48.8821H203.571Z" fill="white"/>
<path d="M211.856 45.7094C211.856 47.8334 210.752 49.077 208.852 49.077C208.424 49.0988 207.996 49.0263 207.598 48.8649C207.201 48.7034 206.844 48.4568 206.552 48.1424C206.261 47.828 206.041 47.4536 205.91 47.0453C205.779 46.637 205.738 46.2048 205.792 45.7793C205.739 45.3507 205.78 44.9157 205.911 44.5044C206.043 44.0932 206.263 43.7156 206.556 43.3979C206.848 43.0801 207.206 42.8299 207.605 42.6644C208.004 42.4989 208.434 42.4223 208.866 42.4398C209.289 42.4168 209.712 42.488 210.105 42.6484C210.497 42.8087 210.849 43.0541 211.135 43.3669C211.421 43.6797 211.634 44.052 211.759 44.4571C211.884 44.8622 211.917 45.2899 211.856 45.7094ZM206.868 45.7094C206.868 47.2465 207.608 48.1548 208.866 48.1548C210.124 48.1548 210.808 47.2325 210.808 45.6955C210.808 44.1584 210.054 43.2641 208.838 43.2641C207.622 43.2641 206.868 44.2563 206.868 45.7514V45.7094Z" fill="white"/>
<path d="M215.741 49.0492C215.324 49.0666 214.907 48.9928 214.521 48.8331C214.135 48.6734 213.789 48.4316 213.505 48.1245C213.222 47.8173 213.009 47.4523 212.881 47.0546C212.753 46.6569 212.714 46.2361 212.765 45.8214C212.708 45.3942 212.745 44.9599 212.871 44.5479C212.998 44.136 213.212 43.7561 213.498 43.434C213.784 43.1119 214.136 42.8552 214.531 42.6813C214.925 42.5073 215.352 42.4203 215.783 42.4259C216.104 42.3913 216.429 42.4219 216.738 42.5157C217.048 42.6096 217.335 42.765 217.583 42.9724C217.831 43.1798 218.034 43.435 218.181 43.7229C218.328 44.0107 218.415 44.3252 218.438 44.6476H217.362C217.333 44.2572 217.154 43.8933 216.862 43.6326C216.57 43.3718 216.188 43.2348 215.797 43.2503C214.595 43.2503 213.855 44.1865 213.855 45.6956C213.855 47.2047 214.553 48.1409 215.713 48.1409C216.151 48.1524 216.576 47.9922 216.897 47.6946C217.218 47.3969 217.41 46.9854 217.432 46.5481H218.466C218.453 46.8919 218.373 47.2298 218.228 47.5422C218.084 47.8547 217.879 48.1353 217.626 48.368C217.373 48.6006 217.075 48.7807 216.752 48.8977C216.428 49.0146 216.085 49.0661 215.741 49.0492Z" fill="white"/>
<path d="M222.141 43.5303V48.8821H221.107V43.5303H218.871V42.6221H224.461V43.5303H222.141Z" fill="white"/>
<path d="M225.215 48.8821V42.6221H226.249V47.7223L229.044 42.6221H230.357V48.8821H229.323V43.7818L226.529 48.8821H225.215Z" fill="white"/>
<path d="M74.9894 4.44629L69.5957 16.9244L64.188 4.44629H60.8345V20.8509H63.7828V10.1893L68.3381 20.8509H70.8253L75.3806 10.1893V20.8509H78.3429V4.44629H74.9894Z" fill="white"/>
<path d="M88.4729 4.12593C87.3612 4.06913 86.251 4.26181 85.2234 4.68976C84.1958 5.11771 83.277 5.77012 82.5343 6.59922C81.1106 8.2948 80.3818 10.4664 80.4942 12.6775C80.3985 14.8778 81.1258 17.0349 82.5343 18.728C83.2845 19.5458 84.2054 20.1888 85.2316 20.6114C86.2578 21.0339 87.3643 21.2257 88.4729 21.1733C89.5766 21.2234 90.678 21.0332 91.701 20.6158C92.7239 20.1984 93.644 19.5638 94.3976 18.756C95.8313 17.0645 96.5703 14.8924 96.4656 12.6775C96.5718 10.454 95.8331 8.27265 94.3976 6.57125C93.6513 5.75222 92.7331 5.10832 91.7089 4.68558C90.6846 4.26284 89.5796 4.07171 88.4729 4.12593ZM92.2038 16.9813C91.7372 17.5021 91.1599 17.9117 90.5143 18.1801C89.8687 18.4485 89.1711 18.5689 88.4729 18.5323C87.7637 18.5709 87.0553 18.4446 86.4032 18.1634C85.751 17.8822 85.1728 17.4536 84.7141 16.9115C83.8196 15.7032 83.3748 14.2206 83.4565 12.7195C83.3609 11.1908 83.8061 9.67721 84.7141 8.4437C85.1714 7.899 85.749 7.4678 86.4012 7.18411C87.0534 6.90043 87.7626 6.77202 88.4729 6.80886C89.1725 6.75974 89.874 6.87429 90.5216 7.14352C91.1692 7.41275 91.7452 7.82923 92.2038 8.35987C93.1235 9.62074 93.5777 11.1614 93.4893 12.7195C93.5764 14.2602 93.1216 15.7828 92.2038 17.0233" fill="white"/>
<path d="M110.076 15.0667C109.866 16.1017 109.315 17.0365 108.511 17.7216C107.721 18.2827 106.769 18.5676 105.8 18.532C105.09 18.5839 104.378 18.4666 103.722 18.1897C103.066 17.9127 102.486 17.4842 102.028 16.9391C101.22 15.6958 100.828 14.2277 100.91 12.7471C100.83 11.2629 101.232 9.7927 102.056 8.55518C102.477 7.98877 103.035 7.53807 103.678 7.24493C104.32 6.95179 105.026 6.8257 105.73 6.87837C106.675 6.83325 107.611 7.07696 108.413 7.57703C109.147 8.11087 109.647 8.90628 109.811 9.79873V9.92453H112.703V9.74287C112.511 8.18593 111.731 6.76128 110.523 5.76053C109.152 4.70933 107.457 4.17052 105.73 4.23741C104.594 4.16974 103.458 4.37109 102.414 4.82511C101.37 5.27914 100.447 5.97302 99.722 6.8504C98.4542 8.56278 97.8173 10.6608 97.9194 12.789C97.8111 14.9007 98.4273 16.9861 99.6661 18.6998C100.409 19.5798 101.35 20.2724 102.41 20.7215C103.471 21.1707 104.623 21.3636 105.772 21.2848C107.426 21.3228 109.041 20.7843 110.342 19.7617C111.732 18.6286 112.653 17.0207 112.927 15.2483V15.0527H110.048L110.076 15.0667Z" fill="white"/>
<path d="M121.953 4.44629H115.12V20.8509H118.027V14.6747H121.855C125.866 14.6747 127.892 12.942 127.892 9.53248C127.892 6.12301 125.88 4.44629 121.897 4.44629M118.027 7.01732H121.702C122.561 6.94372 123.42 7.15485 124.147 7.61816C124.417 7.85426 124.627 8.15074 124.76 8.48338C124.894 8.81602 124.947 9.17543 124.915 9.53248C124.952 9.89699 124.903 10.2651 124.772 10.6072C124.641 10.9493 124.432 11.256 124.161 11.5028C123.426 11.9596 122.564 12.1701 121.702 12.1036H118.027V7.01732Z" fill="white"/>
<path d="M132.852 13.7385H141.278V11.1674H132.852V7.03134H141.809V4.44629H129.89V20.8509H142.201V18.2798H132.852V13.7385Z" fill="white"/>
<path d="M161.498 16.0441C161.462 16.3727 161.356 16.6899 161.187 16.9743C161.018 17.2586 160.791 17.5037 160.52 17.6929C160.089 17.9149 159.607 18.0209 159.122 18.0003H158.284V20.4037L152.178 4.44629H148.964L142.69 20.8509H145.848L147.315 16.8126H153.827L155.224 20.8509H159.681C160.849 20.9188 161.998 20.5276 162.881 19.7609C163.716 18.8214 164.234 17.6434 164.362 16.3934L165.871 7.01732H170.175V20.8509H173.138V4.44629H163.356L161.498 16.0441ZM152.932 14.3393H148.237L150.599 7.78583L152.932 14.3393Z" fill="white"/>
<path d="M187.501 15.0667C187.285 16.0995 186.735 17.0324 185.936 17.7217C185.122 18.2978 184.138 18.5832 183.142 18.5321C182.452 18.5606 181.765 18.4291 181.135 18.1479C180.505 17.8667 179.948 17.4434 179.509 16.9112C178.701 15.6679 178.309 14.1998 178.391 12.7192C178.306 11.2343 178.708 9.76222 179.537 8.52726C179.959 7.96085 180.516 7.51015 181.159 7.21701C181.801 6.92387 182.508 6.79778 183.212 6.85045C184.156 6.8071 185.091 7.05067 185.895 7.54911C186.62 8.09062 187.118 8.88257 187.292 9.7709V9.89661H190.17V9.71495C189.99 8.15742 189.214 6.73017 188.005 5.73261C186.634 4.68141 184.938 4.1426 183.212 4.20949C182.075 4.14069 180.938 4.34156 179.894 4.79566C178.85 5.24976 177.928 5.94431 177.203 6.82256C175.915 8.51258 175.249 10.5952 175.317 12.7192C175.209 14.8309 175.825 16.9162 177.064 18.6299C177.81 19.5102 178.752 20.2028 179.816 20.6518C180.879 21.1009 182.032 21.2938 183.184 21.215C184.837 21.2483 186.451 20.7103 187.753 19.6919C189.139 18.5573 190.055 16.9493 190.324 15.1785V14.9829H187.432L187.501 15.0667Z" fill="white"/>
<path d="M191.317 7.03134H196.585V20.8648H199.547V7.03134H204.815V4.44629H191.317V7.03134Z" fill="white"/>
<path d="M213.226 4.44629H206.407V20.8509H209.356V14.6747H213.184C217.195 14.6747 219.235 12.942 219.235 9.53248C219.235 6.12301 217.209 4.44629 213.226 4.44629ZM209.356 7.01732H213.045C213.904 6.94372 214.763 7.15485 215.49 7.61816C215.762 7.85208 215.975 8.1482 216.108 8.48142C216.242 8.81464 216.294 9.17513 216.259 9.53248C216.294 9.89563 216.245 10.2621 216.117 10.6036C215.989 10.9451 215.784 11.2527 215.518 11.5028C214.778 11.9598 213.912 12.1702 213.045 12.1036H209.37L209.356 7.01732Z" fill="white"/>
<path d="M228.416 4.12557C227.306 4.06988 226.198 4.26316 225.173 4.69111C224.148 5.11905 223.232 5.77086 222.491 6.59887C221.06 8.28528 220.325 10.4541 220.437 12.6633C220.343 14.8699 221.075 17.0323 222.491 18.7276C223.239 19.5451 224.157 20.188 225.181 20.6107C226.205 21.0333 227.309 21.2252 228.416 21.1729C229.523 21.2252 230.628 21.0347 231.654 20.6147C232.68 20.1947 233.602 19.5554 234.354 18.7416C235.784 17.0481 236.523 14.8775 236.422 12.6633C236.521 10.4451 235.783 8.27075 234.354 6.57089C233.604 5.75307 232.683 5.11017 231.657 4.68761C230.631 4.26505 229.524 4.07315 228.416 4.12557ZM228.416 6.76654C229.114 6.71789 229.814 6.83133 230.461 7.09796C231.108 7.36459 231.685 7.77725 232.147 8.30365C233.073 9.56163 233.533 11.1032 233.446 12.6633C233.537 14.2109 233.077 15.7407 232.147 16.981C231.68 17.5008 231.102 17.9089 230.456 18.175C229.811 18.4411 229.113 18.5583 228.416 18.5181C227.71 18.5594 227.004 18.4356 226.354 18.1567C225.704 17.8778 225.127 17.4513 224.671 16.9111C223.772 15.7042 223.323 14.2218 223.399 12.7192C223.31 11.1933 223.76 9.68468 224.671 8.45733C225.125 7.91205 225.699 7.4803 226.35 7.19646C227 6.91263 227.707 6.78457 228.416 6.82249" fill="white"/>
<path d="M242.556 2.93736C243.416 3.48772 244.43 3.74737 245.448 3.67798C246.467 3.74539 247.48 3.4859 248.341 2.93736C249.042 2.34578 249.483 1.50306 249.57 0.589862V0.408203H247.237V0.534C247.213 0.971128 247.029 1.38412 246.72 1.69372C246.333 1.92677 245.884 2.03422 245.434 2.00117C244.988 2.03798 244.542 1.93015 244.163 1.69372C243.848 1.38629 243.659 0.97304 243.632 0.534V0.408203H241.298V0.589862C241.335 1.0436 241.463 1.48523 241.674 1.88851C241.886 2.29179 242.176 2.64848 242.528 2.93736" fill="white"/>
<path d="M249.472 4.44629L241.591 15.9742V4.44629H238.629V20.8509H241.508L249.305 9.47666V20.8509H252.295V4.44629H249.472Z" fill="white"/>
<path d="M18.4398 42.8177H17.5874V40.4841H16.9307L17.2381 39.7715H18.4398V42.8177Z" fill="white"/>
<path d="M20.214 41.7834C20.0936 41.8294 19.9657 41.8531 19.8367 41.8533C19.7141 41.8534 19.5926 41.8288 19.4797 41.7808C19.3669 41.7327 19.265 41.6624 19.18 41.5739C19.0871 41.4748 19.0146 41.3584 18.9667 41.2314C18.9187 41.1043 18.8963 40.969 18.9006 40.8332C18.8946 40.6739 18.9254 40.5152 18.9909 40.3698C19.0563 40.2244 19.1545 40.0961 19.2778 39.9949C19.5274 39.7849 19.8462 39.6753 20.1721 39.6874C20.498 39.6753 20.8168 39.7849 21.0664 39.9949C21.1852 40.096 21.2796 40.2227 21.3425 40.3655C21.4055 40.5082 21.4353 40.6633 21.4297 40.8193C21.4508 40.9582 21.4508 41.0995 21.4297 41.2384C21.391 41.3955 21.3298 41.5461 21.2481 41.6856C21.1576 41.859 21.0499 42.0229 20.9267 42.1747L20.4795 42.8035H19.4315L19.8647 42.2725L20.284 41.7694L20.214 41.7834ZM20.214 41.2384C20.2679 41.2403 20.3216 41.2314 20.372 41.2122C20.4224 41.193 20.4684 41.1639 20.5074 41.1267C20.5464 41.0861 20.5765 41.0377 20.5958 40.9848C20.615 40.9319 20.6231 40.8755 20.6193 40.8193C20.6212 40.7654 20.6121 40.7117 20.5929 40.6613C20.5737 40.6109 20.5446 40.5649 20.5074 40.5259C20.4668 40.4869 20.4184 40.4568 20.3655 40.4375C20.3126 40.4183 20.2563 40.4103 20.2001 40.4141C20.1461 40.4114 20.0921 40.42 20.0416 40.4392C19.9911 40.4585 19.9452 40.488 19.9067 40.5259C19.8664 40.5627 19.8353 40.6083 19.8159 40.6593C19.7965 40.7102 19.7892 40.765 19.7948 40.8193C19.7919 40.8754 19.8003 40.9316 19.8195 40.9844C19.8387 41.0372 19.8684 41.0856 19.9067 41.1267C19.9428 41.1686 19.988 41.2017 20.0389 41.2235C20.0897 41.2453 20.1448 41.2552 20.2001 41.2524L20.214 41.2384Z" fill="white"/>
<path d="M23.0081 41.7835C22.8877 41.8295 22.7598 41.8532 22.6308 41.8533C22.5103 41.8533 22.391 41.8284 22.2805 41.7803C22.1699 41.7323 22.0704 41.6621 21.9881 41.574C21.8925 41.4768 21.8182 41.3607 21.7701 41.2331C21.722 41.1056 21.701 40.9694 21.7085 40.8333C21.7029 40.6754 21.7327 40.5181 21.7955 40.373C21.8584 40.228 21.9527 40.0989 22.0719 39.995C22.3289 39.7886 22.6506 39.6796 22.9802 39.6875C23.3019 39.6748 23.6166 39.7847 23.8605 39.995C23.9818 40.094 24.0779 40.2203 24.1411 40.3636C24.2042 40.5069 24.2326 40.663 24.2238 40.8193C24.2449 40.9583 24.2449 41.0996 24.2238 41.2385C24.179 41.3935 24.1181 41.5434 24.0421 41.6857C23.9465 41.856 23.8392 42.0195 23.7208 42.1748L23.2597 42.8036H22.2117L22.6588 42.2726L23.0641 41.7695L23.0081 41.7835ZM23.0081 41.2385C23.1208 41.2401 23.2301 41.2004 23.3155 41.1268C23.3891 41.0414 23.429 40.932 23.4274 40.8193C23.4302 40.7641 23.4202 40.7089 23.3984 40.6581C23.3766 40.6072 23.3434 40.5621 23.3015 40.526C23.263 40.4881 23.2171 40.4585 23.1666 40.4393C23.1161 40.4201 23.0621 40.4115 23.0081 40.4141C22.9539 40.4086 22.8991 40.4158 22.8481 40.4352C22.7972 40.4546 22.7515 40.4857 22.7147 40.526C22.6728 40.5621 22.6397 40.6072 22.6179 40.6581C22.5961 40.7089 22.5861 40.7641 22.5889 40.8193C22.5897 40.9316 22.6293 41.0402 22.7008 41.1268C22.7402 41.1683 22.788 41.2009 22.841 41.2226C22.894 41.2443 22.9509 41.2545 23.0081 41.2525V41.2385Z" fill="white"/>
<path d="M26.3616 41.2103C26.5193 41.2736 26.6537 41.3841 26.7462 41.5267C26.8388 41.6692 26.885 41.837 26.8786 42.0068C26.8786 42.1774 26.8248 42.3436 26.7249 42.4819C26.6089 42.6256 26.4534 42.7325 26.2776 42.7893C26.0838 42.8725 25.8737 42.9107 25.6629 42.901C25.3559 42.9194 25.0513 42.8359 24.7966 42.6635C24.6866 42.5936 24.5965 42.4963 24.5353 42.3812C24.474 42.2661 24.4438 42.1371 24.4472 42.0068C24.4417 41.8389 24.4865 41.6732 24.5762 41.5312C24.6659 41.3892 24.7963 41.2774 24.9503 41.2103C24.8152 41.1573 24.6991 41.0651 24.617 40.9456C24.5348 40.8261 24.4903 40.6846 24.4892 40.5396C24.4864 40.4132 24.5172 40.2884 24.5786 40.1779C24.64 40.0674 24.7298 39.9752 24.8385 39.9108C25.0861 39.7585 25.3723 39.6808 25.6629 39.6872C25.9558 39.678 26.2442 39.7611 26.4873 39.9247C26.5923 39.9886 26.6786 40.0792 26.7375 40.1872C26.7964 40.2951 26.8258 40.4166 26.8226 40.5396C26.8215 40.6846 26.777 40.8261 26.6949 40.9456C26.6127 41.0651 26.4966 41.1573 26.3616 41.2103ZM25.6489 42.2583C25.7457 42.2553 25.8388 42.221 25.9143 42.1605C25.9852 42.0903 26.0255 41.9948 26.0262 41.895C26.0267 41.8455 26.017 41.7964 25.9977 41.7507C25.9785 41.7051 25.9501 41.6638 25.9143 41.6295C25.8789 41.5963 25.8371 41.5705 25.7915 41.5537C25.7459 41.5369 25.6975 41.5294 25.6489 41.5317C25.5468 41.5279 25.4468 41.5628 25.3694 41.6295C25.3336 41.6638 25.3053 41.7051 25.2861 41.7507C25.2669 41.7964 25.2572 41.8455 25.2576 41.895C25.2583 41.9948 25.2984 42.0903 25.3694 42.1605C25.4459 42.2193 25.5386 42.2534 25.6349 42.2583H25.6489ZM25.6489 40.861C25.7268 40.8811 25.8086 40.8811 25.8865 40.861C25.9439 40.8 25.9784 40.721 25.9843 40.6374C25.983 40.5976 25.9736 40.5586 25.9568 40.5226C25.94 40.4866 25.9162 40.4543 25.8865 40.4278C25.8193 40.3735 25.7354 40.3439 25.6489 40.344C25.6079 40.3415 25.5667 40.3477 25.5282 40.3622C25.4896 40.3766 25.4546 40.399 25.4253 40.4278C25.3917 40.4517 25.364 40.4831 25.3446 40.5194C25.3252 40.5558 25.3147 40.5962 25.3136 40.6374C25.3163 40.6802 25.3276 40.7221 25.3468 40.7605C25.366 40.7989 25.3927 40.8331 25.4253 40.861C25.5027 40.8847 25.5855 40.8847 25.6629 40.861H25.6489Z" fill="white"/>
<path d="M42.0959 3.85981H34.5364C32.0381 3.91027 29.5823 4.5157 27.3468 5.63222C25.1113 6.74875 23.1522 8.34851 21.6111 10.3155C20.0347 8.28985 18.0143 6.65308 15.7056 5.53142C13.3969 4.40975 10.8614 3.83313 8.2946 3.84591H0.539551V7.21342H8.30858C10.5999 7.21142 12.854 7.79275 14.8585 8.9026C16.8631 10.0124 18.5523 11.6143 19.7667 13.5572C20.4511 14.6268 20.9782 15.7892 21.3317 17.0087L21.6111 18.0008L21.9045 17.0087C22.2581 15.7892 22.7851 14.6268 23.4695 13.5572C24.684 11.6143 26.3731 10.0124 28.3777 8.9026C30.3823 7.79275 32.6364 7.21142 34.9277 7.21342H39.0078V26.3987H42.3893V3.84591L42.0959 3.85981Z" fill="white"/>
<path d="M34.6343 28.5921C32.5404 28.5921 30.5323 27.7604 29.0517 26.2798C27.5711 24.7992 26.7395 22.7912 26.7395 20.6973C26.7395 18.6035 27.5711 16.5953 29.0517 15.1148C30.5323 13.6342 32.5404 12.8024 34.6343 12.8024H36.8281V9.4209H34.6343C31.6447 9.4246 28.7787 10.6138 26.6647 12.7278C24.5508 14.8417 23.3616 17.7078 23.3579 20.6973C23.3616 23.6869 24.5508 26.5529 26.6647 28.6669C28.7787 30.7808 31.6447 31.97 34.6343 31.9737H39.1057V39.645C39.1057 41.9227 38.3931 45.7373 33.5164 45.7373H28.3882C25.8761 45.7039 23.4222 46.4941 21.4016 47.987C19.3795 46.4969 16.9266 45.707 14.415 45.7373H9.30071C4.46597 45.7373 3.71141 41.9227 3.71141 39.645V12.8024H8.18295C10.2757 12.8061 12.2816 13.6391 13.7613 15.1188C15.2411 16.5986 16.0742 18.6046 16.0779 20.6973C16.0742 22.79 15.2411 24.7959 13.7613 26.2757C12.2816 27.7555 10.2757 28.5884 8.18295 28.5921H5.89132V31.9737H8.18295C11.1725 31.97 14.0385 30.7808 16.1524 28.6669C18.2663 26.5529 19.4556 23.6869 19.4593 20.6973C19.4556 17.7078 18.2663 14.8417 16.1524 12.7278C14.0385 10.6138 11.1725 9.4246 8.18295 9.4209H0.427734V39.645C0.427734 46.6316 4.99709 49.021 9.2729 49.021H14.387C15.4433 48.9882 16.4954 49.1694 17.48 49.5536C18.4645 49.9378 19.3612 50.5172 20.1162 51.2568L21.3596 52.6541L22.5893 51.2568C23.3488 50.5237 24.2463 49.9485 25.2297 49.5647C26.2131 49.1809 27.2631 48.9961 28.3184 49.021H33.4465C37.7083 49.021 42.2776 46.5618 42.2776 39.645V28.5921H34.6343Z" fill="white"/>
</g>
<defs>
<clipPath id="clip0_4967_7224">
<rect width="251.756" height="52.3018" fill="white" transform="translate(0.539551 0.394531)"/>
</clipPath>
</defs>
</svg>
