<svg width="203" height="40" viewBox="0 0 203 40" fill="none" xmlns="http://www.w3.org/2000/svg">
<g clip-path="url(#clip0_4221_16674)">
<path d="M60.2379 11.2991L55.8951 21.3348L51.541 11.2991H48.8408V24.5076H51.2147V15.9119L54.8825 24.5076H56.8852L60.553 15.9119V24.5076H62.9381V11.2991H60.2379Z" fill="white"/>
<path d="M71.0947 11.0405C70.2004 10.9925 69.3067 11.1455 68.4792 11.4881C67.6518 11.8308 66.9116 12.3545 66.313 13.0206C65.1707 14.3881 64.5844 16.135 64.6704 17.9147C64.5927 19.6898 65.1783 21.4304 66.313 22.7976C66.9191 23.4528 67.6611 23.9676 68.4871 24.3057C69.3131 24.6439 70.2031 24.7973 71.0947 24.7552C71.9836 24.7979 72.871 24.6457 73.695 24.3095C74.519 23.9733 75.2596 23.4611 75.865 22.8088C77.0224 21.448 77.6214 19.6994 77.5414 17.9147C77.624 16.1282 77.0294 14.3764 75.8763 13.0094C75.2722 12.3509 74.5308 11.8332 73.7045 11.4929C72.8782 11.1527 71.9872 10.9983 71.0947 11.0405ZM74.0986 21.3913C73.7229 21.8098 73.2578 22.1383 72.7378 22.3526C72.2178 22.5668 71.6562 22.6612 71.0947 22.6288C70.5248 22.6595 69.9555 22.5588 69.4307 22.3344C68.906 22.1101 68.4398 21.7681 68.0682 21.3349C67.3505 20.3608 66.9927 19.168 67.0556 17.9597C66.9936 16.7515 67.3513 15.559 68.0682 14.5844C68.4347 14.1438 68.8994 13.7953 69.425 13.5667C69.9506 13.3381 70.5224 13.2358 71.0947 13.2681C71.6569 13.2289 72.2205 13.3203 72.7416 13.535C73.2627 13.7496 73.7271 14.0819 74.0986 14.5057C74.8358 15.5226 75.2012 16.7619 75.1337 18.016C75.2055 19.2602 74.8393 20.4902 74.0986 21.4925" fill="white"/>
<path d="M88.4884 19.8386C88.3207 20.6757 87.877 21.4324 87.2283 21.9875C86.591 22.4353 85.8239 22.6607 85.0457 22.6288C84.4748 22.6728 83.9016 22.5805 83.3734 22.3594C82.8452 22.1384 82.3772 21.7949 82.0079 21.3574C81.3433 20.3374 81.0275 19.1294 81.1079 17.9146C81.0488 16.7201 81.3719 15.5378 82.0304 14.5394C82.3713 14.0854 82.821 13.7247 83.3383 13.4907C83.8555 13.2566 84.4234 13.1569 84.9894 13.2005C85.7504 13.1591 86.5054 13.3557 87.1496 13.7631C87.7429 14.1905 88.1464 14.8321 88.2746 15.552V15.6532H90.5923V15.4957C90.4383 14.2451 89.8101 13.1013 88.8372 12.3005C87.7333 11.4541 86.3682 11.0203 84.9782 11.0741C84.0658 11.0192 83.1533 11.18 82.3147 11.5436C81.4761 11.9072 80.735 12.4633 80.1515 13.1668C79.125 14.5433 78.6081 16.2333 78.6889 17.9484C78.5999 19.6489 79.0962 21.3286 80.0953 22.7075C80.6938 23.4191 81.4525 23.9788 82.309 24.3406C83.1656 24.7024 84.0957 24.856 85.0231 24.7889C86.3522 24.8264 87.6517 24.392 88.6909 23.5626C89.8127 22.6524 90.5548 21.3566 90.7723 19.9285V19.7823H88.4546L88.4884 19.8386Z" fill="white"/>
<path d="M98.052 11.2878H92.5503V24.5076H94.9355V19.5347H98.0182C101.247 19.5347 102.879 18.1396 102.879 15.3944C102.879 12.6492 101.258 11.2878 98.052 11.2878ZM94.9355 13.3693H97.8944C98.5861 13.31 99.278 13.48 99.8633 13.8531C100.082 14.042 100.252 14.2805 100.36 14.5486C100.467 14.8168 100.509 15.1068 100.482 15.3944C100.511 15.6879 100.471 15.9839 100.365 16.2593C100.26 16.5346 100.092 16.7815 99.8746 16.9808C99.2802 17.3422 98.5886 17.5112 97.8944 17.4645H94.9355V13.3693Z" fill="white"/>
<path d="M106.828 18.7696H113.612V16.6995H106.828V13.3692H114.039V11.2991H104.442V24.5076H114.354V22.4374H106.828V18.7696Z" fill="white"/>
<path d="M129.892 20.6373C129.863 20.9004 129.777 21.1541 129.642 21.3812C129.506 21.6083 129.323 21.8036 129.105 21.9537C128.76 22.141 128.371 22.2304 127.979 22.2124H127.304V24.1476L122.388 11.2878H119.834L114.782 24.5076H117.325L118.45 21.2561H123.693L124.818 24.5076H128.407C129.347 24.5623 130.272 24.2474 130.983 23.6301C131.661 22.8731 132.079 21.9189 132.176 20.9073L133.391 13.3693H136.856V24.5076H139.242V11.2878H131.366L129.892 20.6373ZM122.995 19.2535H119.215L121.116 13.9881L122.995 19.2535Z" fill="white"/>
<path d="M150.829 19.8386C150.653 20.6724 150.211 21.4264 149.569 21.9875C148.931 22.4338 148.164 22.659 147.386 22.6288C146.815 22.6738 146.242 22.5819 145.714 22.3608C145.185 22.1397 144.717 21.7957 144.349 21.3575C143.684 20.3375 143.368 19.1294 143.449 17.9147C143.381 16.7193 143.705 15.5345 144.371 14.5394C144.712 14.0854 145.162 13.7247 145.679 13.4907C146.196 13.2567 146.764 13.1569 147.33 13.2006C148.091 13.1606 148.846 13.3571 149.49 13.7631C150.077 14.1969 150.478 14.8356 150.615 15.552V15.6533H152.933V15.4957C152.788 14.245 152.162 13.0995 151.189 12.3005C150.085 11.4541 148.72 11.0203 147.33 11.0742C146.416 11.0201 145.502 11.1814 144.662 11.5448C143.822 11.9083 143.079 12.4639 142.492 13.1669C141.471 14.5458 140.954 16.234 141.03 17.9485C140.941 19.649 141.437 21.3286 142.436 22.7076C143.035 23.4185 143.794 23.9776 144.65 24.3394C145.507 24.7011 146.437 24.8551 147.364 24.789C148.696 24.8233 149.998 24.3894 151.043 23.5626C152.161 22.6513 152.9 21.3554 153.113 19.9286V19.7823H150.784L150.829 19.8386Z" fill="white"/>
<path d="M153.901 13.3692H158.143V24.5076H160.528V13.3692H164.77V11.2991H153.901V13.3692Z" fill="white"/>
<path d="M171.588 11.2878H166.086V24.5076H168.46V19.5347H171.543C174.772 19.5347 176.415 18.1396 176.415 15.3944C176.415 12.6492 174.783 11.2878 171.588 11.2878ZM168.46 13.3693H171.419C172.111 13.31 172.803 13.48 173.388 13.8531C173.608 14.0408 173.78 14.2791 173.887 14.5476C173.995 14.8161 174.036 15.1066 174.007 15.3944C174.035 15.6868 173.995 15.9815 173.892 16.2564C173.788 16.5312 173.624 16.7789 173.411 16.9808C172.813 17.3445 172.117 17.5136 171.419 17.4645H168.46V13.3693Z" fill="white"/>
<path d="M183.818 11.0405C182.924 10.9925 182.03 11.1455 181.202 11.4881C180.375 11.8308 179.635 12.3545 179.036 13.0206C177.889 14.3853 177.302 16.1342 177.394 17.9147C177.314 19.6866 177.9 21.4242 179.036 22.7864C179.64 23.4448 180.382 23.9625 181.208 24.3027C182.034 24.643 182.925 24.7975 183.818 24.7552C184.707 24.7979 185.594 24.6457 186.418 24.3095C187.242 23.9733 187.983 23.4611 188.588 22.8088C189.738 21.4441 190.332 19.6972 190.253 17.9147C190.336 16.1282 189.741 14.3764 188.588 13.0094C187.986 12.3518 187.246 11.8345 186.422 11.4943C185.598 11.1541 184.709 10.9991 183.818 11.0405ZM183.818 13.1669C184.378 13.1277 184.94 13.2191 185.46 13.4339C185.979 13.6486 186.441 13.9808 186.811 14.4045C187.557 15.4173 187.927 16.6586 187.857 17.9147C187.93 19.1608 187.56 20.3927 186.811 21.3913C186.437 21.8089 185.973 22.137 185.455 22.3513C184.937 22.5655 184.378 22.6603 183.818 22.6288C183.248 22.6612 182.678 22.5612 182.153 22.3368C181.628 22.1123 181.162 21.7694 180.791 21.3349C180.07 20.3623 179.708 19.1694 179.768 17.9597C179.709 16.7501 180.071 15.5575 180.791 14.5844C181.157 14.1431 181.622 13.794 182.148 13.5654C182.673 13.3367 183.246 13.2349 183.818 13.2681" fill="white"/>
<path d="M195.214 10.0728C195.905 10.5082 196.717 10.713 197.532 10.6578C198.351 10.7162 199.167 10.5113 199.861 10.0728C200.42 9.59106 200.778 8.91614 200.862 8.18261V8.02515H198.983V8.13763C198.964 8.48959 198.816 8.82219 198.567 9.07147C198.254 9.25385 197.894 9.3399 197.532 9.31895C197.173 9.34321 196.816 9.25685 196.508 9.07147C196.257 8.82271 196.105 8.49061 196.081 8.13763V8.02515H194.202V8.17141C194.233 8.53925 194.337 8.89709 194.509 9.22371C194.681 9.55033 194.917 9.83907 195.203 10.0728" fill="white"/>
<path d="M200.727 11.2991L194.382 20.581V11.2991H191.997V24.5076H194.314L200.592 15.3494V24.5076H203V11.2991H200.727Z" fill="white"/>
<path d="M14.7053 32.0456H14.019V30.1667H13.4902L13.7378 29.5929H14.7053V32.0456Z" fill="white"/>
<path d="M16.1119 31.213C16.0114 31.2311 15.9085 31.2311 15.8081 31.213C15.7093 31.2131 15.6116 31.1933 15.5207 31.1546C15.4298 31.1159 15.3477 31.0592 15.2793 30.9879C15.134 30.8285 15.0572 30.6184 15.0655 30.4029C15.0576 30.2736 15.0799 30.1443 15.1306 30.0251C15.1814 29.906 15.2593 29.8003 15.3581 29.7166C15.559 29.5475 15.8157 29.4593 16.0782 29.4691C16.3409 29.4571 16.5983 29.5456 16.7982 29.7166C16.8926 29.799 16.9678 29.9012 17.0183 30.0159C17.0689 30.1306 17.0936 30.2551 17.0907 30.3804C17.1017 30.4926 17.1017 30.6057 17.0907 30.7179C17.0526 30.8437 16.9997 30.9646 16.9332 31.078C16.858 31.2197 16.7715 31.3552 16.6744 31.483L16.3144 31.978H15.4706L15.8193 31.5617L16.1568 31.1567L16.1119 31.213ZM16.1119 30.7742C16.1555 30.7786 16.1997 30.7728 16.2407 30.7572C16.2817 30.7416 16.3185 30.7165 16.3482 30.6841C16.3795 30.6514 16.4037 30.6125 16.4192 30.5699C16.4347 30.5273 16.4411 30.4819 16.4381 30.4366C16.4396 30.3933 16.4324 30.35 16.417 30.3095C16.4015 30.2689 16.3781 30.2318 16.3482 30.2004C16.3154 30.169 16.2765 30.1448 16.2339 30.1293C16.1913 30.1138 16.1459 30.1074 16.1006 30.1104C16.0571 30.1083 16.0138 30.1152 15.9731 30.1307C15.9324 30.1461 15.8954 30.1698 15.8644 30.2004C15.8344 30.2318 15.811 30.2689 15.7955 30.3095C15.7801 30.35 15.7729 30.3933 15.7744 30.4366C15.7713 30.4819 15.7777 30.5273 15.7932 30.5699C15.8087 30.6125 15.833 30.6514 15.8644 30.6841C15.8935 30.7179 15.9298 30.7446 15.9708 30.7621C16.0117 30.7797 16.0561 30.7876 16.1006 30.7854L16.1119 30.7742Z" fill="white"/>
<path d="M18.3289 31.2131C18.2285 31.2312 18.1256 31.2312 18.0251 31.2131C17.928 31.213 17.832 31.193 17.7429 31.1543C17.6539 31.1156 17.5738 31.059 17.5075 30.988C17.3581 30.8304 17.2772 30.6201 17.2825 30.403C17.2771 30.274 17.3005 30.1455 17.3511 30.0267C17.4017 29.908 17.4782 29.8021 17.575 29.7167C17.782 29.5505 18.041 29.4629 18.3064 29.4692C18.5679 29.4655 18.8225 29.553 19.0264 29.7167C19.1195 29.7997 19.1929 29.9023 19.2415 30.017C19.2902 30.1318 19.3128 30.256 19.3077 30.3805C19.3247 30.4924 19.3247 30.6062 19.3077 30.718C19.2736 30.8435 19.2245 30.9643 19.1615 31.0781C19.0822 31.2174 18.9957 31.3526 18.9026 31.4831L18.5314 31.9781H17.6876L18.0476 31.5618L18.3739 31.1568L18.3289 31.2131ZM18.3289 30.7743C18.3741 30.7773 18.4195 30.7709 18.4621 30.7554C18.5047 30.7399 18.5436 30.7156 18.5764 30.6842C18.6356 30.6155 18.6677 30.5275 18.6664 30.4367C18.6686 30.3923 18.6607 30.3478 18.6431 30.3069C18.6256 30.2659 18.5989 30.2295 18.5651 30.2005C18.5341 30.1699 18.4971 30.1462 18.4564 30.1308C18.4158 30.1153 18.3724 30.1084 18.3289 30.1105C18.2852 30.106 18.2411 30.1118 18.2001 30.1275C18.159 30.1431 18.1222 30.1681 18.0926 30.2005C18.0589 30.2295 18.0321 30.2659 18.0146 30.3069C17.9971 30.3478 17.9891 30.3923 17.9913 30.4367C17.9901 30.5275 18.0221 30.6155 18.0813 30.6842C18.1131 30.7176 18.1516 30.744 18.1942 30.7614C18.2369 30.7789 18.2828 30.7871 18.3289 30.7855V30.7743Z" fill="white"/>
<path d="M21.0847 30.7518C21.2117 30.8027 21.32 30.8917 21.3945 31.0065C21.469 31.1213 21.5062 31.2563 21.501 31.3931C21.501 31.5304 21.4577 31.6643 21.3772 31.7756C21.2835 31.8887 21.1639 31.9775 21.0285 32.0344C20.8662 32.0934 20.6949 32.1238 20.5222 32.1244C20.2736 32.1359 20.0283 32.0647 19.8246 31.9219C19.736 31.8656 19.6636 31.7872 19.6143 31.6945C19.565 31.6019 19.5406 31.498 19.5433 31.3931C19.5388 31.2579 19.5751 31.1245 19.6473 31.0102C19.7195 30.8958 19.8244 30.8058 19.9484 30.7518C19.8378 30.7118 19.7426 30.6383 19.676 30.5414C19.6094 30.4446 19.5748 30.3293 19.5771 30.2117C19.5749 30.11 19.5997 30.0095 19.6492 29.9205C19.6986 29.8315 19.7708 29.7573 19.8584 29.7054C20.0582 29.5839 20.2883 29.5215 20.5222 29.5255C20.758 29.518 20.9903 29.5849 21.186 29.7167C21.2698 29.769 21.3387 29.842 21.386 29.9288C21.4333 30.0155 21.4574 30.113 21.456 30.2117C21.4583 30.3293 21.4237 30.4446 21.3571 30.5414C21.2905 30.6383 21.1953 30.7118 21.0847 30.7518ZM20.5109 31.5956C20.55 31.5974 20.5891 31.5915 20.6258 31.5779C20.6625 31.5644 20.6961 31.5436 20.7247 31.5169C20.7535 31.4893 20.7763 31.4561 20.7918 31.4193C20.8073 31.3825 20.8151 31.343 20.8147 31.3031C20.8151 31.2632 20.8073 31.2237 20.7918 31.1869C20.7763 31.1502 20.7535 31.117 20.7247 31.0893C20.6961 31.0626 20.6625 31.0418 20.6258 31.0283C20.5891 31.0148 20.55 31.0087 20.5109 31.0106C20.4717 31.0081 20.4326 31.0138 20.3957 31.0273C20.3589 31.0409 20.3254 31.062 20.2972 31.0893C20.2659 31.1149 20.2413 31.1477 20.2256 31.185C20.2099 31.2223 20.2036 31.2628 20.2072 31.3031C20.2036 31.3434 20.2099 31.3839 20.2256 31.4212C20.2413 31.4584 20.2659 31.4913 20.2972 31.5169C20.3237 31.5433 20.3553 31.564 20.3902 31.5775C20.425 31.5911 20.4623 31.5972 20.4997 31.5956H20.5109ZM20.5109 30.4705C20.5808 30.4726 20.6491 30.4485 20.7022 30.403C20.7269 30.38 20.7466 30.3521 20.7602 30.3211C20.7737 30.2902 20.7808 30.2568 20.781 30.223C20.78 30.191 20.7725 30.1595 20.7589 30.1305C20.7454 30.1015 20.7261 30.0755 20.7022 30.0542C20.6491 30.0087 20.5808 29.9846 20.5109 29.9867C20.4445 29.9853 20.38 30.0094 20.3309 30.0542C20.3052 30.074 20.2847 30.0997 20.271 30.1291C20.2573 30.1584 20.2508 30.1906 20.2522 30.223C20.2499 30.2571 20.256 30.2913 20.2697 30.3226C20.2834 30.3539 20.3043 30.3815 20.3309 30.403C20.3841 30.4485 20.4522 30.4726 20.5222 30.4705H20.5109Z" fill="white"/>
<path d="M33.7647 0.67836H27.6668C25.6563 0.715889 23.6795 1.20204 21.8809 2.10133C20.0823 3.00063 18.5074 4.29034 17.271 5.87625C16.0006 4.24372 14.372 2.92494 12.511 2.02175C10.65 1.11855 8.60624 0.655078 6.53766 0.667098H0.293457V3.38985H6.54893C8.39297 3.38598 10.2076 3.85184 11.8217 4.74354C13.4358 5.63524 14.7962 6.92336 15.7746 8.48645C16.3278 9.35048 16.7523 10.2904 17.0347 11.2766L17.271 12.0642L17.496 11.2766C17.7785 10.2904 18.2029 9.35048 18.7561 8.48645C19.7345 6.92336 21.0949 5.63524 22.709 4.74354C24.3231 3.85184 26.1377 3.38598 27.9818 3.38985H31.2671V18.826H33.9898V0.667098L33.7647 0.67836Z" fill="#E30613"/>
<path d="M27.7452 20.6037C26.0592 20.5978 24.444 19.9246 23.2529 18.7313C22.0617 17.538 21.3914 15.9217 21.3884 14.2357C21.3914 12.5507 22.0621 10.9356 23.2536 9.74414C24.445 8.55267 26.0602 7.88198 27.7452 7.87901H29.5115V5.15625H27.7452C25.3381 5.15923 23.0304 6.11677 21.3283 7.81885C19.6263 9.52093 18.6687 11.8286 18.6657 14.2357C18.6687 16.6428 19.6263 18.9505 21.3283 20.6525C23.0304 22.3546 25.3381 23.3122 27.7452 23.3151H31.3567V29.4918C31.3567 31.3257 30.7829 34.3973 26.8563 34.3973H22.7385C20.7147 34.3745 18.739 35.0146 17.1131 36.2199C15.4864 35.0161 13.5113 34.3761 11.4877 34.3973H7.36985C3.47705 34.3973 2.86951 31.3257 2.86951 29.4918V7.87901H6.46979C8.15479 7.88198 9.76994 8.55267 10.9614 9.74414C12.1529 10.9356 12.8236 12.5507 12.8266 14.2357C12.8236 15.9217 12.1533 17.538 10.9621 18.7313C9.77094 19.9246 8.15582 20.5978 6.46979 20.6037H4.6359V23.3151H6.46979C8.87689 23.3122 11.1846 22.3546 12.8866 20.6525C14.5887 18.9505 15.5463 16.6428 15.5492 14.2357C15.5463 11.8286 14.5887 9.52093 12.8866 7.81885C11.1846 6.11677 8.87689 5.15923 6.46979 5.15625H0.225586V29.4918C0.225586 35.061 3.90463 37.0412 7.34739 37.0412H11.4652C12.3153 37.018 13.1615 37.1654 13.9538 37.4746C14.746 37.7837 15.4683 38.2484 16.0781 38.8413L17.0793 39.9664L18.0807 38.8413C18.69 38.2479 19.4123 37.7829 20.2046 37.4737C20.997 37.1645 21.8433 37.0174 22.6935 37.0412H26.8113C30.2541 37.0412 33.9332 35.061 33.9332 29.4918V20.6037H27.7452Z" fill="white"/>
</g>
<defs>
<clipPath id="clip0_4221_16674">
<rect width="202.707" height="39.3217" fill="white" transform="translate(0.293457 0.678223)"/>
</clipPath>
</defs>
</svg>
